<mxfile host="app.diagrams.net" modified="2024-04-10T18:30:47.795Z" agent="Mozilla/5.0 (Windows NT 10.0; Win64; x64) AppleWebKit/537.36 (KHTML, like Gecko) Chrome/121.0.0.0 Safari/537.36 OPR/107.0.0.0" etag="Q-PN8V-QzKNdQHU89UBH" version="24.2.3" type="device">
  <diagram name="PÃ¡gina-1" id="qlDooK-yTYWlgP4kh8C_">
    <mxGraphModel dx="1580" dy="463" grid="1" gridSize="10" guides="1" tooltips="1" connect="1" arrows="1" fold="1" page="1" pageScale="1" pageWidth="827" pageHeight="1169" math="0" shadow="0">
      <root>
        <mxCell id="0" />
        <mxCell id="1" parent="0" />
        <mxCell id="T1UV1dCoxQ2zjjychoh9-38" style="edgeStyle=orthogonalEdgeStyle;rounded=0;orthogonalLoop=1;jettySize=auto;html=1;entryX=0;entryY=0.5;entryDx=0;entryDy=0;" edge="1" parent="1" source="T1UV1dCoxQ2zjjychoh9-2" target="T1UV1dCoxQ2zjjychoh9-35">
          <mxGeometry relative="1" as="geometry" />
        </mxCell>
        <mxCell id="T1UV1dCoxQ2zjjychoh9-86" style="edgeStyle=orthogonalEdgeStyle;rounded=0;orthogonalLoop=1;jettySize=auto;html=1;entryX=0;entryY=0.5;entryDx=0;entryDy=0;" edge="1" parent="1" source="T1UV1dCoxQ2zjjychoh9-2" target="T1UV1dCoxQ2zjjychoh9-77">
          <mxGeometry relative="1" as="geometry" />
        </mxCell>
        <mxCell id="T1UV1dCoxQ2zjjychoh9-2" value="Visitante" style="shape=table;startSize=30;container=1;collapsible=1;childLayout=tableLayout;fixedRows=1;rowLines=0;fontStyle=1;align=center;resizeLast=1;html=1;" vertex="1" parent="1">
          <mxGeometry x="120" y="40" width="180" height="240" as="geometry" />
        </mxCell>
        <mxCell id="T1UV1dCoxQ2zjjychoh9-3" value="" style="shape=tableRow;horizontal=0;startSize=0;swimlaneHead=0;swimlaneBody=0;fillColor=none;collapsible=0;dropTarget=0;points=[[0,0.5],[1,0.5]];portConstraint=eastwest;top=0;left=0;right=0;bottom=1;" vertex="1" parent="T1UV1dCoxQ2zjjychoh9-2">
          <mxGeometry y="30" width="180" height="30" as="geometry" />
        </mxCell>
        <mxCell id="T1UV1dCoxQ2zjjychoh9-4" value="PK" style="shape=partialRectangle;connectable=0;fillColor=none;top=0;left=0;bottom=0;right=0;fontStyle=1;overflow=hidden;whiteSpace=wrap;html=1;" vertex="1" parent="T1UV1dCoxQ2zjjychoh9-3">
          <mxGeometry width="30" height="30" as="geometry">
            <mxRectangle width="30" height="30" as="alternateBounds" />
          </mxGeometry>
        </mxCell>
        <mxCell id="T1UV1dCoxQ2zjjychoh9-5" value="ID_visitante" style="shape=partialRectangle;connectable=0;fillColor=none;top=0;left=0;bottom=0;right=0;align=left;spacingLeft=6;fontStyle=5;overflow=hidden;whiteSpace=wrap;html=1;" vertex="1" parent="T1UV1dCoxQ2zjjychoh9-3">
          <mxGeometry x="30" width="150" height="30" as="geometry">
            <mxRectangle width="150" height="30" as="alternateBounds" />
          </mxGeometry>
        </mxCell>
        <mxCell id="T1UV1dCoxQ2zjjychoh9-6" value="" style="shape=tableRow;horizontal=0;startSize=0;swimlaneHead=0;swimlaneBody=0;fillColor=none;collapsible=0;dropTarget=0;points=[[0,0.5],[1,0.5]];portConstraint=eastwest;top=0;left=0;right=0;bottom=0;" vertex="1" parent="T1UV1dCoxQ2zjjychoh9-2">
          <mxGeometry y="60" width="180" height="30" as="geometry" />
        </mxCell>
        <mxCell id="T1UV1dCoxQ2zjjychoh9-7" value="" style="shape=partialRectangle;connectable=0;fillColor=none;top=0;left=0;bottom=0;right=0;editable=1;overflow=hidden;whiteSpace=wrap;html=1;" vertex="1" parent="T1UV1dCoxQ2zjjychoh9-6">
          <mxGeometry width="30" height="30" as="geometry">
            <mxRectangle width="30" height="30" as="alternateBounds" />
          </mxGeometry>
        </mxCell>
        <mxCell id="T1UV1dCoxQ2zjjychoh9-8" value="documento_identidad" style="shape=partialRectangle;connectable=0;fillColor=none;top=0;left=0;bottom=0;right=0;align=left;spacingLeft=6;overflow=hidden;whiteSpace=wrap;html=1;" vertex="1" parent="T1UV1dCoxQ2zjjychoh9-6">
          <mxGeometry x="30" width="150" height="30" as="geometry">
            <mxRectangle width="150" height="30" as="alternateBounds" />
          </mxGeometry>
        </mxCell>
        <mxCell id="T1UV1dCoxQ2zjjychoh9-9" value="" style="shape=tableRow;horizontal=0;startSize=0;swimlaneHead=0;swimlaneBody=0;fillColor=none;collapsible=0;dropTarget=0;points=[[0,0.5],[1,0.5]];portConstraint=eastwest;top=0;left=0;right=0;bottom=0;" vertex="1" parent="T1UV1dCoxQ2zjjychoh9-2">
          <mxGeometry y="90" width="180" height="30" as="geometry" />
        </mxCell>
        <mxCell id="T1UV1dCoxQ2zjjychoh9-10" value="" style="shape=partialRectangle;connectable=0;fillColor=none;top=0;left=0;bottom=0;right=0;editable=1;overflow=hidden;whiteSpace=wrap;html=1;" vertex="1" parent="T1UV1dCoxQ2zjjychoh9-9">
          <mxGeometry width="30" height="30" as="geometry">
            <mxRectangle width="30" height="30" as="alternateBounds" />
          </mxGeometry>
        </mxCell>
        <mxCell id="T1UV1dCoxQ2zjjychoh9-11" value="nombre" style="shape=partialRectangle;connectable=0;fillColor=none;top=0;left=0;bottom=0;right=0;align=left;spacingLeft=6;overflow=hidden;whiteSpace=wrap;html=1;" vertex="1" parent="T1UV1dCoxQ2zjjychoh9-9">
          <mxGeometry x="30" width="150" height="30" as="geometry">
            <mxRectangle width="150" height="30" as="alternateBounds" />
          </mxGeometry>
        </mxCell>
        <mxCell id="T1UV1dCoxQ2zjjychoh9-12" value="" style="shape=tableRow;horizontal=0;startSize=0;swimlaneHead=0;swimlaneBody=0;fillColor=none;collapsible=0;dropTarget=0;points=[[0,0.5],[1,0.5]];portConstraint=eastwest;top=0;left=0;right=0;bottom=0;" vertex="1" parent="T1UV1dCoxQ2zjjychoh9-2">
          <mxGeometry y="120" width="180" height="30" as="geometry" />
        </mxCell>
        <mxCell id="T1UV1dCoxQ2zjjychoh9-13" value="" style="shape=partialRectangle;connectable=0;fillColor=none;top=0;left=0;bottom=0;right=0;editable=1;overflow=hidden;whiteSpace=wrap;html=1;" vertex="1" parent="T1UV1dCoxQ2zjjychoh9-12">
          <mxGeometry width="30" height="30" as="geometry">
            <mxRectangle width="30" height="30" as="alternateBounds" />
          </mxGeometry>
        </mxCell>
        <mxCell id="T1UV1dCoxQ2zjjychoh9-14" value="fotografia" style="shape=partialRectangle;connectable=0;fillColor=none;top=0;left=0;bottom=0;right=0;align=left;spacingLeft=6;overflow=hidden;whiteSpace=wrap;html=1;" vertex="1" parent="T1UV1dCoxQ2zjjychoh9-12">
          <mxGeometry x="30" width="150" height="30" as="geometry">
            <mxRectangle width="150" height="30" as="alternateBounds" />
          </mxGeometry>
        </mxCell>
        <mxCell id="T1UV1dCoxQ2zjjychoh9-16" style="shape=tableRow;horizontal=0;startSize=0;swimlaneHead=0;swimlaneBody=0;fillColor=none;collapsible=0;dropTarget=0;points=[[0,0.5],[1,0.5]];portConstraint=eastwest;top=0;left=0;right=0;bottom=0;" vertex="1" parent="T1UV1dCoxQ2zjjychoh9-2">
          <mxGeometry y="150" width="180" height="30" as="geometry" />
        </mxCell>
        <mxCell id="T1UV1dCoxQ2zjjychoh9-17" style="shape=partialRectangle;connectable=0;fillColor=none;top=0;left=0;bottom=0;right=0;editable=1;overflow=hidden;whiteSpace=wrap;html=1;" vertex="1" parent="T1UV1dCoxQ2zjjychoh9-16">
          <mxGeometry width="30" height="30" as="geometry">
            <mxRectangle width="30" height="30" as="alternateBounds" />
          </mxGeometry>
        </mxCell>
        <mxCell id="T1UV1dCoxQ2zjjychoh9-18" value="correo_electronico" style="shape=partialRectangle;connectable=0;fillColor=none;top=0;left=0;bottom=0;right=0;align=left;spacingLeft=6;overflow=hidden;whiteSpace=wrap;html=1;" vertex="1" parent="T1UV1dCoxQ2zjjychoh9-16">
          <mxGeometry x="30" width="150" height="30" as="geometry">
            <mxRectangle width="150" height="30" as="alternateBounds" />
          </mxGeometry>
        </mxCell>
        <mxCell id="T1UV1dCoxQ2zjjychoh9-19" style="shape=tableRow;horizontal=0;startSize=0;swimlaneHead=0;swimlaneBody=0;fillColor=none;collapsible=0;dropTarget=0;points=[[0,0.5],[1,0.5]];portConstraint=eastwest;top=0;left=0;right=0;bottom=0;" vertex="1" parent="T1UV1dCoxQ2zjjychoh9-2">
          <mxGeometry y="180" width="180" height="30" as="geometry" />
        </mxCell>
        <mxCell id="T1UV1dCoxQ2zjjychoh9-20" style="shape=partialRectangle;connectable=0;fillColor=none;top=0;left=0;bottom=0;right=0;editable=1;overflow=hidden;whiteSpace=wrap;html=1;" vertex="1" parent="T1UV1dCoxQ2zjjychoh9-19">
          <mxGeometry width="30" height="30" as="geometry">
            <mxRectangle width="30" height="30" as="alternateBounds" />
          </mxGeometry>
        </mxCell>
        <mxCell id="T1UV1dCoxQ2zjjychoh9-21" value="nacionalidad" style="shape=partialRectangle;connectable=0;fillColor=none;top=0;left=0;bottom=0;right=0;align=left;spacingLeft=6;overflow=hidden;whiteSpace=wrap;html=1;" vertex="1" parent="T1UV1dCoxQ2zjjychoh9-19">
          <mxGeometry x="30" width="150" height="30" as="geometry">
            <mxRectangle width="150" height="30" as="alternateBounds" />
          </mxGeometry>
        </mxCell>
        <mxCell id="T1UV1dCoxQ2zjjychoh9-22" style="shape=tableRow;horizontal=0;startSize=0;swimlaneHead=0;swimlaneBody=0;fillColor=none;collapsible=0;dropTarget=0;points=[[0,0.5],[1,0.5]];portConstraint=eastwest;top=0;left=0;right=0;bottom=0;" vertex="1" parent="T1UV1dCoxQ2zjjychoh9-2">
          <mxGeometry y="210" width="180" height="30" as="geometry" />
        </mxCell>
        <mxCell id="T1UV1dCoxQ2zjjychoh9-23" style="shape=partialRectangle;connectable=0;fillColor=none;top=0;left=0;bottom=0;right=0;editable=1;overflow=hidden;whiteSpace=wrap;html=1;" vertex="1" parent="T1UV1dCoxQ2zjjychoh9-22">
          <mxGeometry width="30" height="30" as="geometry">
            <mxRectangle width="30" height="30" as="alternateBounds" />
          </mxGeometry>
        </mxCell>
        <mxCell id="T1UV1dCoxQ2zjjychoh9-24" style="shape=partialRectangle;connectable=0;fillColor=none;top=0;left=0;bottom=0;right=0;align=left;spacingLeft=6;overflow=hidden;whiteSpace=wrap;html=1;" vertex="1" parent="T1UV1dCoxQ2zjjychoh9-22">
          <mxGeometry x="30" width="150" height="30" as="geometry">
            <mxRectangle width="150" height="30" as="alternateBounds" />
          </mxGeometry>
        </mxCell>
        <mxCell id="T1UV1dCoxQ2zjjychoh9-15" value="" style="shape=image;verticalLabelPosition=bottom;labelBackgroundColor=default;verticalAlign=top;aspect=fixed;imageAspect=0;image=data:image/png,iVBORw0KGgoAAAANSUhEUgAAAmsAAAIfCAYAAAAv/5szAAAAAXNSR0IArs4c6QAAAARnQU1BAACxjwv8YQUAAAAJcEhZcwAAFiUAABYlAUlSJPAAAP+lSURBVHhe7J0FYBRHF8f/cRcIgeDu7u5aXNqipUUqQHFKS6FA4aMGRVpKSwu0aHF3d3eHhIQECcSJe773Jns00IQil9wleb92ud1Zuc3t7Mx/3sx7YxITl5AEQRAEQRAEwSgxOXrimIg1QRAEQRAEI8UkidDWBSHTExMTg7Zt28LU1FRLETI7cXFxyOPmhtmzZiFv3rxaqiAIQvZBxJqQpWCx1rNnT6xfv15LETI7T548wYoVK9Cpc2fkE7EmCEI2RMwPgiAYPYncppR2pSAI2RQRa4IgCIIgCEaMiDVBEIweE7aqmZhoW4IgCNkLEWuCIBg/JNREqgmCkF0RsSYIBiQxMREJCQnqMz19ffjamdmXiO9cfKEEQciuiFgTBAPh7++PgQMHYPTo0Rj7+ef44YfpuHvXW9urP1gI7tm9Bwf2H9BSMiH0N0g3qCAI2RURa4JgIKIio3D1+nU0adwYHTt2xF0vT+zaswtRUVHYs3c3NqzfgMCAAERHR2P3nj1Yvnw5Hj9+jLjYWJw4fhyLFy/GHU9PlbaH9m/cuFF9cviSE8dPYNv27Vi6dKnan5CUgESTJERGRGDr1q34e+VKBAUFaXeSCZC4eYIgZGMkzpqQpchMcdbu3buH7j3exbRvv4ejgwPmzJqlhBuLqM2bN8EtfwHY2dqi+7vvYs6c2ciTOw+CgoPQf+CH+GXePFSpXBnXr1zG293extgvvkDz5k1x/74vfvjuG3z343Q8CQqGla0dnGxtULtuPTg4OCIgMADHjhyFjb09oki4bdq0CRYWFtodGSccZ20ZCdUuHGctXz4tVRAEIfsgzVVBMBTUTvK+ew/fTp2Cr8aOwZUrV+Ho5ITVq1ejYpVqKFm0KE6dOIHg4GAkJCaiVJkyeKtVOxw9cgQujo7I5+aGxCQT3L7jiaIlSmL+/D/QtGkTPHzoC0d7J4wcORo/zpgBb29fREZG0dcloHiREqhZuzacHOzg4+OD+Ph47WaMGPqd2BvURLpBBUHIpohYEwRDQeKjXNmyWLx4KTbv2IXWbVrBx9sHJqYmsDA3g629PfLmzw8ba2sSYc0QFxuD3xf9htDQMJhZWMCe9js7OcLezhZO9rbKQqam2aLFlK5ta2MLMxMz2k5UXxcbG4+Vq/9GeFgYcuTIpdIyBfS3JPEinQCCIGRTRKwJgoFITIxDEr2CSfSfubk5XF1zI+RJCN7r+wG2btmsxpU1bNiQxJgDVq9ehR07dyFPbjd0aNcWdzw88PvvvysvyZLFS9C/dB02PJHQY+9SkyR6tZUhKh5IIsFGmJOIc7Bzxtatm3HwwH54eXnh5IkTynJl7PCfIpY1QRCyKzJmTchSZKYxa1FRCQgOeQTXXLmVVSwsLAyRkZEk2lzh4X6b9j1B1apVYGZmjquXr8L3kS8aNWoIG1tb3PP2xsUrV9C4cWNYktALCglBfjc39cnXYkcCB0dHJQL9/P1ha2enrG02Nja4evUqihYpAj8/PzVBeg5nZ+2OjJMn9DctW7YMXbp2NZoxa94+Prh5/TosrayTlSQJZHpQJHxpnT1XzUgs83oSrZtyOn1yUcvH8H7dekKy1VMdz+tKcPM6XY/FqQmtJ6ZY53Ter76Tr61bT+P71XqK73/+Xp7//qfrr/n9DKe/7Per34KOS+v7U/0t6POVvp/XaSPN709eT4yNQ7kK5ZFX5p8VjBARa0KWQiZyz3qwgwF7wnbu0sVoJnJfsmQJTp89i0b1GpAAMKH6P5E0RLIo4CI11XU6T1kHn1tX0Lo69r/W+Xv4vNTWX/P7deuG/n5eV/D1+LzU1l/4/XwNvkxa30/rLPTUOp/Gx/+zfo6eZ916ddG5c2f+NkEwKkSsCVkKEWtZD2O0rLFYMzMzQ+/evbUUIbOzYeNG9clex4JgbFAzQxAEwYhhCwhbRwQhHaFclmzBEwQjREpAQRCMHhPurGLRJgjpBHcxSTeTYKyIWBMEwehRgzVkxIYgCNkUGbMmZCl4zFqnTp1Qr149LeXN0E20buxR/rMy/EzZU3bcuHFG46knY9ayHhs3bVKfnan8EARjQ8SakKXgeTS7d++Ozz//XAmtN+XK1as4dvQoPvnkEy1FyGgiwsNx6vRpDBw4UBwMXgN+Dzw9PWFlZYWCBQuq7Zs3r6uoFRYWlihRorj6WxiuDq5cuYTcefLC0dERVpaWT/elRUJSIiJITDvYOyR7XmZSxMFAMGZErAlZCp4EvW/fvlizZo2W8mYcPnwYO3bswLfffqulCBmNLnRHly5dxLL2GiQmJGDhn4tw57Y7vvv+ezX37KBPhqBFm+YkhMPwyceDleWYw1ckUnUwacKXqF23Pjw83PHuO++gQMFCSsRRZfGMo0cCbbOMCwoJxrDBg/HTvHnImSOn6q7mZhLH9ctMiFgTjBkZsyYIL4Crm4S4uOQNwWCwWJB25ethSqKycqXKOHzsJAJIqF27cQNPogJQp1YjWFva4Nz58+jYtTM+6NcPN65dg5mlNe7cuYPf/1iAb6ZNU1bNPn36oCuJ5ctXLmLHzp0Y/+UX6NShA7797hssXboU6zdtx2/zf8ex48dUPLxPhwyC510v7Q4yBywuM5vAFLIPItaELIc+K3Xu1jH5j24gIQPgSlQq0teGI/O7uDhj3969uHL5EhrUaYq4+DAlxObMmolSxUqgZMmSOHHqpJqCLDY2BiWKl0DDxk2xe89elCxVEq5585FI+woe7u44f+ESPhk0iI4/TQ0aU9jbWqJggXz4/rvv1awapuaW+OXnuWpYQmaBrYq8CIIxImJNyFKorhw9jFXToc9rCW+AVKJvhL2tHbp06oQlS/7E5ctXUaduXUo1UxVAs+YtEBAYiGtXr9LPzEFSEuHk5Ix8+dxQoXJFmCTGw8fnPoICA5T44sZQ+3bt0LxZMxTIlx/58+eDrY0NcuXKjaCgYLiTmAsJDEJoaBjixCotCHpBxJqQpVBTyOgRHpckgs1IEMH2RrRt2xZXL1+Dt/ddlC1TWsUUC42Kwv79+zBq5Ei83bUrLp4/h4R4zu/U6ElIxBN/f+w/cBC9evZAqVKl1LvA7xh3repg8ZagNZJy5syBUaNGoc1bbZAzRw6Ym5lrRxk/XHKI7VYwVkSsCVkerkSuX7+uHAW203Ls2DGEhITAw8MDt27dUpXNQ19fHDp0CAEBAWpbR3x8/L+84TiUx4WLF+FPFZmO8LBwnDp1Sh0v6B8WCPoW4tkNV1c3fDJ4MDp06EDrrnC2s0O9OnXwVus2GDZiGBYsWoRWrVujdu3aKFq0CCpWqoTlq1ajVcsWmPK//8HX9wEcHJ3p3QlGgcKF1HtRvnx5FC5UCG3ovNOnzyiL2wcfvI/Va9eia7cusLax1r7d+OG3XpoDgrEi3qBCliK1uUFjY2MxafJk3HF3R5lyZeF91xs1qtdAdEw0IiMj0atHD0yg/cWLFcPw4cORJ3du7Uzg6NGj2LJlC77//nstha4XH4eli5eorqRyZcqo7/Tw8MTn4z7H6lWrYEeVoKA/2BtUzQ3KE7lL6I43gt8FFr3s/cmNGN42t7RAUEAgTE1NlTUsTmugcNXA+y2trBAREQF7ytdRUZEwN7egxVxdI5byPh/L5/D1ONRHSMgTmFuYq9AfmUlgizeoYMyIZU3IFnBF0q5DB0wYPwHt27fHzdu3EJcQh7t37+KrSZNQskQJfPnFF88INYataHxuSpISEnH+wnmEBIXg75Ur0ahpUwwa/KGquJ4/VtAHScldVGJZe2MsSUzpAjyzOLO2toa5qRlyU77PlSuX6t7keGw6McYNDwtad3ZyUmkODo6wsbF5eg0WcmaUztextbVV6y65XOBEx2e256XyWPKqIBgdItaELA9bCOJiY7Dw9z/w4ccf49d5v6J61aq0wwzrqTV94vgJ1KldG3b29toZ//B8FyjD1wsLfQL/4CAsW74cX0+chK7d3mU1IYV9umCCJPptpRNASE84f0keE4wVEWtClkfX7VOzdi28060bpk37H97t3h2mJklo27q1mu1g2rffqXFtz8OWMrZA/AsSelFhQWp/hYoV0bR5cxU0VIr69EEFZBXLmpCOcDkh1lvBWBGxJmQLTExMUaVKFdUFWrdePdjb25OwMkXJkiXUgOg6tWphwvjx8PPz085Ihi1r3BX6L6hMd3J2hQXtX7z4L8ydM0cJNVP6HkH/KBEsVg9BELIp4mAgZClSczBgD83NmzYjT768qK/iSyWzZ88ehIaFqcjs7Ggw48cZeKt1a9SsVftpC5s9RNmL9LvvvlPbDMeO+nPxYtSoVk3FnZo9e7aaBsktf34M//RTNXZH0B/G6mDAee2dd97RUoTMztZt22BH7y7nM0EwNkSsCVmK1MTam3DkyBFs2rQJM2bM0FKAx48fY+vWrQgODk4WdclhqWDvYK8sd/lJtAn6Q80NSmKtc9euyGdEc4Nu37kT1apUUVY/zgJsU9V96gpVlvwvs489ETtrXoj/dQ6vv+x1s9L5nM7o+3wdHManY4cOT5+DIBgTItaELIXexdqhQ9i6ffszoTs4jAHPnciTxiuxppX+PC6uRIkScHBwSD5Q0AvKssYTuVMlakyWNbaw8thHrvg5C6QUBbpCNaUoSG2fLq1Q4cLw9vbm5GfSX0Zs6Lb5k5HzX+18HVu2bYO1lZWINcEoEbEmZCn0LdY4gO6GDRuesawJGcuTkBBlWevSrZvqbjYG9B1njcNmcEBmwXDwe85IN6hgjKRsWAiC8BzsXJCqN6iQcZiYIImegbQrhfREvEEFY0ZqIUEQjB4O3SEVqSAI2RURa4LwAtTYFpmVwOBIUFwhveH8JXlMMFYMOmYtPDwcFSpUQIsWLbQUIbPz8OFD1KhZE1O+/lpLyVg4BAd7ZBYrVkxLeTN4gvcH9++jJv1NgmHgabwSSDCzk0eBAgW0VMOS2pi1hPh4RFD+4yLVzMwUNjbJIVzYEYXDuXB3Oq8nJSWqfSkthamNWWMHBg47w9M7MXxdzt88tVNqM2sIb8ZGbW5QcTAQjBGDijX2quvbty/WrVunpQiZnX379uHK1asYMXy4lpKx6NvBgCdy37ZtG7799lstRchoVOiO5ctVJWrME7lfv34Nc+b8hNAnobCwtECTRo3QtGVLzPv5Z3w5frwSaj/OmI4WLVujZcsWaq5NHamJtTOnT+PClSv4aMAAtR0bHY1vvv8OAwcMNBrRmpUQsSYYMwbtBmWdmGp0eCFzYzj9r3c4j/Lk14LhMfYxa35+/kqQfTb2M2ow9MJaajBcvX4VO3fvhoe7Oz768EOEhoWreWhTCrW0cHByQt6cOVQZyTHALlIjaP/e/Uq8CvqH33UD2i4E4YUYVKxx4SvmfMGY4dxpaW2dvCEYjKTEzFGRclcnl2mWlhawtLKEGbVFQ4ODMX7CBLjkyoU5c+YgBwmw/4L/1us3bmD7rt1qBo2BAz/CuLFj4enlKYIineD6SJxYBGPF4A4GUvAIxozYfY0DE1OqRDNBRcoWsJ9//hlLly5FyxYtUbBoEURGRSnrmO+jR3jw8KF25Ish2ZAcxJXKxy1bNuPTwYOwcvVqo4kzJwhCxmLwblDxtBOMGmlMGB56BklcTmSCZ8EOU5MnT8bMmTPx4YcfwtbaGrnd3DBz1iwUL1oUYz///OW6MVmpsUAlIiOiYG5pBiszM9V9avySNXPC9ZEYDwRjRbpBXxEewO7v768WnsRbH3CrOywsTAlXEa9GBuVRYxxXyZVKbGystpXFYYtaJghMzNON5ciRQzkL5MyZU4115G5RZ2dn5M7lim+/+w7+Dx6qSPn/9Z7z87U0t1BepO06tMeihX/io+FDERQUBFMZOpIuSDeoYMwYvATMTOIkMDAQ30z7Rg0g5hbylClT9DLYl+cEnDhxIu7evYv9+/dnn0o4E8BFt0UGC4V4ev4nTp164bvBntSHDx3StrI+HBRXiTYjpmzZsujXr58SbTrc8rhhxozpapwai7bFy5ehWrXqL9UAcHN1ReWqVVEof340a9kC5UuXwaeDh8qMGukE29TEriYYKwZ96zOT2ZkrzqXLluH4yRP4bPRYjP5sNC6fu4Cdu3bh5q1bmD1njnLnDwkJwd69e7Fp0ybMnTsX16/fUOJry5YtmDVrFjw8PODu7o7z58+rv/348eNwp7RTVDlvpHN++OEHtX3u3DnMnj1bXd8YLTvZBROqGDnG1/PE0TPdRc+G3f2fBAerZ7x3zx5s375dxcJiYX+Snu3adevgcfs2Dh08+FRcsRV1Bx23c+dOFUPs+vXruH//PlavWqUmiD9/8SL+N+VrXLt2Dffu3UvOd8eOqbhb5y9cwHnKG/d8fKjSNlN54yIdv/ivv+Dp6amunxVRpYSRlxVsTWPBlrK3wMbWBnXr1FWx0ZjixYujUqWKzwi61ODy5raHO46dPInFfy+nPOSu4v3dun1DjYsTBCF7YVCxlpm6Qdkl/yQJtcEff4zyFcqhQtnyWL56JSpXrozJkyYhiCrn7Tt2YN6vvyqRNuXrSThz9gymTJ2sKtMZP86Ep5eXisu0b/9+bKXKmivaVcuXK68v2lBCjxd3qtzff/99PPD1xchhQ5VwEwxDIgkkk+fyKFekf5I44uf64P5DbNi8Cd9+8wM977O4evUqZv84Q4msn+fNU1aynvTMr5EgmzvvF6qAPbB86VL1zK/fvIW5v87D7t27lZDngKocT4zHJVlaWLJSxIzpP8KOKvpNmzfjOom3LVs346/FS/DAzw9/LPoTly5dJJG/Ea65HDFr9s+4nUUr8uzWRcXlIof/mE95aP4vv+JXKld++/U3zP3lF3Ts2FE7StAn0g0qGDPSDfqS8CuclJCopr1h2Crm5eWJc2fPIYdzDowcORIjR4yANwmymOhofDFuPEaNHI34uAQ1dsXOxooqYTN06tABFjxIWLMSJJiawpwHEpuZo0nTxqhTpw4qlCuH5s2bw4R+mwQ6jMfHCYYhiSrNpOcsmzxW0cP9NoYNH44BA/ujUYPGJJrOYsxnYzB06FB43PVWQrxRg4Z4t3t3lCxVCj169kSlipVwz9sbN0hQOTk7o3CB/Lh39y6ioyLwyaBBKhinvb093NzcUKhgAVryo3Wb1nDMmVNZYni8pJWFFfr374cyJUpQ/kjA48eP0LRxE7Rt3xWtWjTBLXd37S6zFuxgkFms8ELmJDP19AjZDxn88JJwN0alypWwYOFC3HtwH3dJlI0ZMwZ3SLBFxUSrytk/IAAWVlZUsVrC2jZ5qhnG3z8IDalCrVq5Khb89Rf8Hz9GZEQEgkOC4UOVdbymBczocXBX1/GTJ1W3aO3adeDo6Ji8UzAILM2fHyNkzgLOxJSE0mNlQbvtfosKeRP4PvLFPZ97cLC3VQKd42xxS93czEQJdDpIXcuBBBlbz8xJgFWpUh3WNnS81i2WSHUFVxcJSaYqj50/fxZ58+RRx3N3LF9PN/0Q35wZifygoGA1LdH9+w/h4uKSvC+Lwd3RYvUQBCG7YnCxllkGy7IH1vDhIxATG4vypUqjUtWqKFW8BAZ9/DHM6W/ggcCDBg1C82ZNYWdvA656uW5JQgLy582L33//FV9NnIR8bjlRo2YtbNy8FSWKF8eNmzdhYcYzOcRTpW2DQ4cPw+fefdwhATBo8CD4+PiocWz68jwVXhFubT8nEixJkH/Uvz969eyJQUMGI19eN3zz7Qz07dWLtgfhk0FDVL7WtdTZeKxa7JSHLEl0dezWBX8sWIAvPhuNwkULw9wyWXwpYUg5hsVgTEwUrl2/AXePO+hP38VCbfP69cnXIVjfJyWYoEb1Gjhy+BCKlCihMlytrDiHKf+O1BgSq4eQnpjS+8OLIBgjBp/I/b333lOu7JkFtqDdJIHFFo1SpUqqSpkHlF+5dAn5ChRQc/YFBgXBloQXd12FPHmCXC4u8PH2hs/9h6hepQps7Gzw6NEjxETFIIdLDnUNHqDOVrQA/wA4ODqo3yYiPBIuri5qsHrRIkUyhbBVc4NeuYIRI0ZoKRmLvucGPULimQX0hAkTtBQho2GP62XLl6NLly4kjI0jKCw7E128dBkN6tVHIttCWZG/CqYkDBJJGLA4MDdFv7598OeSZUB8IhJN+Xpascz7eZ01BC/8NbpigNO1WGxpr9PCx/PleOF0XZHP67rvSWs9te9/uk7pT78nrXVa3vT7dcf/615o/en3/Mc6ffzr++l6JrSfrba8zmOMa9WqiS4yN6hghBh8Ivc+ffpkKrEmvJgsJ9aOHFHLl19+qaUIGY0Sa8uWoUvXrkYl1tiru3mLFlrKm9G5fWds3Jo8kbhgGE4cP45yZcuik4g1wQgxuFjr27cv1q1bp6UImZ2saFk7fOwYxo8bp6UIGc1TscaWtXz5tFTDwmKNPTbZu1sf5MrpjICgEG1LMAQ6owHnM0EwNgzar8Y6kbsVBcGYSZQ8anCyfFgFU3NtRTAUWT6PCZkag4o1eTkEo4fyJzuQCIaFG3YG7AQQBEEwKAavhTKLN6iQTSGBkCgNCoMjDTshvZEGgWDMGNwbtGbNmmrcmj7gaXw4vpWVlZWWImQ0PF1SsWLFDDYgPz3GrB2k5SvxBjUYT0JC/nEwyKpj1nLlQkBAgLYlGAKeOo7h4NSCYGwYXKzxi8FT7eiDPxcvRoVyZUkA1tJShIyGg/nylFkcMNgQpIc36FFaxok3qMFgBwOehquzkYXuyCixxkW0v58fHJ2cns4xamxwHMjgwEDkzZ9fbXOQ5gC6Z9fcuWHGAaFfgrDQUBVPkCe8ZzhA+P0HD1TYorTgBjrPguNEv82bImJNMGaylDfo9JmzUKNKVTRt1kRLETIa8QYV9E12t6yxGFmzejVq16qFIsWKaanpD8+HPHPmTIznhsp/dEEHBQXh5s3rqFevgdrmBtuqVavRo0f3/xRSu3buVNOvFSpYUL2/RbW/MZh+j+mzZ+Kb/32jtlPj7OkzKs5loyaNtZTXZ4Mm1iTOmmCMZClv0KSkeMgQOEHfJMTHa2uCQWChkA1fbBYhv//xBwYPHoxj1GCIIiFz+dJljBo2At9+M00Fy+Ypz374/nt8MnAgTp86hTVr1sDX11ft27l9G65evYSvJ0/E2M8/x9/Ll2Py5CmY9r8ptD8A3t7e+OKLcbT9P3X85UuXMO+XXzCArvXXggXYtWsXlv/1F9ZSY/oEff+ngz/C/6Z9h0e+j7Q7/Ae2gkWEReH+vXsYO3osvp4yWc2dzBa2rZs2qTlz169fo6ykq1atwrQpUzB4yHBcuXiRGutr8OW4L3GX7icqOhoP79/HF5+NwZyf5+Lxw0cIDwvDIrqf/gM+wFK6n2hq5B/Yuw8DPuyPFatXISw8TLuLN4PlqIyKFIwVg5aAPGBYnw4GPLdmIkesFgQ9wVNNWZiZaVuCoTDhDoDs5GBAf+/x48eREBuLiV99BZdcroghIfPHgt/x0aCPUa1qNfwwY4YScWXLlcNkElwsdnimFJ4NhZeHJKrCw6Pg4X4X/T/ohy3btqFnj7fhljcf7rh7YMqUr9G4cUOUr1geP82eTSLMF5FRUfjhu+9wj9YLFy6CmvXro2q1qjhy7DhGjP4CTRrWxboN65U4Swl3YR45doSE2Bp06/423n+/n+rS9PC4jc3bd2HghwNx4OARXDp/HteuXUfrt9ri7bc7Y//Bg6hbvxGGDhlMjaJE3Lvng29JfLbv0g0tWrZAXEKSEmsOTk4Y9PFgHKHf5PS5czhw5DCmfv0/VKlUATGxMdpdvBlcc0jtIRgrWau5asKvmrSNBP3BIkG8QQ2PqkQNN2LDILCFrHrNmiSu8qJE8SKIiYtXlqriJUqgYuUq8Lrrrsb9FilSBK6urqhTp46aBo/hrtN4Ej9MydIlULhIYZQuXRpFi5eEna09Ikn4nTl/AXsPHCQBdAKhEREws7BAORJ+OV1c4JrHja6RoKbMi4+Ng4WlJQoWKEDXKoPE+Lh/9YhwwzuO7i02PgaVKlZE4YIFkTdPHnjduQvve55YsWo13WsE/P2DUID2FS1WFMWLFUNsXCys6Dts7O1gZm5K95yAB/fv0zUqoEyZMnB0slXWtuDgYISSILS2tYW/X4C6F+4SL1WyNBzsHbS7EISsi0HFGneDcqHyPJyuW3SkXGee32aSTExhYvrvbtXUjhWEl0W6QQ1PtgvdQX9rkcJFsGnTJtXVeerMOdha2qiu0Fu3bmHH9h1o07oNbK2tcev2beWFvXjJEiQmJKr1G9eu4eYdd3UpS+234zF26hekf1iEtWjSBL3feQfv9+yNatWrqzRdWWlJDV8+ls+ztbND6JMQ+D64j5PHT8PWwVF53aeE7Ww27PxAp7NTzk26xxs3b5KorISKZcph7IiRaNqgPoqVLARTvjZdN8kkETwNKt8Q94hwXcD3UKR4cRw+eBBHjx2D/6MQPHj4UN07i7w77jeQJ48rzl68iMcPHuDEiVPwCwzki7wxMpG7YMwYXTcoj2lYu3YdFi5ciMWLF2PPnj1q0Omhg4fw6NFjVZiw6f/w4cP/bt1RnZqU9Oz1eJDsGrpeZGSElgJcvnQRd+/e1bYEIW1etxuUxxv5UiVzx9MDUZFRykri4+MDT09P5VjzKnA+f0jX4vcgu8KC5QJV0Pw+Zxfq1a+HunXq4K+//kKzZk2RL38+fD1pIrZu3QZzMxP06dUXLVq1VoP5161fj/7vv4+e7/XCmdPHcffefbzTOdl7tmbDBnS8OWrXrq3KW57/skCBApg4aZJyntm1Zxfeat1CpZUoUUKVy+UrVyZxVADNSdDxb9+tWzfl5BH0JBBt27TBvXv34OXlpZYHJJpyOTujYf36GDJ4MK7duIErly6pcziMT9e338HcX36Btb09SpUqh8qVqyivVkd7J9Sgv69R44ZKcDo6Oior4dTJk+m98URkRDje6d4VFSpUQGxcPI6dPIkvv5xEDXJzDP3kE/z6xx/IWyAvapDQ1AeJVLfwIgjGiMG9Qd97771nPPe4VcgeovyiM1u3bcMXn32OlWtXq8Lokb8fFv6xAMOGDUOrVq1Ui0vHjFk/onrlamhKBZsONp3/8ss8DB78CRUQ1DKlwv7XX39DmTKllYs2F0yC/sg23qD02nC3D+cfZbGgT904HnNzc3h53sW5s6dRvkIlqvTyY/uu7SiYryBccuZEfqoU7ezslAjj8/h4tiqk3Obrc5cXv5xcwXKFyF1dbNHg6a/4O01pYasfH8OvsUrLggPxuQE3e/ZsJNFvxB6T3en5sohRv5OByEhvUGMjlJ6HHwm4mDi2kCUo4VWsaFFufWtHZE7EG1QwZoyyG5QrHBZsgwYNUi3DS1cuIS4qDms2bMDo4cMw9rPP0IZadymFGpNsVXv2T2ILx5JlS3Hzxk0lAMtRK23x4r9S/V5BSI3UukGvXrumLAadu3YhgboXF85dQNeuXdGu3VvK6ptIEio6JhaHjx9SDZDZM2Zj2/btOET72FKxYOFCtGrTCp8OHaqsFP+bNg1t27bFJ598oirtcxcv4p133kHbdu1w/vx5XLhwQXnsTf9xBt6i40aP/VyJudlz5mDggI/QpEkT7Ny1S4m8rAiLGfZS/PyLL7Bixd8YNnwovLy9tb1CRsLx3kqUKoVy5UqrMW5sPcvsQo2RblDBmDGoWGMrQmqWgBBquQ39dKgSbP7+/ujUsSMCAv2wbdMmmFnYIHfu3Orc5zFLTICJ6b8rVrZY7Nu/HxUqVlTm+Xr16ml7BOHFcDeo5XONAva0W7Z8Oeb/Og8Lfv8D9nb28LrnjREjR2LQJ0Owe89eNS4niRY/Xz84OTpg5MhRGNh/AOXnx7h85SqioyKxZ9ceDBn0Cfwoj9vb2ijrEQcR9Scxt3LFMnz3/Q/4ff58uLu7IywsFGfPnEFUWBi2bduGMjyu5+hRFXCUrcarVq7E8WNHs2Y3Dv1Nt27exPgJ4zF1ylT4eHlg/bqNGNivHz7++GMM+vhD9fnJRx+qRZf2yccf4eOPUqxTetfOHZT1V3hzspqukW5QwZgxqFhLC3s7O/T9oC9VcCPV2LXCRYrAwcke4yd+he7d38XXU6eqMTzPk5j077FFqjyhF/BJULDyIMqZMyeKFi6s9gnCf8HeoAnP1Ups0YqNiYFTzhyqO9PFNRe8vbwQGx2jxg/pukNNTUyV9diEB1AjQa3zKxdOwsvOzlFZhl1d3VS3Zmx8AgIDApQlmG2+gYHBcHHJSYsLChYqRHkbCA4JRt78BWBpZQX7HM4IDw2FA31/DroPewcH1R2aJaHfv1TZMtSA+xTVa9VE7Tr18f1336qxXPNJzM6b/wd+48/ffsevv+nW/9C2f1P7f6X1336bj3qNm2WrcW+CIGQNDCrW0uoGZY+gWrVqKQsYD3rlCtPG0goli5fApK8msF86Vq9cjQSq4FJiYh6PpMTnukZp4ZTCJYopi8QvVJDzODhBeFmed2SxsbFB2TJlMWn8eMz4cRYuX7yAk6dO4dSFc7h9xwPut28jMoJEF+XTJFNTJb5MSLgltxwSUbJkSVy9eplExHz8NHcWfHzuYdfu3bh89Sru37+P69evo27duvjm228xZsQIFcCUqVq1GnZs340fp0/HkSOHUb9+fXX9p2Rho8Dl8xcwZer/kN/NDYOHDEaf995TIpbhn5UXU1OSxdrPzPqaNpPTtG1eLLLgmD5BP6h8krwqCEaHQUsu7sp8ftwZzwvH3Z+2Vv/Mgcfxfzp06YqCBQqqODtfT5kCBxdHxMfHakdoxJnTRZ8Vf6YW5ujbqxeatWihxrkdPbgPb7Vrj8JiXRNeAtUNyrV8CjjfDhg4AO3atkOTJo3QvmNn/LloEapXqIBhQ4Zg0Ccfq+5MFlwd27VTjgG1atRQnx3pWI53NWHCBOSwc8aA/h+iW7eumDNzJsqXKYPZs2ap+FP8DvC5g4cORXvKrzygnj31liz9E8Xoc9znXyirG3vg8bAAFpAdO3ZU95YVKV2unIqu375DBzV+7fly42WJV9ZNQfg3nDMkdwjGisGbmcldQ//AFdDAgQNhY2enpZBYo4L57a5dVWBHpmzZshjwfn9YWduo7aeYKhtG8rqG1213RMXFYfmSJfDz80OpEmURHxcLHx/vf1lMBOF5ODclpGKN4bGWTZs3R9MmTWBlaQlbakR06NQZefPlQ6vWrZEnTx5lQatWrZoKSVCseHH1WalSJdUVz/m813s9UJzSmUqVK6vrFSxYUMW8srKyQpNmzVClalXl9cjXsre3V/Msdu3S5Wljg4Ufp/HxHJohq4o1G/r7XnZC8BeRNX8dQR9w3pD8IRgrBhVraXWDvjZmJPySnn3dypUvj/4k/gb0H6BEYP+B/dVno0aNXrt1LmQjKI+KqDc8qkmnB6uYePsJgpAZMbpu0Dcijq71XDeogxZo8fklVy7XLGuFEPRHat2gQsbD76o+3lfpBhXSgo0Hz/f0CIKxYPBuUP1a1uhaz1nWBOFN4NyUWjeokLEkJeqnIhVbupAW+moQCEJ6YPBuUL22ZGQid0HfUP6UblAjQE+vtVTGgiBkRgw63VR4eDi6d++u5pzTCTdeePA2x7LigdVcUXJXqc4Cx/t0aRzCgxJUAcyqc/bcuahRtaoKaSDBDTMefiaHDiVH7OcYeYZA39NNHT5yBMcPH8YX48drKUJGw9NNcRnRpUsX5MuXT0t9PWbMmoUyJUuiffv2WsrrkZ2nm8qqbNiwQX1yPhMEY8PgYq1mzZp49913leBiQaYzRevWGb7Fl1k/fvIkClBhXqhQISXqOI0XXk8p9lL7nrTWmRd9Z8r1578zrXVj+H7mZe6F4fNeZp2vx0KtTJkyGG8gcaP3uUFJrPFMAf+aG1TIMFisLSex1rlrVzX93Jswa/ZslCxRQsSa8C82anOD8pzRgmBsGFys8UTuuhbNm8LBQquT+ON5EgXDkBUncj9Iy1cTJmgpQkbz5EmIZlkjsfaGlrVZc+agZPHiWV6sBQUF4erVqyqcC4d1Ef4bEWuCMWNwb1C2xuiLRD3EYRKElIg3qDFAvz9PTaAHEjSrcmbgSWioig158+ZN3PX2VtZuboxcv3YdPj4+6pjggGA8uP9ATfbPAo33PX78WB1319MT5yjd99EjNaWZN12DBSHPtxwWFoYzp86oeWmFZNhuYUDbhSC8EINa1iIiItCnTx+9Wdamz5yJGlWqoGmzZlqKkNFkOcuadIManKdj1vTUDRpKIqh69epayqvDjcz9lM854HF6WtZOHD+Ov/5cgspVK8HLywtDhgzBmtWrSVAkIjjkiQqezM2I8xfOIWeOXLh05bIas3uE8uvU//0PK1csg2vuvLh71wv9+/XDgoULkcPJGVWrV8PZs2eQO3ceBAUG4u133lFDF7I7YlkTjBmDWtb0DRdiag5GQdAX1JbRjfETMj8tWrRQ03bxhPtvsvCE++kOlWXlKpXFxx9/jFKlSiqLmJeXN0aMHIXBgwZh45ZNsLS0RIvmLTFs2FBULFMWAz/6CI4OdngSGoYKFaugf/9+aNmqNe7c8YKFpTn6fvC+mgnD94EvEkl0Pnz8GLdu39a+UBAEY8Xgykaf3aBmZmzGli4rQX9wN6iFti4YCjb+06KHToCKFSqgd69e6NO792svfD7P+5r+JMHJwQkm9J+ZqTnMKC9GRkcgLj4RQSHBcHXOqcbNsWDj5oStgz3MqTyNi0+AaWICwsKeJHedhofDzsEGVpbWcHBwUGPYylWsgAa1a+M9+luqVa2a/HXZHOkGFYwZg4o1fjH0GsNKTeT+7+vFxcWpLtf/go/jRRB0sPRPLSguV4LcPcdjgV4E5++XyXvCi9DfmLXMhJ2dHZydHNWf7+TshBwuLmjRshmmTf0ay5cvw7BPRyrxxfPSWpCQc8qZg441QaGCRWFpZ4vg4BD89NNPOH/1CipXqqIm/OfGccWKFZX83bF7N3bv3psxVsJMAHdv67zbBcHYMGgJqO+XI8mc2pepWNY2b9qES5cu/Wd3FntPXb58WdsSBCKNbtDr166psZZR0dFaSur4BQSoilV4M0zY4pHNKlKepL95i5ZKYLVq1QoFChRArx59MHTYMIwbNx7FShZBjRo1UbZsOTXJfaf27ZWVbfjIoShbsrTqPv3ggw8wZtQouJDQ4/F13AXKy2Da17NHD3w6dAhKlSqlfaMgCMaKwZur+uwGTUriaz1boHt5emIWtS6vXb+uBhavWLkSK2lhbyi2ehw4cACLFi1S40H8/R7T9mHMnfeL8qRiy9+ZM2fw/fff4+SpUypQr5C9SK0blPPO0uXLVQDgiMhINaB75uzZytuOLW3ut29j9pzZOHn8GOW5MJw5eQp/r1qFvft2q/PZw4/z3IIFC5R1TvhvVOdUNuui4u5Ktpwx/GlhYaHKy7x58yKHs7NKt7W1gY2NtRKyjo5OqvGb2zU3rKytlCjjUCf8yeTIkUMFGmcs6do8RzKLOLEmJSPdoIIxY1Cxpu9uUDO6lonps9dzcXWlwisXSpcqiQV//AFSXKqrc9OmTdi5c6cSa9zdsPzvvxEeEQHfB94oUaw4tVzHwcPDHYcOH1KBe7dv3w53d3ftqkJ2gaux57tBra2tkZ8qwRo1aigL24H9B1C7WjXM+/VXHD9xQnklly9XHkdPn4a/70NcpoaCo509Fv6xBA/ue+PQwUNUaVogOjYW8+bN064qpA1XoFKJCumLvnt6BEGfGFSs8YuhT8taosm/p2m2t7VFgfwFkYtam56engh+8gQPH/rCx+cedu7apaa76tatGzp16EAtVFs0atYcLVq2hDO1OHmgbsliJRAZFalaubFUuQrZDGpQPN8NyhYOt7x5UbZsWdy9exd+fo9xhQQZd9VtI1HfuEEjtKQ81K9PHzjlckG1ypXRrn07lC1fGv6BIcib1w1OTo5wcc6hrL3/1T0vUAUqXt6CIGRjDF4C6rMlw1a1pMTnBBuJwSSqDG0sLUmwuaJKlSqoW6c2alSriqKFC+PWjRu46+WFffv30/mmMDczU9YUtvpdu3IFIU+CUK5cecTHxCRfT8hWcDdoaqGWOY+Y0j5XylPFS5RQ89Fy3K3qtFy7cR2RYWHYs2c/QgKCYG5lrc7hdklcTByOHjuKQgULgm3AlDvVPuEF0LvIQlisHkJ6It2ggjFjULGm727QRPXnPGulMCWh5pLbFfbOTioA77TvvsP/pv0PNg72+Ojjj7F73z6MGvsZGtSrBztbK9ja2KjzcubIgQqVKmPfoQOYOG4yXOka7nc81D4h+8DyIDEV6y974JlbWKBBg4Z48iQU71PeevDwId5q2xZFChdCizZtEBYWgtz53OCaw0Wd4+yUA7YOdsiXvyC++HIcnCgPRlP+v3fvgdovpAGJNNURKhWpkI5klm5QHjvNvTyyZO6Fh2PpPl9mPLzBZzDguUH1FW3+xx9nqphBTZs11VKEjCYrzg166MgRTDDQxPSCbgaDpXqZG1RfGPvcoMKrs0GbwaCLEc9gwGFWNm/erN4JHo6hq75ZZPI6f/KwCh5epNtOeYxuX8pjdPvk/Iw9n5+fbpuf66BBg9RxaZGlxNqMmT+iRrUqaNKkuZYiZDRZTawdJqF2jATbOBFrBkOJteXLVSUqYk1ILzKDWAsMCsKcn35C08aNVdy8lKQUByk/U/Iq++T8jDt/zJgx2LFjh7aVOgYVa+Hh4aprUjcn25vy4/ezUb1WJTRpKnODGgqZG1TQN09CQrCc5wbt1k2FrTAGRKxlPThCANOpUyf1aYywWFu4cKGaScNYGi7Cm9OxY0dlMX0RBh2zxsqSTYD6IskynhSrQf8kIatBbRkDtmcEhluiWmtUENKLRMpfvAiCMZKllE1S0r9DdwjCm8AigZ1UBEEQBMFQGFSscUuZB9jpC3MVFFcqVkF/8KiCJDNpBBicFOM7BCE94FA8vAiCMZKlukETTLlSFTO2oEeoQSHdbwaGfn+JsyakN9INKhgzWaob1ASJSErMUn+SYGCkG9QIoGdAkjnbiWb+e69dvZqu09w9fvQIN2/cwtXr1xEVHa2lCoL+4DmTf/nlF8yZMwdz587FsWNHVWwx4dXIUt2gSaaq0yp5QxD0gHSDGgvZz6rm9/gxFi5aBCcnJy0lGS4zF/y+AO53bmsprwcH4ty77wACAvwQTN8Vk83FGucwsd3qn1u3buHvFStw38cHN2/fwZixn+MKNUIYDoqfMiDs8wFieX9KYceagfen1nDj47KyCDR4Nyi7v+sNpfvEsiboESoUsptFRzA8SYlJOHzoMI4ePYojtGzfvh0jhg3Ft999hzNnzmLXzu2Y8cMs3Lp5G9/98C2GfjIUW7ZtQ4Cfv7JijBo1Gj/PnYsg/yD8SYJvxvQfcP3adfw8Zw6GfPop5v/2O0JCQvD33ytw5uxZeN2/j4jISBW+4lPaP3XK17jr6aXdTfaAu0ADAgPx4MEDvS7xepylJ7NSulxZDB85EmNGDkOZkiVVmJpDhw6h7/vvo1fv3ti9axf2HziAfv37oWvXrlizbh3OnzuHvh98oGKxLl68GKdPn0bz5s3Vdhc6hq9xgM6Z+r//YcfOHejdqxfeffdd9a5kxTLb4MpGnz8qd5bw/KCCoDeoQWEi3aAGR1k8stGYNRNTE9SoVRtt2rRSc87euXMH476cgIYNGuAciava9RtgyJCPcenyRdSqURPTvp8G99s3sZoqOUtbG4wf/yXCQkMRFRsFP/8AVKhUCTldcsHe0RHd33kHR48dgYODA9595120btUK56hiDH8Smhw7rlcf5HBxwcUrl7NVQyUpMQFHjxzB8hUr9LZ8NnYsHvv7a9+QPeE8dO7sOUyZMgXjxn0Jdw8PuFJe/OabacjtmhuFCxfByFHDcZCElym96W+99RYeUuNhLjU6bK2s1HzLq1atUt2pfiTQ3u/7PhJi47Bn316cPHkKhQsWxLWr11GhYkVlhV6wcKFee+yMhSzVDYoE6a4S9I+JdIMaGDVijQsMbTt7YGZmAgsLK8THxcHGxobEVk4ULFAACYnxMDMxhYWVjQoCnTtPXjg6OSKXsyvuU4VWpUx5ODs7wy23qxJ9jo4OKFe2HAIDHuLBA181UMTS0lIV/hZWFjCzMFfrTyIicJ8qybCwUDrHib4je3UKmpmZo0WLFhg4YIDeFi474rN79zLlo8qVK2PYsGEkykYif/781IDwowaIJ+VHHzx+5ItcrnlQp1YttW/NmjU4deoU7vr4ICg4GNdv3lT5n7s/ixcujEZNGqF7z+74i0QZCzgWaWfPn8ONa9eRQMfw+yJiTc/ovRvUMo5aR1KxCnqEBEJ2si4YJyQaSJxkN7h8NDc3Rw4SXtxlef78eezbvx+FixSDra0tggMCSKQ54ezZc7hy+RLu+95Hw8aNsHbTBpyjY0+cOUuVVwKsrKzUte56P4SpuanywI+ICEcgXTM5XIUZLMzNEEViLToqCgULFYSnpyfCwsOzVd7n34itjTlz5tTbYmVtjeze18O/q5ODPYoVLYpy5coht6sr5atEVKtWFU2bNEWDBg3pGHOcPHkSxUuUwFcTJyIuNhaFSbjVrFkT3bp2hVMOZ9jb2VHDwoJEiylat24DD887iEuIRZ7ceXD96lV06tIZLq65EEV5mBsxWQ2Dl4D6VMCJieb0b9qFy7179+Dl9WbjMHg6pf/KCEn0N3HGSzlQUsikUEFDGUvb+IfLV66o6dKEDIJFAz+LbESOHDmUpcclVy506NABly9dUpa11q1aokXrFmrMTuOGDeHikpOE2Sn07tVbWTCKFCuKixcuwC13bhJ7Fqhdu7bqHmrevBlKFCuGJ6Gh+GTQYFUeVqUKM1cuF7Tv3BmVKlZAlapVcfLUKXTt1AnFixfPkhaKjCb7NTOepSiJtFat34K5paVqOLR56y04O+fAhK8mUgPiPu7e9cIvP8/B2+++qxoJG9dvwKDBgzGBRFt0bAx2796DvpS32YL29ttvw4waFjw92/+mTsMH732AvHndVBfr2XNnUapESZXfAwMDtW/PQlDLyWCEhYUlderUSdt6c378YXrS/v37tK1/INGUFBERkbR189aklStXkpZKTIqOjlZpCQkJJPITkyIjI5Oo8lXrTFxMjLo/PpeXSNoXS2nXr11LiomNTSLBlhQaGpoUS+s6+HxS9UmJdE2PO3fUtXk/H8fHM6HhtE7fzcfyfWQ19u7dmzRr1ixtK+Ph59qlSxdt6805fPhw0rRp07Stf5jxww9JVLCoPBIXF6fS+FnrtvnZcl7gPMb5h58/79PlA+HlCQkJSZo7d27SgwcPtBTDs3jx4qRly5ZpW2+Oi4uLtvZmBPj7JY0eMyapS9euSfPn/6bKNeHl2Lhxo1r0Sb/+A5LuenlpW29OQGBg0vdU9hjTu/BfcFnIZaAOrhd5m6s/Lg91ZWLKMlNXN8ZSWRoVFUl1amKq11H1N8H7YmKi6bh4VQ7r0jML1BjT1tImS3WDJpqZ0jWftazRw8XsX35BL1LmC/5cpFx7r1y8pFqWfXr2xIaNG3Hjxg0MGDAAn3zyifK8evz4MQYNGaK8VBYuWIjz1KJl1b9u00b8OHMmThw/ji+//BIfffwxJkyYAKqEsWT5cvTu3YeuMxC3bt/GksWL4evrS+p/Kvr27Ytx48fjrtddOuY9fDFuHF2vu+rWEIwc7gZNxaITHhmJ33/7Db369MH8+fNBlSKmTJuC9/q8h+EjRyirxcyZsyiPfARvHx9qRX5F+/pg2PDh6ljhVeB3Ovt0x70JLrlcMWP6dKxftw4fffSxGusjGBBTE+kGfa6e52543uZilcdO8sLwcdbW1qqLn9cZC3NzSrNRYy9Tu44uqD7vs7S0ouPMYMFdpXoMtm8sZKluUBO61PP6k12n71y9ipV/r0CvHt1hbm6KI8ePoWH9+vicBNf+/fvg7X0PtevUQr8P+sHO3h6bN29C69atsWrlSpQpUxpmSESNmjXRuWMn+AcGIjo6BgULFsBff/5JnwVx4MBBHNy7V33Hl1+OUxknMCAAl69cRsVKlbB+/Xo0atAAHu7uSEyIw/BhwzB29ChcOHdOu0vBmKFmmrb2D6Zm5ujYubMSbAyHP7C1tMWatWtQo1o17NuzjypKa0yaOBE5nXKiVq1aGPPZZ4iMiEBAYJA6R3hZqODOhmPWhCxAYlK27wYV9INB81GSngevJpnR9Z67ZnxsLBIsSL1bWcHKzk4JutDwKDx89BC3rl9FhQqVkDe/G6pVr4XomBh4eXri0WM/uLq6KhVvTS1TU5gjn5sbrOkaifH08pkkwcHeUe23s7FFdFyMah3wsVb0acKqngRbdFQ07KiVwPBAYZhRy8HSDjl44CkdFytj2owfeo6ptdLMSPTnz5dPayGaICQ4GDb2djCnbRsrG8RTe9o1Vy7kcM4BvwA/BAX6w9HREXEs/KgAF14BeqdluilBELIzBhVrXPjq01yZbFV7tls1f4GiiAsNxqjRo7ByyV8woUq2do0q8H/kD0/ve7h/zwePHvpi8R+/49ChgwgODESPd9/F15P+h7Fjx+D48eMwszSHqc78am6i6trtu3bi6ylf4/TZM2jZtBlMSYyxazIHrYwOD1d/V5kyZbB27RpMnToVe3bvRv78Beg6yZeRcBCZhDS6Qc0oE7DkUvmX9jds2BDHDuzHuAnjsXrdKrRo2jw5P9K+uJho7Ny5GyuWr0B4aCBuXLvxr0aF8ALoN+RnoO/GnSCkO1Q+SORPQR9Qg9VwJWBERAT69OmDDRs2aClvxswZM1CtRlU0adJcS0mGXXkvXLwI11xusLa0QL4Cbrhx/TruP3iIBg0aqD7yq1evIjg4GLVq14aNtbUac8RjjapWroyExETlXcJeLRxFOS42Drdu30TBgoVQp04d5e4dHxODU2fPIk+ePOo4vl6FChUQFBSEM2fOoHKVysifN5/qLqtatSpCQ0PV97HHVVaCvWWvXLmCESNGaCkZSww9h549e6quZ31w5PBhHKKFxyam5MbNmyhSuLCyrHFsqsK0zuEVLtNzr1yhoop75fv4kXJTNzczV9Hj7RzsYWdrh7CIJyherGRyoFfhP3nyJATLli1Dly5dkS9fPi3VsCxZskQ9+969e2spbwZ7t7F3p2A4ePYGplOnTupTH/QfMBATv5qAIkWKaClvRiDVJzNnzkTtWrXg4uLytAEjDZnMCRuseGFv1l27dmmpqZOlxNqP02ehes1K/xJr+obHnrHQa9SooV4tg1mBLCfWjhxRCzuUCIbhyZMnWLZ8Obp07ixiTUg3MotY++6771CqZEkV2sWYxBrX5zw9Go/3Fl4OnVj79bffsG/vXi01dQwu1thTct26dVrKm/HjrOmoVrkmmjZroqWkD+wUwT8bF9bCs2RFy9rhY8cwftw4LUXIaJ6EhGA5W9a6dUPevHm1VMMiYi3rkS5i7cMPMX78eBTXo1hbsGAB+lC+M5aGiw7ufeJ5aSdOnKilCC9Lx44dsWXLFm0rdQxqFmLBo09v0MQkFk/pH8SRrWki1LIPiTIRs2Hh8Wq8GIH1QBBeicQkcKh2faKzxhjjYuz3Z8zLf2FQsfYyN/gqmPLIfz1fU8jmUH4yl65uQRBeE2liCPrA4LWQXr1BVeC89LesCdkItv5KA8DwyDMQMiNUJ2WXGkk3PEhIHwzeDZqgxy4mk3juKpFCXdAv0g1qYKickDhrQqYkMem5YFJZFza8yDuafhi8G1SvljULasOIWBP0CeVR6QY1MPQMuL0urXYh00F5N6MsaxyiysfHB3fv3lXhhKKjo5W1i6c9jI2LU8ewE8CjR4+UkYTfJ3Zq4eN1C2/zNWJjY9XxHHrq4cOHappGvhY7cL3qe8j3FUDfm6idx9/NMwvxVJAvgvdzCK3nDToc9orvK7th8FpIn0o8OSiuiDVBj1ABI92gQnaD40QePHjwPytmrnQ9PDy0rZfDjwTBokULta0sDhUdGdXEuHjxogqF1albN3Ro1w5jP/9cibMvvvgCvvScWIz169cPe/bsUc+VBdm8efPQvn17dOzUSS1Lli1Dp65dlUBj0da9e3esXLkS8SSYLl66hDFjxijhlhppdYNev34dC37/AzEkHpng4BAM+vTT/xRc7PnKc3Sn9JLm63M8skWLFuHihQvYvGXLf/bO8f3+TX/Dzdu3tZTMiUHFGv/w+uwGNaNrmZhKl5WgX/SZRwXhZeF8d+fOHezevRteXl6Ii4/DrVs3sX//XlWR8v4b166pQN1coZ09exZ3SDix5eHkyZM4c+oUoqOiEBsXi8tXrmDvnr3K4pJahRpDx52k40/RtaIiI1XFGh4ersIrnTl9Rl2P19nawQHF9+/djwf37qu5lVcsX65EwbGjR+Hh6UnfH6aOP0FLeFiYChZ9gSrW/fv348rly3CwtUOrFi3V/d+ka+2jdBYHLB4uk+DYu3ePEoGp3WemIyHjukHZ6pUnb14cpvyycvVqeFDeefjwPnx9H6rn379/fxWQ/Z133lHTH/Lvy8909OjR2LltG3bQ0pFEng+Jutu3b2Ds2LFqFp4PP/wQq1atwnskBDk/ptUbllY3KMeDK1+xgrKw7dyxnQTWZnjcuPmvcvUe5c2Tp06q+/L29satG9fQpFFyGC4WmAsXLsQ1yu8cs640zw60bp3Ke2x920v7Fy9ejMuUv/h32LVzJ9atXauEpru7B/7++2+spb+B5+zeu3cvlixdqt4pfUajSG8MKtb03Q2aaCLhNAQ9Q3nUQrpBDY6qArKZhfM6VUxLqAJiIbSDKp9jx49j0YJF8H3kh19+ngd/f3+spgqJZ0XhuWfnz59PIu4efpk3Twk3Pn7T5s0kkK5g29at8Avwx6zZM/HwwUPtG5JJokpz/oIFSmCdJbG2mCoyrhl4QrVFf/6J4yeO4dy5c9iwcSM8SYytWbsGvo998fOv8xAZGYVoElmRJPA4WOt9qujn/vwTzp0/j3Nnz+DPxX8piw5bQvjv+JXu7fzF8/hryRLcvHULK6gy9aVKevr33+MIib29JNwCAgOwYOEiPCSRkenJSAcD0rb+j/2wZccO7KT8wm+LlZUNHtx/hHFfjoetna2yjFlbWycfT7DV6fixY1hOYmYLibUIEugJJJamTv1GiXWeKtHe3h6tWrbEhwM/pD/H5JUbryzE9+zZjdmzZuGnuXNx9swZBEeE/kuMB1J+/uabb/CEGhsr/16BXbv2Yt78X3HsyFHMpfO8vH3w808/qVie+0icPXr8WDVMduzahRk/zlBC7fPPP1fvxefjxuHg4cP4ld6J33//DRF0nK/vY6wmEcvvCVuOB5IIZVGYWchStRBb1ZISRbAJeoQKFOkGNTQsG6hgf65wz8pwRcZTlzWjSrJH9x60dMeF8xfQoVMn9O7VC3kKuOEeCbOCBQvi7W7dYGJmjho1a6JK1SrYsWNb8tglqog4OLT7bXc0qFcPvXr2RPmyZf/VHcTjmVauWgVvElVetKyjdVYY8bHxSqCxAPS8c0cJgGtXL6NchYoqGPCngwejeLHiqF6tBswtrFClShVUp3s4fOQwPho4EO/16YurV64q0VCpSmV07dYV5atWoko5ELExsarSrle3Lvr07Yuhw4bh8aNHaNy4Mf2tPVG0SBF4ed5JvsHMDP3xGZVr+R2JjYlR3dLhYeH4dMgQ5Ocg0iZJaNakMe55P8AxEmbPQGWbta0tnHPkhKO9A8woH3HeK0HPlUU4C2g2qnAA3mJFCqu/Jy3S6gblU6IiIrB+0yaMHjUa4ydMQIFcuZN3pqBEyZJwoHvYvX0X5TdP1K1XF9ZmZnBwdFT7L567gJw5c8LUzBTWNjZo3aoVKlaqhGKFi6j7vnnzprLO8X1w/hkxfDi60PvClrYixYqhY4dOOH78KNzp97l9yx136Hg+J7NgULHGD1afZshE+nOyj6O0kFEk/MdAWCG9oeLeJHtZN7mCdKBK1N/3EULDQtVMGjxA28fHS1k/woKC4OKaC+ZUmXGXljnVkTY2trAwt0SB/AXxwQcfYCAJpq/Gj4e9gz1CwsJUpXXH4x7y5HbVviUZU7pGCarcer/3HgYMGIBvZ8xUAsPM3AzFSAz26tNHWSHGjf0Mzs65EBYYTPcQgT///BOR0RFUjlPJS4LAytoa1paWSKDnFRQcDH8/fzVvsompKWxIzJnSf1bUmE6k401MTdSsDX70d7BVbsasWeo7w7T79A8MQE6XZ+8zU5Kg/6C4LyJ/kYJqBoHxE8bjrbfeIhFvhgKFCmDo8GEYNmywmk2BhTx3SXKXthk9m2Sr2QD06t0LufPkVj0JX074Ah/0IUFOgs/d3V1dO5Ed+EzTNoak1Q2aRO+uiZkFbCl/+Pn5ITTkCaIS4lWg65TY29mhVZvWGPXZKMTSvZUsVVpNgs/d6O/17okvvvwcp86epsZHsojn94G765ctX6YaCp+NGYO8bm5KU1hYWMCK8mJydy/fgwliEU/Czxl9KT9//91UtO3Y0WhmRHkZDFoC6rsblMoLeuFf7XosGJXpNyFBmekTEpM/2bzKS9IrikkuaHgcgGBccOHE43XY7M1LyJMnCKPny+kMt0gf+z3+V+OBX3ILKvCeh+erTNkdwPmIB8ym1rJMCReQXCE9D+c1zjtCGvDvmkpFkJVp0KgRvLy9VLcN57W+JKbueHhi7i+/oHjJUsifL59auGKyIGGXN68bCTM7fDr4U2zavJWWTQimfFW9enXcvnULs2bPRukyRVC2bFntG5Lh80d/9hn27t6NDevXIyjAD05OTnDNnRtDhg9X6Rs3boQvvR9Vq1XBk8gwzPl5Fl2nHEqWKE35+YkSYEWLFoGFlRWmkCD4/Y8/sHr9GiUa+Vp53PLQNyUhb6GCyOXqSscWRcOGDfH44UP8+OOPaN60KerWqYML5y7gp59+Qn6qdEuVKJF8g5kZEqUZNeLV0dEBxQsXZROXlgJYkmBhK5mlhSX69OmLho0bY/3atcpCe/DAARQqVEiNKdPB4qZCxYqUJ2zx7rvd0blzFzUdJIuiHLa5UYyun3adnXrZZ29ni9KlSigxtWb1Onz3w3fIkysvYqMiVF3LC4+5fELl4lutWisLW5u32iCnsxMqlSuHHDlzYMfuPXTf6+k6ZVCtamXkL1AABWkJpjKXrWhsIeMhASYkDLnLni2+5pSvXV3dUKRIIVQoXx7bN2/BW23b4PzFS/hh+kz1t+prztaMwOBzg75HBZC+5nHkl7569SqvNJE7e7ns27cXNWrUxLkzp1GaCrI1q9eiS9cuStFXUhnXQjv6v7l/7x61hMNQjjJZdsRY5wY9fvw4tu/YgZxawVSnbl3lIZXHLS9q1qyBX3+dRy9/ESqcOsCMXmIdac0NeurUKTX4lisihgdH//bbbxhCLdEXTUXGIo/H/XBLMGUr9PSZM8hDleO1a9dRv359um6y6T8t+Pu4UuPfmQudrIyayJ3nBu3aFfmy2dyg3Ijg8oTzGZdDusago4ODyqe8zRUyF+NxlCe4e4gJDSUBlZAIJ2dnlc/YehUVFQ17ezs1SPvx48fqOC78K1SogEIFC6pGBDcm+Lu40cIC0YrE19N0R0dlhYuMjkR0JFXezjno/CTV0OBxTbEx0bC1s1fX5TTO3vb2DupanF9t6N4iqXHE1hweK8XncGOJQ0w4a/cZERFO2zFqO6On9EuXuUEHfoivJoxXgkIfsIckD7RPbW5Q/m15Hl22Lqkfn+B8wc4auals4XwS8iREWTx/+uUnfDZyDOzoGfAz5mfB8HO+R43Z/JQf+PiwUHYQCYYbfVcMPZcnlK/4HUxZdukIDAzA3Lm/YNKkSVpKMjx28tLFi6rsvevjjfi4eFhQ3vWh+/JM4UnM70AjEpP8N7i4uMCa7us+HeNGf88DEvVBJOq429/G2lpZ3jg/8vhLzisPHj6ALTVYGP7kPMfX43eF3wsWbgH+AShIjQUeQ8fvVPFixVCvXj2ULl061b8nI+G5QTdv3qxtpY5BLWuckZ63ZLwR8am/3N4koKb+73/YSBU4D568fOkSJlKGYk+RWCooAv0C1AM1o8y5Z89ebNqyGfe9vJRFhQusrdu3Y8rUqbhB6p0z8+rVq9X5N65eVffPA3PZc4a9TPgl4UKVCyNukXz99deqcmbPkyNHjmD69OmqoOcXS8g4wiPCULVqFQwfPlwtdWrXhp+/P/yC/FV3DjdZOj4n1HSk1g3KBRm/4OyJxAOr2dONuxdStn24ElqyZKmqUHnQK0/Uy/u54PD388OECROUlxJXWFx43fe5TwJsDtauX4fg4GA1qJYH3HLXAQ+ePXTokBo4u4cE8X5qFbNY27YteXzS/yh/r1ixIotadfk3pXIixW+bXbCkCosrHV2DkStWHrfDeYjzHw8WZ0sHCxudUGMcHZ3gTJWjrhLiCszFJac6nxsKrVq1UguP+2ELBcNdlmxl4etxA4CPfSZdE0+21rbqHrgrk4/lypKP1wk1xpEqUgcHR/X9fG8s1Bhb+kwpDjidr627Tzu6BlfUGS3U0o0MDIrLv63q1tN+S4Z/1wL0fLm8YpydnFGyZEnM/nE2ChUurH5r3bNg+DkWLV786fEOjg4kcAqp8omFPltydc/qeRKTTPjP/Rd+vr64SQ0EHv/G4yw57psPlZvs2FKCBFNRug+2cPF9cDgOrivZQeYoNZLZOYXr13tUxnHZxha0CyT8rlHdyw3wu953cfHSRVW+6npNbty4gVu3bqnxeRzO5Nr167hEdT4LOr4Wl5chVL5yGve2ZBaylGVtxqwZqF65Bpo2S3b3ZUJJpY8YMwofvPe+esjvvvsudu3cBbe8blhPYqpHz54q87Rs0UL157/d7W0cPLAf/T/8UIm0fHnyqD77+g0aqIzQvEVLEn3rUJgy1zKqHP835WvlcdWsSVOVuXJQgWhhZg5XVxecP3cZDRvVxy+//IJuXbviMGXWPvR9+w8eQq1aNdVg2qyGsVrWdtIz37V7F0pTQWVHFVeT5s2Vh9zpEydgYm6B7779RnX7PM9hEtjHafniyy+1lGS+nTZNjeVZQWKrfLlyiIqIoue6T7UsdRUrC/0ZM2agZcuWqiXH3lV87Bb6XhYe3KplK0alChVUq6pytSrYt3svetN1uUv17l12LQfOnjuLBpT/7ty+jTZt22Lzps3o2KEDhgwbjgV/zFeNgqZNmqjB4bZ2dmrAuT6HFxgaZVlbvhxdOnf+lzXBUGSUZU3IODK7Zc3QBAb6a5a1yVqK8LIYvWVN3yQlcRvmWe3pS4rb2sqaRFMj9OrVS1VmPHCWLVvc8mSrhtKr3FqgxcnZCa7UOuEWBxITcOHSZXTv0UONr2jdujWioyLVQFq2sMWRMAgIDEJu19wqfg1Xsrlyuqgf9cKFy2jVpgXq1q2LytSS9X3oi+p0DHtLlS5TCpER4ck3KGQI/Hi59cYec5XoebAJnVKRr3BB1CThvH7NGsTG/tvKy9McJaTSkkyiipqtqqEkJJqT8OvarYuyXPA1dXBl/haJq7Vr11BF7IeS1IpkuGVav149ZRVhAWdmaqbGxllZWKnxPNxlEUf5y4TSebwHd0Wwlbdx06aoXLkyNRQKwZTysKO9jcrt3PXOAUzZ+sYedZw3sxr8HNRDFATBSOGaT97R9CJLdYNyUFzlZZAC7if3e+xHldhj1U0UEvpEdYPWrFFDDWzkcR1cqerug89O0NZ5sGLhggWURYwDBW7fvgN7DhyEKwk5Ni1zFyp7sASHhCCCRN/SZUvxyN9XnVu4UCFcuHgeISGBOHrkJAoWKQwzzeJiQv8lJWYpnWz0sEAqVKAgatBzZ8HD3TTsxVavdj0V7PHclUs4dGiPdvSzpHQkeArlXZ6GigWVp6eX6pb0DwjgJ6sdkAwPbL3n7YvHvo9VwEqGnVbYNN+QBBt3Ad32cFfvgupe0ATJ9i3bUbFCBeXxlNyYMKXvS96n0njFxFwNKi5RsgT6DxigrDw8mDwrjmFTfy//DoKQmUh8VZe3zAuXp9qbKqQDBs1HXDnpc2xCIl3L5Dmx5porF0aNGoGRo0epcRuF8uZDwcKF8f0P36NHjx64cvWKqjDZylGmbFnkdHZWfehc4RWkyp2PeXDvHiZPnYqq1SrjnU7tsG3nDpw4dQrVa9VSXbm5crmg7/vvo4BbflStVA253dzQtn073L97H0OGjMZnnw9Vnk158rBHFAlIEnu5cruodSFjYNHOoQ5Swt0ILvTs7Ehwfz15Cg4cOKQsZSlhi5elJqBSUqxQEVjZ2KBnj+746afZePDoIerUrovQiHA1uJoXtpoxH/TvDeecOdXYH85nHFqhRtWqGP35aJw8eQpVaJ27SXgckFue3Dh69Ai6deuI2T/NVPdWkBoMsbExcHTmsT2mKJC3AFzo76lXr74an9G4UROMGjMGCxcuUla5rNQFmgy/01IJCJkQs4zzBjU0XDbRv8kbgt7Jct6g1apWQ9NmTbUUIaMx1jFrrws7hbBl9Xlv0NRgceZ++zbi4uKVtODB06VLl3o6UFt4PWTMmpARyJi1N4PzLztFTZ4sY9ZelWznDZqkuomkBS7oEcqjqXaDpgI7LpQvXx6VKldC5SqVUaZM6adeVcIbQM+Ax6ypbmJByExko25Qfj/lHU0/slQ3KJI4o2SXV0PICNLqBk0NjtTOoRa4q5NjBOnCewhvCP2GqiPUcJ0AgvB6ZKNuUCF9Mbiy0adlzURNYyKvhqA/WGrJZFPGgAg1IRNC2Ta7mA+4MSUNqvTDoPlI7w83Qaxqgn4xNTFBRNi/p4cSMhg1eFkQMhlUv2UX27p0g6YvBi0B9d4NahmPpMSMihctZAd4OjKOeSYYEK7wEhOlIhAyHxk4N6ih4V4ysaylHwZvruqzGzQxkeNLSWYR9AeHwRCJYGBIpPHYQakIhExHNnIwUGWlNKjSDYPmI30XvmYs/J6LsyYIbwIXPro5EQXhZYgIDcWuXbvU3LAMz5LCIWCej+GnD7gM5Wn0OGTNm/Lo4UPce/BA2/oHDsnAczQKhufmjRvwTuNZ8LSIPEfwF198ga+++krNV8x58Ndff1XzIPN81QsXLVJzW8dQOm9ziCM+npdx48Zh69atmDh5spqPmGdC4XmTOVQIT6TOQeWXLVum5uFMjbQsa+63PbFh/UY1mT8TGhKG2XN+UiF5UpKYkICHlP/4fRH+jcG7QfUZwDPRjPvMRawJ+oMLrJcN3SGkI5moxe5L4mbC+Am4cfOG2vb29MTESZPw4BUnjeaKjxddJcifnBd1FaJue8umTalO4M/H8f6UvRe8zTO0PH8NdX0ui+OT19VxWrq3j48KAi68BnroBuVndIeE2CeDPsWUr6fQg029zrxH+WvHzp0qkHZoeDjGj/sSdz29sGHDZgSQ+Pr5558x75dfUKlSJTVlIj9fns/a/dZNElJUzlFZFx5GQuqnn/D48WPMnz9fib7SpUrhu2++wfw//sD83//ApEkTnwb8TklalrWEpDgEPQlSfwc3Kp6EP8FfS5eowOEpiYiMxICBA3Hl2k2V7zhP88LrKn9q+Zg/VR6lvBodFYtYEp3ZAYOKNUb3APSBSTwXUAb/k4QshF7HVAqvTaaKs0b3WqZ8GXh6eKry7cz5M6rCM3nFvHTj+nVMo0ry55/n4jhVqt9++w2+nvw/7NmzCw8ePMTUKVPwzbRpuHTpinKESQlXxFxxf/nll/iJKmm2lOzbvx9Tpn6NyZMm4/jx4wgODsbsObOpQp6ABVQJP/J9CN9Hvjh9+rQSl2xpOXL4MMzp2jxmUHgNEpNw18MD1+lZvs5y7MQxjPtiHD4f/yWqV6uIifSscubKoV38WTgHcHDl999/H+/36QNXt9yIjI1GZHgIfpw5ExvWb8DSJUtQpkyZ5BMIM3q2jZo2Q9++fdD3gw9Qu3Zt9byXLV2KLVu2YCMtpUqXhourK1YsW4aZM2YgJCQEYU/+LdZYQKUGO2j5Ud46fOQIunfvjuHDh8P/4UOYP/c+8Gws3t7emD1zOtauXYuPP/mE7ut9/DD9B/zxxwL8RCKSBR4H3T195hzavtUG7/d7T00fmR3IUsomyZwyixjWBD0jgs3w8GyoaVUGxkh+twIICglCgL8/zl+8oiq8VyUmNhZRkZF4u1s3nCEBVbZ8ObR5q5WqqFYsX4HS5cph2PARKFS0kHbGP7BI9PH2QQU6phwt3LW0Y8dODPp4sJo15sjRo7h08SJyODsrUebkkhNBAUEIIgEXTcfWr18fhYsUwZ69++iXTx4zKLw6jRs1xAUSE3v37n2tZcHChVi8dAmcnJwRGRmNIyTagwIDtav/G2+vu/jss8/wzbffoniJksibNy8ePfbHqdOnVNXolCNn8oEa7EC1Zes2zJk7F3/+9RcJ9kcqfeu2bWpf3ty51TR4AwcOxEX6O2b8+COqVKkC55xO6riXISo6Bj4+D5XoatGsGYYNHQqHnI5IIiGbkuLFiiN/wQJ4r/f71LDYi44dOmD699/jwP4DOHPuLIKCglUjxN/fD3EkQv2Dg9CxfcfXercyIwYXa/rsBk22qkmhIugPrvS4gBAMTGYSCyQqc1EFZ0a3vJ8qmgqly8DO2lZZWV4JOr9UyZJwzuEM/5BgbNiwEStWLEdCXBxCQgNRsmhxODk6kuDKwaY07aRkuIHR7e2uqFCpEk4dPwGPW+6UGo9cOXLBycEesSTIeBxTDqq8HewdULRoUSWIeVzR5q1bER0dhQL589EtU6pJIkwzkVA2Jvr06YPhw4Zh0KBBr7X8Once/iZhHkLCPzw8FO/26IWChf4tzhX0jhQrUUJN+bSIRN73JNicHRxRoEAhzJ//G/LlzYVp0/73dOwYw3NgD/r4I8z7+WdMmzoVxYoVRTw965/mzEHZUiUxfORIlVfWrFqF7+h6H308EMOpgcBT6T1P2pZvyldxUbhHjYcq1aqhXNmysLexg4nZs3U/T8tnbWWOXLlzIjYmBiVLFEehIoVhS98VFR5O109usCUkJHeD2lhZo0atmnB0cNCukLUxqFjjH1yf3aBmiQkSFFfQK2JVMxJYK2QSwcYOKdZ2NtTiL49Vq1eicfNmsLC2hKn5q+UlczNzOs9CzYhRu0ZNdGjXER06dEDFypXQpnVbrFi1HLt27cBtD3c1e0ZKePD4rh074evri5y5c8MhhxNy5XLDlu3rsWP3HlSuUg01a9bElStXsXHTJqxdtQYWFhYwt7BETFQYzE3M8eixH8KCg5AQnwhzugfh1eHyg3/X11342fNc1yuWrUDBgkXx2Wej4eHhoV39WcwpD9ha28DFxQWOTk5qBhVTmMHR0Q65XfPgh+9/xOVLV/D3yr8xZer/6NlfVgKJhRcv/F2cj5zs7FCocCGMGj0GnvRd382Yjl27d6NJ0ya4435HOc+kNkaS6/LUrN/8Gzg65kSrVq2waNEi/LV4McKfRNEJz4ZEYsONg60TTp86hZy5cmPT5i1YTMfyBPG16tbG+dMXsW7dOtVdysfy/Zo9l++zMmaTDTjrqs4bpUePHlrKm3Hs+Cnky5cHRYoU01Jen7ve3nhEBd2Vq1eRP29emFELRPhvvLy81PiYOnXqaCkZC1vB+IXmsREp8bjjoV78A/v24/DhI6ru5y6qyMhI5MyRA1evXcMpKiSKFSv2jEDjMRRcOLZs2VJLSebYsWNwogKRCwyGHRHY+6pIkSIvaGECQUFBuEbfxQUxf3dgYKD6vbiAFVKHByVfvnwZZalF7mAkrehLly6pCoMHaz8PP9vcJJBKlyqJokWKqvliOY/lzpMnzUn9f/jhB4wdO1bbSoanLstNlRZ3QxUqWBChoU/UwO4aNWqoa+Z1y4uY6Bg0bdwYkVHRuEaVGJdbvHD3abny5eD70BelSpRElSqVUbVqVfj5B6jrNahfD66urnB2dkIUndu9+zvI5ZobefPkRoOGjfHY7zGqV6+OfPS9xYsXp+9yU/k9K3Pr1i31mXJMl7HAFrDKJNJrkcC+ffu2+nz+XeBj8ubLixJUhunKIJ6BkZ9xubLl4EbPsFSZ0rCg8m3nrt2oX68uSlLeKE7HOzk7q+M5T7u6uqF6jWoqf1WtVh0mJPkqUF6ysbZFIv1nZ++AYkWL/mveY/Y8PXPmDJo0aaKlJMPvQ758bujUsSOi6V02NTWhBkxjEnwxOHToIM6fP4+LF87h3gNfVKtRHeEkBLt26qS8kMPCwvBBvw8ov9aHiZmJsgo2bNiI8nIVEq8FUb5cuadlcGbm77//Rs+ePbWt1DEhJWww+zar8759+6rKVR/8OGsGqlWuQS2RfzILV95cwHEFnETK34IyGH8vFzycuXl8RiQtzo6OagAwZzg+ntU7uxbXq1dPFbTcf8/bnDHs7e21qwvPs2/fPmqxXcGIESO0lIyFK3bO9NwISMmePXtIfD9G8xbNlJXGwdFBuaIXLFAARajgmTJ1Cr795tt/ia1Dhw4pd/bp06drKcnw4GxbW1uVhzhfcME1ZcoU5Tr/fCHGBQ6LOUfKY/y68fZBui6PPdE1VJQHV2ioap1y3sw0g+kzgCdPQlTIgC5dulKhn09LNSxLlixRZUrv3r21lDeDB4Zz5fS6cLmV0iuOB2/bUP6UXPTybNq0SX12IqFgrARSY49DafShfPevd4F7qujjeWcTrvd0llcuf1gwnTp1DPXrNoQ5CSl1dIpzuAxKOTwptd6vlPt1cEiPX375RTkApGTatGnq/eXvUN3qtPC3RVM9GxkTTfdmpr7DzNICznb2SKJr8/XV99KxbKnm45+eS9fhhdedSbDOnj0bdamezsx0JCG7efNmbSt1DCrWWBRxn/7GjRu1lDdj+syZqFGlCok1qpA12HrRoWMn1K9TGx6eXihduhR87t1D+3btVEtzBlXC3HHK/ei9e/TEr7/Ow31fX+Ul07hpU3h5emLARx9h2V9/4ebNG9RSMcXgQYNSbVELxivW2HTv4XkHTRs3UQKLC7qlS5cqocUu7yOGDUPJUqW0o//h6NGjKn/OmDFDS0mG3eC7du2Ko0eOYO+efchDLccnQQGYNedndX0d3pTX2GLi6pIDAwZ8qCpl9rLyuHMHVy5fxsiRI9Xx3AhYTuKRX8Y6tWuj3wcfqAJJYLH2BMuWL0eXzp1FrAnpRqYXawaGewl4vNykSZO0lGS4Ecr1MMs7ndjgT5JkylKHpAQSmBZITKB1OsiUij3dcVwCprWuk5DOzs6Z3rr2MmLt3/I4A9EpZH1hygN4U7mevY0tho0aibp16+Ddd97FsE8/VRlo9Zo1cHHJhQ5t25HI2INbtz2QJ68bfv7pJ7xFYo77wzmQ5RN6QULDwjCHKuKhQ4cqK01qrQ3BeOE2yY1r19WzO3jwoCpYOPNfJmFpSa3L4CfPxvzRweel1orkeEQ8DdUlElzf/vAtRgwfDktrG24IPgsVQIULFUKDBo1gbWOjLGycd9grqn///qqgiY6Kxm+//oYJ48dj1owflQCMpIaM8A8cuiO1d1sQBOOAy8rUbD/co8BdsLlpyaMtydu51adb3vzJ6/l5/dnjXrSuzqUlK3SDvgwGFWtMahXh65JEktzE5N8iyt7BDnZUkXJXk1MOZ1LlJso0zBGTLSwtEBkViebNmsPULNnThOHKQZldaZ0rV143MzdDIlW2Mn4t88H5rHmLlirGz0cffYTChQurZ9upS2d88sknmDN7RqqRufnZp2p8przC7bykxAQS9WZqcG88H6vafP+QQK1GDr3gZG+PqyniAfFxJknx1Kik69C1ImMi1RgluiDMuGvCQhwbUqKeQGrPQRAEo0DfxhfhWQwq1rgS1GdYBJN47sd+NrNw5rG3t0WSuaka3GtqZgJTWre0tlKVqI+PDy5cuACvu94oVrwEfO7fx8SJE5X7upWlpfKS4QG5XKl++eV4TJk2DW+1aaNXkSmkP8q76rlnxlG8czg4oHTp0nj3nZ6YMWPmM27tjBrrmIpIsLSwo+tZoGTpMhg/fjymTvsODjaUv54a5zXiE/Dd9B+wZccu5VHH+YbzIY93u3bbg74vGlbmVhgyaAg+HzUKY8d9iSb1G8LW6t+u8dmXZGEsCIKQXTG4gwEHaHx+fNHrMmPWDFSvXF25Outgywg7C/CYNHZFz5HDWXVF8Xi5PHny4LGfH3y8vZUHEJtr2VvvPgk29jTh47ivnccG8ABeD3d3FeOGx5cIqWOsY9bYIYCdRFxTPLtHjx7B3MoCuXK4qHxy7epVlChZ8pkYQocPH1YOBuytl5J797zh6poHpiamuOPhjrz58+PBw0eIV9ayZMFmQ6KM41dx+AR2KihVqpRqnHAe4/s4d/4CNRCKwdzCHC45csLT04vuP0qNneOwDUIyMmZNyAgyy5i177//XsXfy5Ej9ZkMDAUPLdqxY8e/PPGF/+bX337D3j17tK3UyVJibfrMWahRpeoz3qBCxmKsYu11ScsbNDXYKhcQGPjUWmxpTiKMKuGUDgfCq/MkJATLWax17aoishsDItayHplFrM2cORPVq1UzunA/LNa43O3Xr5/aNqC0yHRwFAEeT/0ispQ36KzpM1C1ZlU0adJcSxEymqwm1jie2oYNG/7lDSpkHMmWtWXo0rmLWNaEdEO8Qd8MHvPL3qBff/21liK8LJnCG1SfY78STGVQtqBf2Eom4xONAGmlC4JRw+WklJXpR5b6ZdkTNClRBJsgZDlMpBIQBGOGO+mk6zP9MGgJyA+WB3brCxUOIZXQHYLwunBXlz7zqPAaUDlhQs9AwgIIgvEioTvSF4M7GHTr1g2jR49WD5lvJbVP5mX2bd6yRc1zxnPicTRkE1OT5E/tOB2pXeN5XnTMq54fHBICezs7tc6wAIiIjISjNrfbq1zr+WNetE9Hep7PcJpuuXr1qpoeZNjQodrejIXHrHGw2Q+0GQBeFBrmZf5m9iQ+d/68GiOSMj21c1+0T4c+zufp0biVxaFH2FuZvVd5XBeHmNHxstf6r33GcH4U/b03btyk59pPBcE0BmTMWtZDxqy9GZx/ebqp52cwEP4bo59uikNj7Ny5U9t6OV5UwBsr165cgde9e3AgwcZztFlbWanKtUWLFpnub3kZOPxFmdKlta2MhcXZ6dOn1QwF/8Xr5CVjyH/nL1xAMP191WvUUC94Sfq9/Wm7Y/v22hEvx5v+LRl5fi4XV1SpVkW9O8aAiLWsh4i1N0PE2utj9GItu/AkNBQ/z5oFp5w5kTt3bty6dQttWrdGrdq1tSME4eW5R8L/13nz8OmwYWpuWzMzU4we8xnc8uTRjhDSG2MVa4vpvpo3a4YCBQpoKS8HVwNc0daqWROnz53Dp4MHa3uAuT//rMqrEqnMncs8ePgQ0/73DebO/SlTDzAXsfZmpDU3aFbh2pUb2LVnG0aNGqOl6A+j9wbNLjjY26NoiRK4cvUqrl6/hvjYWFSrXl3bKwivBlfEefK4YeuWLbh65SpKlyqLXEYWc0l4cx7ev4+jx45h184dOHDggArMzTOusKjg4KNh1AgMDX2C/bRv3bp18LxzB/Xq1lXBUr29vdVxe3btQkhIiBqecPrUKaxduxYXL1xAfFwcTp48pULcnDh+TM0PwUMIclI+atq4sQqrtH/fPmyn7/EnERlPYu7CxYtYvXo1jhw5gqjISBVUmr/jzOnTCA0Pg6mBLc6CYUlraj6OP3n+wnmsWbMBZ86cwc2bN3H7jrvqBeG5lX0pH+3du1flYw6VxNcICg7Grt27VVivO5Svn78un7t7zx4cP3kS/n5+OHX6lMqLXMfyfZw+cxobNm3E/Xv31bHXb1xXIZhOnDiB8IgI7KHvO3r0KLZt36Z6uXhoCd9bGO07RPmb3xPO7/y9t93dsXHzRty4fR1REVEIpPdhB71X/O54372b6t+cHohYywC4tVm1alXc8fDAqpV/4513e0igVOG14a7D7r26Y/GSpfAP9EelyhUlP2VBfB7cx8qVK2FiaobDhw7jka+vqmziSGjx54GDB3H0+Ak1g4aDgwMOarNt+FHltWDhAqq0kuDz8CGWLl2KQ4cP4SSJNRtbG+ymStCX0jdt2QZLK0v8tXiJmmGD4e9YT5UaT8F37fp1la8eUlrok1ASdcdh52CHg3QvnlRJ/fHHHyTaolTQ4tiYKHW+kH3hei61YQ1enp4k/PfD2dle5aFDhw7ixrWbSGBRdfqMmkFo/Lgv1fhbbgywpZYbCveoYcLjcRf99de/hrXw96xetYrEGE8XeR5/03tiaWmFlctXIoSE3iq6TlRYBDUsjuLBgwfYvm27muKP8/UJEoTLli6Bh7sXrly5Rg2ge0p0XSRxFkDvzhkSgOb0zvG9cKNk1cpVMEkywQO6n0gSnjx0KyQoSL0bW7aR2KNGU0YgYi2D4Pkna9eph7fatEX5CuW0VEF4Pdxyu+HjgR+hUsVKqFCxopYqZCmogqhcvgKaN2+OggXzIjY6VlWIPl5eCCVxxRVYwGM/1K5VG61atcK777wDMxMzhDwJQXhwCDp27IDuXbvi9s2bMDO3QIO69dCkcRM4u7ooC4IpEnDvrg8CAgOQEB+vvjKRrQS0PH78GNWqVUOrli1RuVIlmJmaqDHGnjfdERwchJioKFy7chntOnVAm7feoorQTp0vZF/Ssqyx+GLHIB6jPfDDD+Hq6goTtuXSsSZqLmUTuObLg7aUj4oULaosxJz/WlLea926NfLS8YH+/skX0+Dv4RkcWrdqjYuXruHyxUtYtWol9h3eiwf3H6JOnbq46X4biSZxygLMVjueBYUteFevXYOTgy3eefsd1K5dE95eHjhJAq1qtapqDmm2st318YYffSc7QcbGxqBd27Zo0749kqihxPv5neSFHQf5mIxAxFoGweNbypcrQ5mjtgQOFPRCy9YtUCBvXtimmMtUyDokUUVmZmVJVRlhYo5watVz92fnt99G2XJllSXC2sYSD6gy4nGMq/5ehZj4aNjZOyCeTrp71xOXrt+AW/78sKZKyNzGWl3XLD4J586egaW1NTp06giXHC7KgqCDrRZ29vbwpmuyVeLu3btUwV2l77JG13ffQZFChRAbkwAH5xy4634HN2/fREQ4VVjSDZqtScuyZu/goKaiekiibfXqNfD3D0BwUJDKWz7e99Q5Ab6P4XXXG/5+/ihGgs2ORJCnp6ey6j58/AjOuf7xdGf4u7hOZetW8aL58Ta9E6PHjMHM6TOQu4AbD8bHe717Y8vm7SSoHNC5c2eMGjMW48ePV+PDzCxs6H0wV43d46fPqq7ZsmXKqq7RMmXLol27dsjp5KS+J4YE2l1vb1y/ehVJ3GghUepz/z586P2IJuGWUeWvqIYMhjOYIOgNyU9ZFtdcuVGseFElgooVKwY3Vxe0bNECO3fshItzTsTHJ6BG1Rq47+OjxuNUqloJlSpURk5nZ7zd7W1s27YTly6eQ7++fVG0eHE4Ozqqyq1YyZKoVbsOzKkiYotD9RrVlSArS5VUnjx5UKF8eVSvVhVR4eHYvXsvypQug+rVayBejRPaBQcHR8QnxWP40KHYf+ggvL280axZM2UpEbIvbO1KzbJWjvIVO9Bw97o9NQLat2+vxNuefftQokRxODo6wIIEz8GD+ymfVVVjcuvXr6/CJq1fvwFvtXkLueldSAl/T+XKlVV+btu+EywtLXH40CG4376DHA5Oyhq2ddt25YhRvEQxFKYGxoljR3D2zFklDnnMOJecHO6oXJkyqEvfxwKxVq1a8LzjqcbAFSpcWHXxv9W6ter6jAgLR+1aNdGoQQOcpf379vP9VocTibqMQLxBMxA2w3Lm6t69u5YiCK+PL7U62ftq2rRpWoqQUWSENygPjOaFKyIep8bfx8U1OwJwCJPo6Bg1Bo23+Tgek8PHcVcOH8cOCVze6M5nKwEvcfHxMKdr8cBvxoyOSaTzuRLj7+AuUUu6fixdN5FqB1NTE3UdvkZiYgJd31J1l1rS93AMPDMzOp/Sra2TLXeZFfEGfTNe5A3KeYfzKedRZa2idRb/Kg9FRKD3++9j7apVKi9yXtPlcx53mZAQrxxtAvz9YUL505T2cRekc44csNJC+XD+57zI25z/OY/HUP5nAcb5mrto2RLN17a2skZ0TPTT/KreAzqG74XhcZimZslWQt07E033YkX7Eyif89i46OgoWk9SVjU+7k0Rb1BBEIRMCgsnFloMV0BcaXCaqvD4085WVRRc6egqJT5eV8nwcSnP53PVMdq1+DxeLKgC40qOj1XfqVWA/GltnZzOx/MxNja2yQJQq9h4ALilpcXTik8QUoPzH1vVOB8xnJfsKH9yOufdsWNHqTTOW4wuX9tSY4SdZ95q0wbvvfce+vTqhV4kVPO4uanjdXC+5evz9RjO07zN12H4e3lb5VNKSplfOX/r8jPDDSDd+8D3o94lyucsJFmoMdbWNur+ddfPCESsCYIgCILwRrA17HU66sxIKDWs31hZt4S0EbEmCIIgCMIbwVamjLQ0ZTdErAmCIAiC8EbwuDBehPRBHAwyEHEwEPSJOBgYDnYw4Ejob3frltz1wwYFVU8lqdkATEwpIeW2iTapPSfp/uFtbQxPmTJlVPgATktZJKtzk1fTXNfxMsem97qON7nGm6zreNnz1KwLmjWIPf7Ys8/YHQx+/fVXdOrYMTlemXbvKm9peYzHWLFoeprnUhyj25fyGN2+Nz2fZwJYsGABPvvsszTPf5X15+F96Xn/hjqflw8++ADbt29Xx6WFiLUMRMSaoE9ErBmOfTwV084dyJc7L1X6iRy/NlWxlrzFekAruPkI+ocjovNenVjjGQaaNGxCa4nJgWk11LWSV5+u6/b+1/rz5zGvs3792jUlJtmp4flj+JP5r/Xnz2P0sc6fzH+tP38ew+tPp8iiz+DgYBVWom7duslpRgjPNLFw0SJEhIerwfS6fMXo1p8XC6nte5ljXvV89sjk6dCKFy/+zD7+ZP5rnT859hp7bRYtWhReXl4oVaqUCmrL+ziwbnrev6HO58WX/u4fZ81Sx6aFiLUMRMSaoE9ErBkOLmg5HEF24ONPPsFMqkjsMij4p6HgSlPn/WfMJIdQyZrdjf7+/ujctSvWr12LhQsXYNSo0fj555/RtGlT1KhRQzsq68F5TufJmhYi1jIQEWuCPhGxJmQEAwYMUBUmhwIRhPRm7k+zYWNnjzt3vNCjR3f8Nn8+Zs2c+UyojuyIOBgIgiAIaSLteSEj6ft+P9y8fQs+970xffqPeP+DD7K9UGNErAmCIAhpImJNyEgcnZxQvXJV7Nm1G9bm5qhZrZq2J3sjYk0QBEFIEx5PI4JNyEgaNGqM6tVq4JNPByvHFkHEmiAIgvACRKgJGU3+/PlQqWol5VkqJCNiTRAEQUgTFmvsKSkIGQXnNwszC0Qnxmspgog1QRAEIU244syqoSIE44VDWSRFRmtbgog1QRAE4YUYe+wxIevBeS5euuCfIm+gIAiCkCbcDSqWNSGjMTMzR3y8dIPqELEmCIIgpAlbOMSyJmQ0FpamiI6WblAd8gYKgiAIacJWNfEIFTIaM1NLJCSIZU2HiDVBEARBEIwKCzMTxMQmaFuCiDVBEAQhTbgLVEJ3CBmOuRniYmO1DUHEmiAIgpAm3A0qDgZCRmNtbo34+ChtSxCxJgiCIKQJW9XEwUDIaEzNTRETI2PWdMgbKAiCILwQsawJGY10vT+LiDVBEAQhTdgTVCxrgmBY5A0UBEEQXohY1gTBsIhYEwRBENJEvEEFwfCIWBMEQRDSRKxqgmB4RKwJgiAIaSJWNUEwPCLWBEEQhDRhsSaCTRAMi0mSTPqWYSxfvhzm5ubo3r27liLoG87OQUFBiI/P+vF5/Pz8sGjRInzxxRdaStbFwsICTk5OMDMz01KEjOKDDz7A3LlzYW9vr6UIQvrz559/olChQmjevLmWkr0RsZaBiFhLf6KiotCpUydUrVpVSxEyOzExMYiOjsHEiRORL19eLVXIKPr376/Emq2trZYiCOmPiLVnEbGWgYhYS39YrPXt2xdr1qzRUoTMzpMnT7Bs2VJ06doV+fLm01KFjILF2k8//SSWNSFDEbH2LDJmTRAE44abk0mmMKH/hIyH2/MSFFcQDIu8gUKWQ4zFWQzWaCZJ8lwNBDsXyG8vCIZFxJqQpeCKReJCZT3EI1EQhOyMiDUhSyEVetYkKVEsa4aCf3d5rwTBsIiDQQYiDgbpD3sO9uzZE+vXr9dSMj/BwcF49PgxrCwtkb9AASQmJCAyMhI5cuRQFWlERARiY2ORK1cu7YyshXIwoHenS+fOyJdPHAwyGnEwMB4S6N1/8OABwsPDtZSsy4YNG9T7Xrt2bW4xqKGrqs2gFIsJfVAjInmVd6v15GOSu+2T9/2zrvYlpxJ8wrP7mOT9yd/FPLOPv/zpffyzzrz8Pvrn6co/2NjYoGjRotpW6ohYy0BErKU/WU2scSy1L7/8UnXtRkVGoVrNGmjcsCGuXLmCWjVq4JaHB6ytreB5xxPDhg3TzspasFhbvmwZOitvUAndkdFI6A7jISQkBL/88gscHR1hZ2enpWZN+G+1pAaqHeU7limsVEy4L1AplmShZco6iJfEZP2TfAyvqCNoXwpBxmmaSHp2H1+b0tX//F8ipZhyqvo3kXfwOeoLeJ82JENbp39gSt+p7vG5457Zx9/P98+jdPgetWN53+EjR/DXn3+qtLQQsZaBiFhLf7KaWFuxYgUWL16MxX/9BV9fXwwYMAAz58yBL7Wujx47htu3bqPv+x/QS5+E9u3aYe3atbh37546jt3eswLJlrVl6NK5i1jWDIAExTUeAoOC8Mcff6Bnjx7IKw2XLEO3bt2wZcsWbSt1ZMyaIBgxZcqUwaNHjzD1f1Nx4cJFLPxzIaIjInCMhFpkRAzi4mJw5eoFHDpwAL/99isOHzyImLg49OnTB97e3tpVsgDiM2IweNYICd1hPPCz4Bk92OokS9ZYdBa/FyFvoCAYKWz05rEMkydPRpWq1UisnceQQUNw794D2Nja4J2unVCubDkUKlgEsfEJJNquov/AgZj69deqm8TLy0u7UuZHdR+8RIEm6J/kLhzpgBEEQyJiTRCMFG5tbd26BVu3bEHvnj0xYsQI+AUHIjgkEIkJidzERnxCAhISE2FlBlgkmSGE9nNXSXBgIBzsHbQrZX6UVhDBYBBEqAmC4RGxJghGTO8+7+HOHS/UrltXTbfUsnFTVKlSBU7OzihSpDCuXb8OTw8P5MiZC53e7oxp38xA2/bt0aBxY1SoWEG7iiC8PtIFKgiGR95CQTBi2Ptx+45tWLRwoXKa+OXXX9G4cROMGD4c5cqXx7q1a/HVxIkY++V4dOrUGatXr8DyJUvwzdSpsLKy0q6SRZBuUIPAnshiXRP0TSLlqZAnTxDgF4CAgEAE+AciODhE2ys8j4g1QTByOGRCzZo1UaJECWXlYBHGY9IYNzc35HJxgUsOZ7WPY/WULVsWZhYWan+WgIWCbhEMgljXBH0TFhaG8eOpkdm5Ezp36UyNzY4YNWaUvOdpIG+gIAjGDVvURCwYDB47KVO4CfrG0cEB33/7LRYtWAAPL3dMnzEd33/zLc5duIADBw8iMCAAwU/CcPfuHZX/3N3d4e/vjzt37uDMmTMICgrSrpQ9kBJQEATjh1vb0g1qMMSyJugbbgTYk2Bz5F6BBBNYWVtj0V9/YcrUqVj590p8OX489u/ejc8++0LN2DJw4EA1q0G/fv3w9ZQpKp5kdkLeQEEQBCFNeLyaWNaEdEN1eybhSUgIjh07jOnff4+vvpqAwMBABAYHqkMSaL85NRjMTCyQv0B+TP/hB1SokL0cqESsCYJg3HBhzmJBxrIYBLaqiWVNSC8STU1gkpgcyy8uKkEFYeY5UHlWFg7+y+nx0bEIehJKafGws7GBo6ODOi47IdNNZSAy3VT6Ex0dja5du6Jx48bqJdfNvZbyMyUvOobX2fzO0x3x1C4p0190Tmr7XuaYF+17mWNetO9ljnnRvpc55kX7XuaYtPbxFGJBwcH4/PPPZW5QA8DdTjzdVFafizIzwDEUFy5ciD69e2eZqdf8/PzRuVsXLJj/O/bu2YN9+/crp6m89Pf1pbw35MMP4ZY/P65cvo7xE8fi4tkr+PTTwcibP+tMPdexY0ds3rxZ20odEWsZiIi19CcqKgq9qSD77rvvUq34daJAx4uO4fWzZ8/i8OHDGDVq1DPpLzontX0vc8yL9r3MMS/a9zLHvGjfyxzzon0vc0xa+8LDw7Fv71706dtXxJoBELFmPGRFsRYbG4sbN26gVMmSMDE1xflz5+m9T0SZsmWRk0Qb74ugMsDC0hIFSLSFhYchn1t+WFlbalfI/IhYMzJErKU/LNb6UqW+Zs0aLeXNOHLkCLZv345vv/1WSxEyGrZsLqV3p2vnzjKRuwEYMGAAfv75ZxVCRjAsWVGsCS8n1mQggpDl0Gf7Q2fdEQyLmWZpEzIedi4QBwNBMCwi1oQsBVfo+qxY+Foi1gwPP1F5DoaB3ylxMBAEwyJvoJCl0Lf1Rd/iT3g9+Dno+9kKL4+8A4JgWESsCdkCrmzi4+OVSzgvujRdJcRWG05/vlJigZCai7g6N+mfY3XnC+kA/bZJ9HuLZc0w8O8uljXjgZ8Hl2U8MF+WzL3ExcUhjj5fpmwTB4MMRBwM0h8O89CzZ0816bkOFlH79+9XU5RwpePk5IS2bdvi/v376mVp1KgRrly+gpOnTqr0ggULamdCeYJu3boVP/zwg5YCVVBu374DFSqVQ7EixVWav58fdu/di3fefhuWllnHS8kYYAeDZfTudBEHA4PQv39/5WAg3qCGhx0Mpk2bhrxubqoce1NCQ0NVeWVtba2lCBkJGwNYgv29ciUOUB31IkSsZSAi1tKf1MQat2AmTpyI2OhY1KtfH0ePHUHOnDlhY2OjCquOJAJGDB+Cnj364oMP+sLe3l47Ezh27Bg2btyI6dOnaymaWNtBYq1sORQtXkzFYvO8exefjR6DtWvWwN7hn/OFN4fFGr87Xbp0UfHuhIxFxJrxwGKNw6i0bNECrq6uWurrww1RbpxWrlxZSxEMwbBhw7CD6pQXIWItAxGxlv6kJdYmTJiA4iWKofu7PbBz+3YcP30KuV1z4/Lli2pak46tu+LTUYP+1eV56NAhVaClFGscePeDAQMwsF9/XL92DfN+mUvn2SBfAVds3LAedvaO2pGCPuBpaJYtW4YuXbuKZc0ASJw140HfoTv+/vtvFC5cGPXq1dNSBEMgoTsEQYPHmK1cuRqfj/0cW3fuQMtmzWFpYYFjx04gMCAQ1o4WME1lAHtaU+1YmpojIiIEO3fvwu8L/8DYL8eAWz1J8krpH34uMmbKYOi6aoSsSXabtimzIiWgkC0wNzVDuzZvYcTIEfjmf/9D6zZtkEj1T4cO7fC//01TloPjx49rR/8DV1SpOg6QfggLi0RSQjyKFC6KyhUq0LGmnCykA/y7ijeo4RAHg6zL805VgnEib6CQPTA3hVuBvChbtiwKFSqsBtWamZvD1cUVbVq3Rp/3+uCzz8fiwcMH2gnJ8Pg07rpOCUsGU1MT5MmTD1b2dpg5cxbGTZigLHOJYoHQP/SbJpFgFuuOYVCez1KhZ1lEiGcO5CkJWR4283ds1x5VK1fVUpJp1rghWrdpp0Tb8GHD8fHHnyD0SegzooDPZcH2PGyZy5HDEWNHjaGXKAmNG9TH2+++LQVfesAWNemqMRhpDQUQsgYixDMH8gYKWR4WXOwFWr58eS0lmeo1aqJBg7qqe41d19/v21dZ3p7vbnt+TIeffwA83N2xePFfaoBuXEICHjx8CJ+73nj06JF2lKBPTEhASzeo4ZAK3bjZtGkT5syZg5/m/ITlK5YiODgYBw4cgIeHh2p8Xr12Db///jv8/Py0M14Mz4l8x9NT2wIuXbqEU6dPa1uCIRCxJggvgMerPT9mrUCB/Pj8888xY8ZMWmZoy4/46quJKFq0qHaUoE+SSKhJN2jGw57PXPFzeBrBSKH34q8lS1Q4IXcPd3zz7Q+YPPlrrFu3DlevXoW3tzdGjByJoOBAFbLoeVKzmt64cQN+jx+rdy4hLg6nTp7Evr17tb2CIRCxJggvgMermTznNsAWHh7zZmVl9czCadJdlE6IUDMIy1aswKFDB1WsQZmh49UJ8PfHXRJL3l5e/3zevQtvXnTrKfelOCa1fffu3UNUVJR2dQ0qj8yp2OnQvj0mTZqEUSOGw8fHRx3n7u6Oz7/4Ao0aNMCIYSP/Nf6WSctqGkNC/fsfflBhipb//TdiY2K0PYIhkJpFEF6AWHOMAyWXpRs0Q7nncw8H9h9QQwM87njA77G/tkd4Wf744w8s+nMRiZ0VWE7Clz9X8DovK1Os6/atWP70GN2+Fdo+Pmb9+rXwffCsExQ7NcXHAUuWLcGQIUOwePFidOjQUQX9/vXXX3Hj+nWUKF4cllYvP7MKi0IO0rpu7VoMHjQIFStUkPfPwEhQ3AxEguKmP6kFxX0TOCguF1rfffedliJkNGq6KQ6K26WLBMXNINjaMmf2bJQqUQLrNm5EtRrVUahAYXTs2F47QngZ+n/0EUYMH46ihQppKW8Gd0mzaOPxtU/fBarC3+n2NmrWqYt33+4GOwd72NrYqqEaRYoWQWFaFi1chPm/LkChws++Pzzmlodu1KlTR0tJ5quvvoL77duIio7GehJsCxYtQkBAAMaPH68dIeiTlwmKa3Cxxp52bLINCwvL8gOId+7cqQart2zZUkvJupiYmqJ8uXIZ3i3IY2zeeecdNX+ePrhw4YKaV3T06NFaipDRhIeHq2fQr39/5DcSscZdglx2cfHJ5ZYqRnXlV4q0Zz5ftI8+aUWd/sJjiDT30acilX1PjyHS3EefClp/8OABli5dikGDBqlKf9SoUZjz02zM/HHW03kkdee+6nryXdDX0fKy68lX+Ocab7L+ou/hQNn6LLP6DxiISV9NQOEiRbSUNyO1GQz47+rVqwfatG2Pvn36qL+RG61jx45Fk4ZN0aJVM4wbNw5J5iaY+d10WNnYqPOYtGYw+GriZJhbmGLt6jWYOnUqVq9ahVKlS2Py5MnaEYI+yRRijVsKPEm2s7PzM3MyCpmbtevWYdvWrbC1tdVSMgYeCN2tWze0b68fC8AdDw/lSdWpUyctRchooqOi4E0NurEkGgrkz6+lGpYTJ09i/4EDsLezU5U7W6JSigIzSkugNN0nx+BTBa0mGLjr6um+VM7XpRnq/ED/ADz2e6w8qNmrsEGDBjh88DDq1KuTXE7z9XTn8PW06/D1+dq6dd298Cd/v7qPFOt8LJPaOt+N7l5TXU/t+4mU9/Iq3x8eEYE2bdqgih7nyew/8ENMnDAeRdJZrHF3ZfESJVC1anJ4Im5M7Nq9G0WLFELZsuVx+7Y7du7Yrnp18ri5qWMYFmt8b3Xr1tVSkjmwbz/y5s+Ha7du4PSxE3BwdFSCrlmzZtoRgj7JNGKN++Q5E+XKlUtLFTI7PXr0wJ9//qnGTWQkPKi2b9++WLNmjZbyZrAL+/bt2/Htt99qKUJGo7pBeSL3zp2Npht0yZIlCA4JUfckZA12k7jhOqizHp9p/w8/xITx41EsHcUaw+KMhatOsDIsWhldGluCeT3lMWl1gzZo2BA8HwtdUs2tbGpmBkcnJ6ylclXmiNU/mUas8XgUrtxdXV21VCGzY0ix9t5772EttTT1wVESa3v37RPzvwFhsbacyojORjRmjcUaD2noTZWmkDXYsGGD+uSxkfqif/+BmDQxfbtB34S0ukFv3bmjrT1LCfo7no87Kbw5mWYid24RKHO2ILwhnI90LUp9wC1KKZyMACkfhHQmXeohUyqPtFVjJbW/uXTx4qkuUhYaDqMQa2zcM7CBT8gi6LuwlXxpHMhzEDIlVBwZe87Vu0AV0gWjEGuCIAgvRCoUIZ1JF6NBQhL+HYbWuNBnT4SQfsiYtRfAAzK9PD3hc/++mqajdKlS6e7dyI+DB3SyuZnnmXRxccnwcV/6wFBj1vQdZ+3YsWMqbATHHdIXHAmcQ5tYWFhoKcKLeDpmrWtX5MubV0s1LDJmLevBszQwenUwGPghvpowHkX1OGZt5syZqFGtGlxyuSQLTOUf+2qwlYYl2v59+5DXzQ1ltXmTk6/EV2Tv4WRpoNvif0XW6RGWXvSDm5qYqlBTu3bt0nakjljW0oBbGzvpxxs9ZoyaJPfb775VcYfSW9sGBQXjxx+nIyAwAOs3bJCJwbMgly5fVnPvCS+PeusM267MtBw9fBh79+5Vjc/n4VkKtm3brm39Q1R4OMLDwl75N+fv+Ouvv9R0SkL6EEe/cUBgIPz9AuAXEECf/tq2nwpcy5O1B/hTuj+l0z5/3TEBKY5R+wIQSs84hBpDKY/zp2vxNfz9+ZOOU9fS9j29Fn+m8T0vdS+GPl87xqDncxptUxo/0/9CLGtpEEwZ+KMBAzCgXz+0adcOF86dx7Sp07Bi7SpsphbYPmqR8D3Xr18fV65dw6IFC5R3zsCBA5VC5nhfHOyXw0iUKFECh48cwZbNm9GsRQvUqVlLFZ48hUudunWVIGMLTkvaxzMcjBw5EsOHD0fhggVx78F9avVUUHO7sWgsXrw4HtB1d+zejYaNG+Ptrl2NctBnVres8cwGefPmVe7+rVq1QqlSpXD9+nW13bp1a+VhdfHiRTVtC7vVlylTBidPnlT3du7cOTXvHxeKA/v3h5W1NfZQfsiZIwcqVayoAvHytd599124pYiJlF0x1tAdmcGyxuKpRavWsLQwxzJqbObOnVsJsHhqjJqbmuIC5dFdO3fgi3FfPhPqYT01FD287mDksBGwoL+Tqwm2ButQ1QYdb6KVPbytzqfPTwYNwkeDB6Fm1Woqja01Kc81VtLLG3TyxAkopC/LGpUZyhu0Tx+9eYMWK1YMtWvX1lIEQ5BpvEGNkbCQECRSeVScKmGmUtUqWLB4Efbt3aMKag6cOHzEcBUjbtb0GShbrhwCSSHPnjMHf5FIYTHHk3t/9tlnuEQF4pSvp6gAmmPHjsHyFcuxYNECPKSK/B4Jr+Mk5FxdXPH999/Cy8sL1pZWsLa1wb4DB6myf4BpX0/CzZs3servFVTxA4uXLYeTszNGDP1UCQAh49FNQ8WCjV8yDw8PzPvtNxVE9Jd585TI27Jlsxq8e+vWLaxbtw6Ojo6YMHGi6ubmQrdm9eqYPmOGanXNps8nlOe2btumRF7JkiWxggQKHyckd8/IQOhX58L584gIDUZSYgJuUKOShe/kyV/jI2pUfjzoEzx+/BhxCUk4c+YMCYv++OCD97Fu7Rps2Lgeu7Zux/VrV0nIjcP71Gid/PVkeHt7q4bkRx99hHe698D27duwdft29O3TC/2pcbuBGpRxcXEIDQzC9OnT1XEfffwhzp45q92R8cL5S+95zNQEep3+nu9Pz/doYHuN8JKIWEsDcwsLag1ysMFk82RwUBA2Ustr+86daNK4MQZQwVSvfm3s3XUAjs6O6N2rF3r06Am/R4+o8ItX+9nKFkst2wNUsbMl5erVq/SDm+EaFZr58+bHxK+/Rtny5eAfFAzve3cRT0osX/4CyJs/L5o3a07fmoS27driSWg41q5Zi0JFi8LZyRExMdEk4nxITJqqqXiEjMeM8gfPktCY8oKNrS3OU6VYpVIlNZVY29atceXKFRQsUBBNmjRRaVVJ3Ldo0QKPHz2ENYn4hg0bqu1cOXOqZ1ioaBG0bdtWTbrM524j0XaV1uX5JsMVilQqrwaLpt//+AMVKldF8WLFsXPvXgST+D948CCKly6JAlTW+Ps9hpfnHWXp54ZjJTo2PCISdes1UFb/PXv24dSpE6hVqxa2UPl3/Nhx+Pn7oUvXLmjWtCnWrl2HhfQd7/V+H72oDOQG66VLlxDg56dmB6hODRJfXz+cPHXyqeVOEIRXR8RaGrAVhCfD3b59h5q3dPuOHdi9Zw+KUgF37/59Fb3c/ZYnipcqgpCQMDUn5V0fT1haW6sBg3fv3lPdmyZUYBUtWAR16tRWVre33mqDosWKwcLaUnV5Xjh7EVXKl8Xn476Eva0TPRCqlBKTEEPX41aZs7MT2pEo+GPhAtSpXQfHTh2GEwm2sV98ATtbSykADYQZPVdLen4sIPgZlyhdHFcuX0VkRASOnTyDsmVLwMSMBD/lBe4qMrO0pLMSSPybIIIEGIv3EMpDwcFBsLWzg5WlFSzMLVCyWAkl9CdNmoQPB36oHEwEQqxqr8xdb2/VUPS8dQsXSUBt2bQJphbm6PPeezh19AiVKQupkehDedgEXbt2Rc3atfH38mXYtn0b8ji5IFcOV8qn3lSO+WEfiTlLapQ8CX2CXC65ULpUaTUkIzT4iRryUbV2TdSuWVOJOgszE/g9CcbePbtx/MRxun6iEo7GTro0CKgsN/bIZGKxzhyIWEsDnv9uxIgROHz4qJovbu2a1Rg8eBD69u+P+w/voUeP7ihYtCgGD/oYZUuXVmORlixegc4dO8Pezhbzfp2LkaNGoUuXzmjZtrUSfzyO646XB1o2a4kiBYsqsVapUjkcoVbnqE+HwtHZAXfueKJgkSL4ae5cFMhXALbWNujV/R281bYtatSogbo1GuLhg8f4bORIVKhYWXW38TgtIWMpQM+IhbklibB8BQqgfJkKqFWzKoYOG4YypUugbt1GKJg/L+23gBPlpVyuOWndBuXLV1DH3793D6PGjME7PXrCJWdOOr8MTEicd32nmxrfOGLEMDx8+IBEHIu8bI4miKVSeXm4EXf82BE0adgQew4cUM5SBQsWxJIlS3GU0gcNHoYK5coh+EkoTM1M8dfSP2Fja4+PP/lENTITzOLhec8T1atWpoZHOfR9ry/yueVTHvGmZuYwpwaICYky17yuyJc3H5YuWYzf/vgDW7ZsoW+3QhiJuFyuefDuO++q4SChoaFGL9jSpRuUfqP/HjpuWHhMrWD8iIPBfxAWHkbi6AFy53GDk5MTeMJfHvfBY4l4gKc1Vdgx0THKmYAno3d0dECP3j0xsN8AVKteDa65XFWXKrc+79N1uMDkCpi37ailyl0FfC0TUzPY2dkgXhVoJmpcE1+bFxPS1FHRkSpsCA/+5eP5sbGgjKDr8MB0Y6vIsrqDgZBxiIPBq8MV8NGjR+Ho4ICq1aqp8oK7OjmdvdBu3LhOjcLCqFenHpVv95UgW06/cUxsDFq2bIGChQqrOXE7duigznO/7a4aiy1o36mTJ1GzVk2EBAXDw+su3PLkwcYtG2FLjZF27drjxMnjqEbfqRxpqFwsXqyYKrd4ELUDTwJvpGSW0B36nm4qtYnchYxF5gY1AAnxiWo+yXLlysCVCrHsiog1QV+w4wWXEV04zpqItZdGeWKmsBbxtq64j4+Pg7m5hRJRnMafbPnidV38Pz5et5+9Sjmdr5UyXXcu7+dvYatbYmKCSuPjuDHKVjjdOcbWqExJdp0bNLWJ3N8EdnoLDw1Fi1attBThvxBvUANgZm6Kxk0bZ2uhJgh6hQWHkVf0xsjz4oi3WWDyYmVlrT55P6czLMa4W5/TeEm5X5fO6I5PeS4P6TCjhQ/RncefFirtn2sZM3x/er9HMz17g6YDLKSfh71+OYTQgQMHcP/+fdXTww5yB48cUfv4nKPUkD1/8SLOnD2LO3fu4Ahtc68PW8Jv3LqFYydOqHG5POb7Cp3LnslRUdEqXMzRY8cRFCSe7q+CiDVBEIwenRVHEDIVlGWNvZJNTaBy1/eePXtU1IFFCxfi4KFDKobkQ9peu3aNGtf4/Xff4ca161jwx+9q3+lTp3CQxJ25qTm87t7FlUsX8fv8+Wp87pLFi3HH3QMnjh/Hvj274UP7582bpxzzhJdDxJogCMYNizQRakI6ky4NArqecdsTUxdrHBOUww692727ElTXrl5DuzZt0L17D+TM6aIcRlycndG+fTvUqFoNjenYxo0aqRkRYJaE1q1aoVfv3sqilpCYiPIVK6JD5844ePgQbt9yx61bN1U4F47eL7wcRiHWeLwDm0o5A8iSNRbxMBL0BndPmUo3qJC+pEs3qL6D4qYDqXWDmpqZJXdxk3ZV8xhbWsCXhFVQUBCioqKUhy+HI+LfK4mOtdTGObLYZYc4n3v38PjRYzi7uMDcnLvdLel6JihapDBq1K2NJk2bYtjQ4cgloYleGqNwMPj+++9hR0qelzeF5+LijMSem4Lh2LxlC3Zs3y4OBsIbo7xBly1Fly7G5WDAU4I1a9ZMS0muqBiu7rn645YwV9QcZ4u3dTKAj3p+H2/rCmI5P2PP58YAc+LkSVSqVEl5HeuL/gMGYuJXE5THpT7IKG/QQ4cPq6nueCqqZZTXGzZqpBwwWMDx8e3atcMvc+di8JAhOHzwEMpXqqhiTN718kJuOm8blf88jrHNW28hV65c8HB3R4MGDfDA1xeb6DrszOKaO7cqq/m47E6m8QbliX85ynvOnDm11NeDX7ktW7cqr1KZ68ywDB06VHnwiVgT3hRjDd3B04I1aZIs1rjs4aKUC1O1nsYn8zr7XuYYHWfPnVXhhHje4tc5n3nRMS/ap+NFx7xon44XHfOifTpedMy/0jSxdvrcGVSvWlXvYm0SibXM5g0aFR2tvHg57BR7dto7OKjuUJ5RhUNUsTMK96A4aOnsSMK/J/eSsTMJl8NsseP4otzLwuKMw1AxHBQ8MioKOdnqRscK2TR0x5o1a9RkxTwNkGA4JHSHoC84dMdyDt3RrZuai9UYYLHGlZIxhu5YQxVwOFWg/fr101KEl2Hjpk3qs3OnTupTH/T/8EOMHz8exY1YrBUuXBj16tXTUgRDkGlCd6TLWAFBELIGPC6GF8O2KzMPYq14LZRlVN95LBNMN6ULvyIYN0bxlNLlJREEQRAEQcgCGIVYY2UvljVBENJCrO+vQBIPnRdeFZ5KkBe9kkm9QQXjwyjEGmeW5y1rPCCRxx/xopsAmAcv8sLwObxPt/1f8HEpMyUPenzZc4XMg1hosyBseU+ljBDSwFS6QV8HnhqLF72SmARj93WUbtDMgdE+pT//XIRRo0ZhJC2TJ0/G1WvXsXHDBhw/cVKJrH1792PaN9/A399fOyNtWJht27qVrnFNSwGOHz/+dC44IWsQERGhJp/mianTG55WhQNA8lQsPNWKkI6wtSOzVChU2T969BDe3l7w8fFGcHCgEpnsSMWedAx7z92/f0+FOkjejlTH65Z7lKf4+BBa+Fyex/Oh7wM6P0wdH0+N1xdaQ1LRG3ydR76PEEPfrSMqMhwhIUH/KYLDQ0PUtEHPoP2dWSkCvfqtNcOAPjH2JsZ/PX/BODDaEvDIkWOws3dE7169VKv659kzse/gfty6eQPnzp3DlKlfo17dWsrz87/g7pM8bm5wcnRU2+xyfPHyZRw9eVJtC5kbrrjOnDmD9957D9dJkDs6pW+gRS7cDhw6hAuUD11cXOCa2xXxmuUnPkUwYG6l8zZH8BbeAPodTeg3zCzdoJ999jnq1G6IOrXqoEaNWti2bSsW/fk79u/bj7jYWMz96SdqiI5GgmbZP336LOrVaUzn1KOlAd5q3RKL//wLC36fTw3NeKxeuw6fDh6CgMd+KiDpzDk/4uKli+rcVEn6d36LjonGqM9G4/btG1oKcOzkccyeOfc/exg2b9+pwiulDHQdS6KmX78BVE4fxPz5vyAy7r9F2+OHvpg8ZQqiNJFqbMTTs5k0eRKWLl2qpegBUxMV482YEbGWOTBasZaYFA8HOxvkyZMHJUqWRExCIhLjE3GJRNbIkSPRlyrmli3bKPf5/4Ir842bNuLI0aPo+/77aN6iuSow4yMjtSMEYyI8PALXSHTxxMG8vGh93959GDigP8Z++YVyZ2/bvh3MLdK3Ug958gTbt27FzFmzlIX2zKnTGPrpUHxNBf2HAz/EZbq3Bw8fqmCYAz4cgKlfTcRjPz/tbOGVIZGWWbxBWaCzFeqL8Z/jxq2b+ITyw+w5cxAYEIrAoEAsXLRINRInTZ4MBy1wN1vOTM0Tse/Qfhw/fRQ7du6GDZV9vv4BWETHz5s7F8NHjIQdHT906BAs+XMpoqNeII5SsUKam5mjaZPGsLNzxIUL57F48Z84ffIcvWtP6Hf9531hQbZz+3a4e3ggOjoKWzdvg0uOHChTujSuUb5e8ucibN6yiRq8YWjdpjX8/IOwbOlqnD58TAUJXrFsGf5e8Tce+T6kBtRZek82K6F3nEPgHNqLPxcuwuUrV3D50gUspvQdO3aoOHrGgJW1NcaMHoMHDx5gyJDBJLK3qTkwX2jF/C/EG1TQE2aTuY/RgLAZ/TIJsAoVKvwzgwEVeGvXraNC5SJuu7vjDi09e/aC99276gUqUKAACuYvgFq1asPU7NmMxgUGXydlxGh+2Q4ePKi6rDhu1ob1G5CQmIDYmDi89dZb2lGCPlm7di06d+6sgie+KqdPn8HcuT8rS8q9e/fUc+PPlOs+Pj6qUD13/jx27tyBUiVKIVcuV5XGVrYB/ftrV3sz+Lu8vLyeidtnQ4U6j5ds3qwZLK2sEEYV1/HjRzFs+EgUK1YUZ+n7uQB0sLfHuHFf4nHAI/j6PkbZMmW0KwivAv/WXEaULVtWBeE0Bi5duqSeMUe8TwkLypUrVyLQ34/EWTCOHj+GQgUKUZlki02bNmHz5k0kCEahcaPGTy2FXl6eWLJkOUyoQXr+3AWYm5siPCoGS0jMbCGxM3LkKPUuWVpaUuM1P+54eqggpgULFlTnP8/1a1eV5atq1apaCv2GsTH4etIUFCiUHwv++BOW1pZqSImrqwtatGhJjd7kcpTv/7f581XvhZOTI6ZMmaJ+8yvUMFq1aiUs6B48PO7QvhyYPWsG3Nzy0bO5hBo1a6r3MCIqEvv3H8Rj/0ck0I6rCcA5oOquXXtIMFrg9JnTKE3Cb8GiP5GTROCxY0cRR8+3YqXK6vsNCTcAuX7JQfflH+CvhDXHWHSn+ucoNfQP0d/yqsuRo4fxTvcecNbTjDpsWb1w4YLKd/p4F/hv5iC3aeUlIWPgeHccH/RFGK2kNqOWYMf2HfA1acmZs2ejWfNmSph9/NFH+HLCBGzZvg1Xbl7Vjn45ngSHwIoKGw4m6JLTJXmukUzQWs9uxFLFwuJ9wIAB+PDDD9XnwIED1aJb16V/9dUEbNiwCSVLlsLF82dRvlx55Mn95sGV/wv2GkvUKtvkuPUJVCnZq4jfVrSwwLC0tIIZVehmphkbGDgrwsIms3SDMmHhEQgKDFQzs3wxcTwJOxPVZd6nz3vYuXuPGorxFBNTEk/mqFitEipVroj81BhFQjxc87ji7be7K/H3+PFjJdbKVyDBqg3nSJPUyjRKMiMR6O3pRYLLFJ9+OlRZpE2SqAow+ed47qkYPOgjXCYxum7tejVRNw81saUGSpHCRUhsbsGjhw/h6GAHE3NrlCpeBKVLlkDLFi3g6JyDxM0hEgCX8fihH8zpeXFw7L7vvQ97e1vUocY1CzQTupmLF85jx86dSjCeOXtO+3bDwn87T4nUvXt3NCIxXbBAQdSqXRvvvvuuSnudZemSpchvJIGc00K6QTMHxinW6CW3s7VBzlwuan4yLuS40uM5P3k+sdrUimvTujXGjByjBnq/DGzhqV2vDqLjYjF2zFisXbMOFqzWMlEFkJ3gilkX0oU/U1t4n62NLQm78pgy5WsMHT4Ca1b9jWs3bmpXST/YWnCLWqXcbcSTGCcmmmHevHnYtHEDGjVtirKlSuHIsaOY8eOP2LdvO5o0aqSdKbwyVJlkNm/Q9u3bY9KkSfjkk0+QL1du1fjkljMP4QgOCqQGxnrlEMOW4MS4RDjaO+Ltrm+jd+8+qFGjJgkrSzRt3AQzZkxHLirzeDYQNZiffgMTXl5UbNG7kRrcw2Bla4/IyEj4kfhji3GiSbzqqktJiZJlkNMlJ3bv2on2HTqo94y7/vPnz4/ffp8PG3t77N23D0kJcUgkgUP/KqeI3du2YciQQXirXTvEk9jkkXDW9g50OyZKCHFXdiyPjzM1RylqXE36+mvV4KqYwgJoaLgL++e5c3HtyhV6n3/G1ClTULFiRWUNfJ2lTJkyr9W7kJFwWSoYP0b7lN57rx8aNmygbSVX3m+/846a744zP1tW2MoWFRmlHZE2fC4XgOXLl8es6T/C3skebdu/hbp0/bj/GFwrZB7YGvfNtz+gNAml9Ia7RStWqqQK42rVqqkKqWePHhg0eAhKliiBIsWKYczo0ahbpx5+/HE2crzhvLfZGlYmmaRC4bKmFFXSKR2fOI2tNDz3MXfVf/LRJzhz+gyOHD2mvN2TTJJQvXp1ajr+M7opd24XFChUSM2n+NX48fDze4z79x+qSa9LlCzx4i6wVEQtd3OWK18W1StXQdmy5TBz5kycOnUK+fMVRDAJMbYCcsOXF7YKd3+3O9q174BCdA/cQOZ3KiQ0VFmKqPmEmtRgrlKlCvK75UeBfAVw+PBhlCNRs2/vXkSGhSphmDNHTuSg+2SLYOGiheGWLw/K0W9jbWOFSnTsssWLcdv9NiqULZvqPWc07Ghx4+ZNfNCnD374YQZKliytnl1WRyxrmQOjLQEbNKiLUqX+eVlY/VenSrGUVhHzuAI2TxcoWEBtvwh+Cbds2YL5v87H0mVL4ePtg2vXr2InpQWHGMfgVkE/WFiYw5KW9IbnPG1Igo0dYHLTUq9ebTUhconixZ+2VHkey/r168Le3l5tC6/JU2uS8VecfI+ff/45mjdvrqVw96M53n77bdStW1eJ+qbNmuKrSZPgaG+HqiR4atWqhTlz5sDaNnmia6ZZs+YkmN5VFiluZI4fPwH58uVV+e6jjz5W3f5p8+/KNyQoGKXLlMUND3fkK1gQBYsUQR1q+AYFh6Bv7z7o3KErunTtiE6dOuG7H35ASFgYilKjYzMPsvfzg7m1DYqXLKmsayVLl8KDR4+UOHP38lTHxZE44+0ChQujWq3aKEGizCW3K9w9PbGLBJytnQPOXbyEhk2bIjoiCiWokVOA7oHL+KDg4GRBbmDYCNC1SxfUqM1jobO+SNPxIrHGPQeXLl2mOvT1Q/uy1ZUdNV4E34O3t7fROJsYI9nC/sndp7//Ph+LlyxWEzCr5a+l+OPPP5E7V/qGeRAylkTK0YZoJ44a9ZmIsvSCKnJ+ppnFApDb1fWZvMACztHJ8akDFVua8rq5oR6JpXHjxsHJyUkJ+5RilM/ndE5jwabGjdnaqIYAW+i4TEsTk3/7HwaHhuLOrds4fuggLp05hQd3PeF+9TIC/XxRoFhhlKlUUlncypcriwdUaZ46eoSOO40j+/bg/KkTuHzmJC6dPol7d+/C6/YtnDx0ALcuX8TpI4dw8+J53Lx0AdcunMN9Tw869hTuUGP4BqWfPXYER/bvw9VzZ3Dy4H7cvnYZFy6cpWuewuP7Prh14zounjv3Zh6X+oJ+a5Ns2CWYWjcoPw/upg8j0b5q9Qo1jpgtrrytC1IfGxurYgfqQr9wOm9zdz2LPN7PXe7hdA7HpOTz2UGC9/O7zEskbfM5HN4oIiqa9ker7+Y0PpaP4evzesrvzo5Qg9WwJSAHf1y2bJkaiOpKhdybsmbNGlWwpfTeEzIefp48zoYtAa8Ke2Cxx9Po0aO1lJcnOjIaffr2xtq167SUN4O9h/l+vvrqKy1FyGi4tb1s2VJ06dJVOQcZA9zgYxHVu3dvLcV4WLN6FcIjItGvXz8tRXgZNm7apD47d+qkPo2RwKAgLFy4UIUp0se7wF6IHDmBrb4pOXHiBA4eOAAXqpMvXrhIjdGR2Ll9K8KjYpXHe9s2bfDHgkWIio5AlSpVlYPJKsp39+8/UIGFW7RsiVMnT8KCGhXly7IXvAn2UTlauFAhep9DqYzug0D/AGzbtl3FHqxUpbLymC1QIL9yOOFA42YmpmjVvg0e3XuAs+fOc2tN1e0ffPCBGg6QlejYsSM2b96sbaVO9mtGCFmaJDPDWNaE9MWECu6UlifhRcgb8Dpw7pIclszZM2eVc0mHdu3gYG+HAyTc7BydSch2xP17Pnjo64sLFy+gfLlyyE+i0e+RH+64e6ix5PUbNMCT0ORxi926dEFQULA6/tatW+hEosSeruft5YUt27ahXv16JL7eV971jx89VrPPrPp7LfqRIGvYqCHWr1mHsLBwFC9aFEMGD1azELG1LjsiYk3IUnCsKlOq2IUsBHeZJCSoLhHhJUilG1T4b7gj1thnG0gPUusGjYiMUFEY2DHKwTGHCh2zauVK1W1/4cIlmJG4+nbaNISGhGH16jWIiomCqbmZCs1SpnhJ2FhZokjBgsiVKxe9vyZqzKmNnZ3atrdzQExsPELomnlcXdV35CtYAEmJSQiLjIapRSxy03G56PujQiNVuC1X2uYZiJI977PjU6LX2hi6QX/66Sc1iJbHaLwp7JXEQf6eD1YpZCwc3X/9unUZ3w0aHYXevfti3bo1WsqbId2ghkd1gy5fji6dO0s36EuwZvVKhEdESTfoK8JBixl2sjBWMqobdN36dcozmD16uUu0S5fOuHL1GorSsWHhYSoe3eyZs1CjVk1lJfvo409UPV6uTFkcOLRfBXGOCI9Cu/bt1CwVbA37688/MWjIEHi431Yx6Lh7lWfKsLO15WguJA7zqC7WBX8sQEO6/sNHvqhUvgIiY+NgZ2ONxo0aYcLEiRgzZozeggwbC5mmG5T1Ig8g5Af6pgsPYtQNbJTFcIuhWj/cXZaU9PqeS4Jxklm8QY0D+Z1eB7ZaiO02GZ7Vgj11ixcvrmIF8mxB9evVU6GuOPB4btfc+KB/Pzg6OKJHz14qlAzPzWxrb4+hQ4ejVs3aqFmrhrLacViaSpUrI3/Bgsry1qpVa+TJ44bmLVqofRzhoWfP91CzRg0VeJnjE7Lhpm6dOqjfsCGqV6mCcuXLc+GuwiM9nekom2EUlrUVK1Yopa1Mpm+IOBgYB4ZyMGCxzsFH169fr6W8GWJZMzzJDgbLqHXfRSxrLwGXgexNJ5a1VyO7WtaKFSuG2rVraynpA9fzE6gM/WXuXC1FSEmmsqwZWDMKgmC0iM3jlRDL8muRXXMZh9lIbzguqgi1N8NoRmJLF4cgCKnD84JSUSVlxEsiv5Pw8kjdmzkQy5ogCMYNlw88BlLKiJdDvKFfC5Ys2VG2iFjLHMhbLQiCccOVSTaMLP/aSDfoa5FdQ3dk11AYmQ0pAV8CHrTOA3YFQR+wtyx7Pz8PD6RPbTqVkNAniKU8mJ1hb1DpBn1Z5Hd6HbgyzI4VoljWMgci1l6CK1euYPfu3dqWILwZ9x88wP2HD7Stf7h18yZCQ0O1rX+4dv0aQrL5BMeqAzQTdIMmJiRg/vz5GD50KEaOGIkfpk+HfwBPq7MN586eVcM9zp09j6lTp8DX11edc+PGTYwcORojho1Qy5dfjsfOnTuxdcsWNfjbx9sb33zzDW7dvoXzFy5g3q+/4vz58+rcVEml8o2NjsbPv/yCu3fvainApUuXsH79BiRoczvqiIyIgO/Dhxky8NyYyK6WNRFrmYNsIda4gDxLBeXadetUoff/9s4CMKqja8NvsnFXEkhChCS4uxYr3mJVCu1Xpd6v7V/3UqGFovVCC8WKu7u7WyAGxBOIe3aT/5zJbgs08CGxzZ6H3u7euffOvdmdnXnnzMw5XEmxZWPd+vWYMGECDhw8qILF/jZtGhYsXKBciezfvw9Tv/9eVW5sCeE4Z1wJx1MlFkeNLVems2bNQnp6OpYuXYoff/wR0dHR6l5CzWcNNb7bd25TZYRDsYz/bjzWrFmtysfCRYvUOYeoXEVfvIDVa9diCZWRiRMnIOzcOeWF28bKGklXkjFjxgxMnzEd6ampsLKxUYGN11PH4A9KX71mjbLq2lvZwNxcg1PUafiCyu/SpUuUFc504N+UcfyuSqjhW7VqFaJjY5Rn9rXLluHNt97CPqo/IiIjSZidxUcffwhPz1oqeDuTSGVmxozfoTPTwdyaKmVzM5w5fVpdw3XK8y+8iMICLVKvpOLB4Q9gw9p1GDlyFCLOh6vr/0UZw1o6ao85lE9hQQ5yskmMkVA8H34eu/fshO6qz5brr2NUPz7y2GNIpTKZReUsJiZGuV7g4TJ+Zesvl0sug1w3Xrly+W/hacyYqmVNhkGNA5MRa8eOn0ByYiL69euHefPmKoF1NiwMXbt2xaaNG5UA27hxAxzt7bFv/wEcPngA7lTZbtm8WfVULTQa+Pn5Ke/Jl6mnvHnTJuX5mRvqRMqXnfv9+uuvqjITaj6HjhxBdOQF1eBuoPLTo0cP7Nq9S1lJDhzYq87hYMSpKZdxaP9+pCQnoUmTpvjuu+9w6vQpnD51Ct+O+Qquru5wtHPEiVOnVfSN6Mgo/PTTj6gfEqIabPYOvo3y3btnDxYsXoQBffqTsEtT55oOpDSMZDWo4Qk7t+9Aguox3DtoIC4nJikr1T4qB6+88gp69eqFxx9/XH8mYVYCGxLq9w+8H0PvfwBPPfkknJydcYLEOftKa9WyOf77xqtITEpU17OQr1cvCGfOntRncB1lfU7FJci4nIHLaZmqDH780cf4ddp0mFE7Tbf/m0ISYitXrkR8zCXVIX3r3XfxxZgxeP/993D8xHG89NJLSnBup/L30QcfYMH8+Xj8iVGYPGXKvyx0xobxdAnKF7GsGQcm05HgkBat2rRGq1atYGdrr4Ta4EH3o02bNvDy8kJOTg6cHR3Rvn0ntGjeDG3adVAhsHJzC2BhoUHrdu3Qp08fJdQ4QkLT5s1ViI4jhw4pZ4pTp05VgWpFrJkG7BCVHS83bdIE7dq2RfNmzeHh7knlJYcaxtKflY56rMXUUbClsscevTt37oyC/HwVA48tE6fOh1HnoQ/uu+8+1K8fyr0KdV1QcCA6UNmqXac2sjnmHuVz4eIFNAitT2W4JZq1aqmuNxn4czGy3j9bTDmo9bq16/Diiy+q8rJyxQrl1NTS0hJWVlb6M6mc0J/Hc2J/+vVn/PDjFOogblGWfrb4x8fEoIj+fntbO/Tu1RsDBg7AN+O+VaKwHdVVZVJG48sd1gsxF1Un4cy5s3j9jdfRn+oztgRefTZbfQdRvejj64fYmFgUFBbg088+Q506Pti0YbOysnFItxx63kuxsUhLT0doSAMVZNuc/kbB+BCxZhyYjFjjikSj/3PNzC1Ry9sTW7duQkJSEq6QwHJxcqKKy4oq1RLqXZmTQLNQ53LXs6iwSA2dHj1yFL6+vqqy1ehXp3Xo0kXFO/vhhx/wwgsv/D20IdRsuFmyoDLAFR03xApqEK2tLJF05bIKfHzi+Ak1ZMSCzULzz0+Ny5e1tQ08HZ2VlW35yhXYsX07FVI6h/I7d/q8ahTT09KpXLqQTrFQVt1T1NDysHvk+XDYkQA0Gbgx4c+GRZuR8PKrr6p5atvpe+3Ttw+VEXO8/e67mP7rr1iydJn6Lnn4iUUZN5UcdeXPmTPx17wFeOa5Z2FBYm7kYyOwePlKLF+6FBs3bVKxGp944gm6pgi/TpumOpllUlzGXDO6CRsn0zIyYU31n6+PL0Lq1dMf+6ex5vLs6uQMM6r/OJh3UECguo+bmxty8ksXWel0ZmoaCZ/LV9YLDlHl09gbfX564/4L7gwZBjUO/mlBajBcifjX9YWbp5vab9qsIUY9OhLF9NOc+N13aNemNbxIZHXo0BqWVtYICQ5SlRN7Xa5fvz68vb1Ri+efbFyPr8eOhYe7O4ICA1W+XTp2RHxcnIpnZkEiztraWt1DqNk0atoUtvb2cCKRzwKeY+A1aNQIDRo2wsA+/TFp0kQ0atxAhYRh65szlSXuALB1zde3Nnx8fTB+8vdYsWo1UhITMWDgQDSksuboYA8fvzqYM3cuAqih9KO8GzYIURZgHsL/9LNPqRHNRRfKx6RgoWYkYoA7c3a2tmpoUwkaemy2pLk7uyqLfJ/evdVcx4MH9+Pbb79FHn2f6ly9RZbRkKR3ItHUuFEDvEsibx6Vh+/pGrbMelL9M2f2bJw5e0Z/9nWYlWHhoo+POwihQUEo1BVixsw/MOPPP1WZvL6xtrKzQRGJMXc3D+zatQu///47Dh46hC4dOqmyvnjxQjX8yflpLDX09+o7tkYOdwWMpztQfnDdJVR/qkVsUI77x7EkPT099al3jsQGrR5IbNA7IzY2FlOn/oBvvvlanyL8HRt02DDUqSaW6xvFBuXqdNu2bcrSFBwcrNJYDLEljYNT+/v7IzExAUcOH4GjswvmzpmLN974r5oHNnDAAGj0Fv2IiEhl2WKhz0OO+/fvR35hEdIz0kvdmBDtO3ZAcJDeOnYVCxcsQHZOzjWxQXnO3M6du6hDEIpLMbE4cvwYapHoM6f7XU5ORkFhobLIFReXoFv3noiKOI96oSFIiE9A2PnzygrX/Z7uiIqOUsKNOxWuVM/W8aylhHSDhg31dzJeTDU2aGBgIDp06KBPEaqCW4kNKmJNqBBErN0ZPM+tIDcXdg4O+hQhgwTK7NmzMHTo8BoVyD0+Jg6pGWlo1KhRuVo3Fs6fh+zc/GvE2s6dO/Hcc8/h8uVU0lZaqvg1KLEohq4AyCvKhk6roTReIFACKzsH2FjR85SYU5oZvWhhXgxoiy1goWHxWQhzaMCDreZmtE9buzbtsWrVin+mBBghS/VibaiJiTXuQHTqdIP5j3cAD/3zNJCHHnpInyL8L4wmkLsgCKXwXEgRatdDaoCH9oxkGPRWqePngyZNmpT/MFQZw6Dt27XD1u3bcOzEYZw+eRKnTh3FqaMn1IrS6PBIXIw+h0uXonHxYjTOh53G6WMncOL4UZzk8+j98RMncOrMMRw7eRgnTp6m9OM4efqkSj95/AR+m/7b3/N4jRV+elNsEMsqf7yqfdOmTVi+bLly4XIpJgZ79uxRq9B52s/atWuVayH2hMDD+OwVYemyZQg/fx6hoaFq2ga7neGVxbyqmF0aVbFdyOgxxbIpCIKxIRX9XWFlbQ3vWl7wqe0Lr9p1aPOBd506akFU7To+qFPHF97evE/vvWvDi47xClBO86ZXdQ6l1/H2VRYdvl7tq/PqwJc2YxfTXMKklJWyc8d25WM0IyMTixcvUp4O1pI448VS69ZvUMPs7KqFfUKuI1F3/OhRWFtZYf+BAwgLC8M6Sl+6ZImav8kOvTdu3KQW6gl3jog1QRCMAxFst0aJrO4Tbp2yVoPa2dujbdu2GHTfIERHX4ClRqN8kvIcSnb2vW7VKixfthRHDh/G9q1b0HfQIPTv3x8PPvggdAUFatGUg4Mjevbsie7duqGgIA+FRYX63IU7QcSaIAhCTcLIhyOFyqWsYVBecX7x4kUcPXoYdf39ldXUTO/toHHjRhh0/2A88uhIPPTQI6jfoD5OHj6KEydOKGfz7PbF3slJzceMjorC+fBwWFpaKSubcOfIAgOhQpAFBkJ5watB2VXFkGq2GpRXaHZs3xHsmdHA1e8rE4NrW349cGg/8gsK0a1z17+fp6qeq7pz9ed27MRxdOnaBUNMbIEBR+JhB+9Xw6EV0+heDo4OeOCBB5V/R11RERo1aaJ8Q7J1jVcQt2jWHMH16mHBwkUw15irSD62NjaqXWeHy+fOnIGGRFqnzp1RP7R+TZt2Wm7IalChyhCxJpQXpatBZ2PoUBJr5dBAlQexCfGIigiHlaWF8tfIftF4LaU5vdeVcAo7TC6m9+awNCtBEdWyFtRQaam61ZiZo4TOoXf0vpjSzPTnlNA55je83pKu53OuvV5H15vDis5RqzPpSo6wUkznWFtq6Nl43SblQ8c0xUCxOa/wLKEN0JnTXYpLq//i695r6D09lmpwOYIGv177nu6lK1HnMnztNe81JH8oO74Xp//z/vbuX0z30vyv+1/9nrjm/tc/C59CO2b0mXHe5vw5qoP0DVIe7G7Fi9qP6kplrQadM2eO8jHatGlTZU1j1y8sFdgvH7/m5+er4VP2J2hG3yk7/+aN/QXyvLYSOsbnsvNkttxxunBjRKwJVYaINaG8UH7WqPEYOmRItRFrglAVVJafNY5r7OLiAnd3d32KUJGI6w5BEGoEbBWRMRRBKH/KstfUq1dPhFo1Q8SaIAjVHtWcVO0ggCDUSKp4cE24RUSsCYIgCIKJUu5OmYUKQb4lQRCqPWoAVIZBBaHcEcuacWCSYm3Dhg04dOgQThw/rk+5fXjF1dy5c6HV8howwVjghQdLFi9Wq5uYgwcPYv68eWolU3nCq6U47+ycbH3Kv+GVUqtXr5bK8n/CjifoM5LPSRAEE8VkxBovM+bGsYAa0b37D8I/IAANGzVCEYkublgLqbFW5+TmqhWFDC8/5mtyKY0bVN5ycnKQT2mWFha4b+BAWJibK+HG6fzKqPtQHpxmEAVC9YBj2K1bsxZp6elqf+36DThw5Mhtf08ccJ2/X/6uDd87f+cZOVnIp1d+f/bsWSpP7Lm7SJ3LfolYbvBxvs7Cygo9evRQS925jGXkZqkQLsL1mNF/MgggCBWBDIMaB5pPCf37KoGFEns+5oDG9vb2+tQ758yZMyofdvRngEXY+nXrMO3331UDGp8Qy652VHDa6AsXMH7ct/B098DGTZuwePFiFayW/cecOnMas/6cjR3btyM1LRVHDh3CkqUrsGPnNlhbWWPqDz+iafNmmDHjD6xdu04FunV3c8MXX36JC5GRWLBoEbTUQDdo2FD/JKbDrFmz4EafBXvBjoqKuq3t6LFjMDMz+5fvn1uBRRd/hw8//LA+5VrWb9wAv7p1UcvTE44ODli/fi18atdWoVUsyvCwHcNlJDr6GlcwXJ44OPGfM2Zi34F9qvy2aNECkydOxNbNW7B44UK0btcWsZdi4OHhQenfYceuXdi5YxuaNmmK2bNnYfny5Qio60+f00xYW9pg2h+/YdPaDYhLSEDjxo2VjyKhFBa+J+kz5s6Vo6OjPlUQTA/u5LFbo2bNmpXLb+HUqVNwdnaGn5+fPkWoCtiFCrucuhkmIal5qPIMibSXXnwRr77yCny8fZQ1RFk3NBr06tlLOf+bM3euEo3sJX0WNajnws7hmWeexaeffoJatTwRn5iIMWM+xZtv/B98qXCnpl9GfFw8PEjojRkzBv379VOFX0M9leEPPIDnR49GSnKK/ilMCxY0bC26nY1DnPB3wh6x+bOsCCzMNfAioZaYkEhC6wA4WDV73r6dAbb8gnzs3r0LH378MUY/9zwJeztldfX29UNog4aIT0qispGhHHceOnwUYeERJOZaIiXlihoatbO1xyOPPAovb29kZeXCxtYaIUGhqEvijQWewVIn/AN/PzJcLAiCqWIy9k8dNYAsINjbci41tjqq+DVmZso7s7OLi7Kq2Oi9M7u4uqJ39950VQnMzc3UMBUHs+WPS0Pijp10JicnkwqkpGJq6HmUhvLSFZvBnPLgGGj2Dg7qXK2JWpjZujlo0CAMHjz4ljcO88LOAYcOHYpGjRvrcyp/eAg86mI0Vq5YgfYdO1CZ0FDqrU9eN6MvPD8vH9bsvZ7KVHFJMZWPCISdPothw4agrq8vUKSDRomLYjg5OKrh9/bt2ytv4bZ2tsrhJJePIm0hNm5ci46dOqigya7urqU3Ea5FFhcIQoUgw6DGgUl8SyyeWrZti9//+ANTJk+GjZUVHEhM2ZBQs6b3tnZ2an/kE0/gUkwszkWEw8PbEw3qN1DXjB07VlnbPKgh/eLrrzB33jxqOyzhXdsLtet643JyCr6d8B02bVqL9u3aKWeCLApZCLqWw9CuUH640XdT29sb2oJCNdTtW9sHTk6OtzUlytbWRg3RfjLmM0yb9hsS4hKo/DjjypUktW9ja4Uz58JgS2Xqnq5dVdlJTkrE+fMRKkoHD1/wMCcLfHdXd7i5eWHeX/OxnMTjxQsx1BnI1N9JUJDoVSGKRLAJQrkj86qNA5MJN6WlAnkpOpoaZicU0z4PVXJv3YqEnK64BC4uztBqixAVGQmNhaXy4KzTaREVdQEajTmCAgNVHmFhYXChPGr7+ODChQsI9PdHTl4eIiPD4V83AK76eVp16DhPFs/MykQtz+oba66iuJtwU3cDz2+6WbgpnqfoQYItOzsbxcU6uLq6qTLIZaasHmZZ4ab4J7N+wwYkJyegKE8LjbUVHhvxKFKSL1OZKVKW2lQOgkxijeeDcGV4Pjwc3l61qIzXUvdjyyNb1hITE+FJ9z5H5ap2ndooyC9QZcieOhBCKSrc1OxZ1So2qCBUBZUVyF2oXCTc1FXw3LSg4GB4UMPIDbO7h4eygDmS8GKhps4hkRZav4ESaoxGY4GQkGAEBQUpYcfWEJ7T5lu3rmpo+Twe9mRLSYsWrVQjy/BQF68W5eC1pijUqjN1/fxgR0KIy4C3d21l/fT29r6toQC28HA5yMnMQREJsV7de6jvu45PbbV4gTsEXAHy4gK26nI5aNa0Kd3TS13LCy/4vlyefH19lXWXJwx7eniqfRFqZSFWNUGoCMRibRyYjFgThPLE18cHL7z0Ep5/YTT8/P2UmBcqDm5QpFERhPKH591eD488JMTHIzY2Vi3QY9dDvAiMRxWyMjNVGo8K8Mbn8KKomX/+iRUrlqtzeE43jzDl5eXqc7wW9mvJ18XTPTgvzjspKYmuuaAs6ZwHj0CwdwB+5efhZ+D09PR0dQ2PovBqfb6O0/mcyykpKgh9ZlYWws6cwf33D8bly5fVNXF0L37OpKRkNSrG9zQmTGYYVKhcqusw6O1S1jCoULmoYdBZszB0mAyDVgXsQDyLGj+h6uHvgV1EvfrqqxU6DPrXX38hPi4OBYVaOtZeCTpLK0u0bdMWa1avQadOHdVq+A7t2uMCCSxeILZy5Sq4urni/kGDsIDaYRdnZyWIXqFntbKy0udcKg4XLliIhKRENR+V78319qpVqxAUFEgCLRovvvAC1qxdCwuNOfLyC1DLy0vpg25du2LOnDno3bs3du7ciSQShewrtWfPnkoc8jSX0vnAJQgKCMLnX4zBxx9+hJOnTsGJnqdt69bYtn077BwckE/i73m6D4+0VDW3MgwqYk2oEESsCeWFEmtUQQ8dMkTEWhXA86OaNG0KzVUNrlD5WJiZKfETExuLj6k+Ki+xFhgYiA4dOuhTSpkxYwYaNGigRNJMet+uXTtYWlopsbRg4QL06t0Lb731NsaPG6f8vrGVjKdw8BzdDevWoXffviTs2uCDDz9ULrMMU4sYns/70ksv4fW33sKV5BSEnT2LJk0a4/z583jq6afx2IgRqv1gp/TcQYuMisL+gwfh6eamRNovv/yC7t2748svv8Q7776L+IQEEorL0K3LPWquOK+6/+abb/HAg8Pw3dhv8dGnnyq/mOx7c8Xy5WjYsAFatmqNCRMmYODAgWjevLn+yaoOEWtClSFiTSgvMtLTMYfqiKHDh6N27dr6VKGy+M+TT+KHH36QuZTVgIpYYMBzrK93QD5j5kzlnNubxNqfJNaat2ip/FF26dJFDXeye6WPP/4QUyZPVb4jz50LQ0BAoJqvO2vWXIx+/hk0atgQ/0eC7s033lD3MJCUnIiHH3oYjRo0VG6xmpFYCg0NVcOuox5/HCNGjESfe3vB3tERw0mshYeHY/+B/XCwscW9/fphypQp6N+/P154/nm0aNVKLfxrVL8B/Oge9eoFoQXl9/XXYzFs6P0YO3Y8Ph/zGfbv348h1Nn79bdp6NK5M5o1a4ovvvgCw6lO4fnHVY0sMBAEwfgxM0MJb1XbrzRZeKagzBasJvBvoJx/B2XNBc3JzsbGjRswd848dO/RQy2cOnDwAJYuXYbUK1eUNwUnOyd1LntUsLa2VQulEhIS8OyzT2HlypWYM2c26njVVq6LrsbD3RMjRz6Bdh06onXbtmjVsqUaJrUhMcY4u9ijcdOmuHTpkoqEs2bVGhJ7ATh09CiWL1uqLHO8OPDpZ59Bh/bt0Iau79C5I93fUi3oYrhjYW1rCwsLDeLi4tSCLv4727dri/Ub1qmhVMMiQWNBLGtChSCWNaG8KHXdMVv15mUYtPJ5Um9Zqw5ze0ydirCslTUMyiKJHXeHhtRHSGiwmmfGw5HaoiK1mp1XurMI4jBVPDSbl5dPYssKGekZKi0iMorSc1RUltOnT6kJ/gyvum/cqBE8vbwQERFOnQAzdX92b8SLDliERUVHwdfHVy1S4I3zc3V1VWH/eH6ag6OjWsFfpNUiMiICGhJkISGhyM7KUivvuc1JSEikZ6S8oqKVtwcWg5wHW+Eu6hcX8Fw9tgRWB8SyJghCjUBWgwpCxVDWalD2A8kuq+o3CFUCiyft1w8NVUOjPBWBLVgsdtg6xa6rOByjk5OzssCxJTw4uJ5yR8RCqV3btujVq5faevTooeaV2ZKo4jjJhpjgLJpYqDFBgUFKXPEcuFatWikjDt8/JCRERbapS/fg42w943s0btRYWfdYRHKHguuJOnVqq3MaNKivhB0f43R2sRQcHKyuqy5C7VYRsSYIQrWHJxvLMGjVwJ+7fPY1l7J8TA4bNkwJs/LAUg1x2vy9sfASbh8Ra4IgVH9uw2mxIAhCTUNqQEEQqjclJTArLpZh0CqCP3f57GsuZQ2DCtUPEWuCIFRvSCjIatCqgz93adBrLrcTak+oOkz+W+LVg7wU+PqGgPc5nVejCDUHXg6ekJj49/fNq5HZoWN5CwFe3cTlh1+vRpUrumdhUZE+5e7gECwcZkUQKgq2qkmDLghVi8n8Avfu3auc910PN9Rr161Ty4avJj8/Xy1r5hAWQs1hytSp+PSTT5Cfl6f2Fy1ciLFfj1WivTxhEbV+/XolBq+GY9qtp/LGMezKg4iICFWuy1tsVjdkKK7q4LIllrWai3y3xoFJiDVuIJcvX678mBhE2OTJk5UPLT7GG/tomTd3HiZMnqRir124dBGbN29WTv4O7N+v0tlvGDsE3HfgAGbP+hNfffONimfGPmQWLl6Mb74Zi7Vr1yJPLwSE6gf7Carl6YmY2DjoirQ4HxGJOn4+tyV2+NwNGzZgCZWpyVMmIfz8eZW2ctVKfDv+W8ycNQuFJP60xVS2dFrl8+3b8eMxZ+4sZWnLzMzA/AV/KU/cSSTaNm/ZgnUk7LjTwJ2KcePG4edfflbBhq+H/Qyxw8lvx4/D0qVLVCdDV1KsAiL/+NOPGPfddzhx6iRmzZqpwrCkpqbhtz+m4fLlFCxdthRff/UVtm3fqn4HRgN9trIatOoQy1rNRr5b48AkviX2BcP+Wtq0aYuNmzZRw5aAPn36YO7cubiSekWds4yEXHJSMu7t1Rt/kZiztbZG+3btlI+Xn3/5BX179oKdvT1+/PFHxF68qIaeHho+nBroVVizejVyc3IwbPgwHD9+nBrZaJWnUD1hvzsswqMvRsPKUgM79px9m0abLVu3wtbSCg3qN8RuElgsmrKzc9ChXQcsX7IUCVSWQB3WgvwCZV1rR2Vv0cLFyMzIRJGuGK1atIabqyuWkpCLighHIj1Pw/r1VaBmDv3CYmrHju3/Eijn6VwuY4Pvux/h9D4nO5fuU4LExET41/WHq5MzVi5fBidnVxw7dgx7du+CrZUtDh88TB2NVDz04IM4fz5COZg0GtiiJg1KlcFlUIRyzUW+W+PAJGpA7hmy92JnZydspwbwr/nz8eabb6pGTw1TUWE9euQYFixagHfefhuHDh1Qkf5dXV2QX1AIF3d3Ff6CBV/Y2dOwtrNF/QYNlXM9ewcHRFHD16F9ewTXC4G7hwc1uDKHqLrCvUjvOnUQFxdLInstWpOIYjHA/24HC0tLtG3XVsW0K2FrWXo6Dh09gqjICDg52Cnxxj8uFvFHjx9BTEwM3VujLGseLi5o0LABOnbpokSapZU17uneHW5UzsLOnaOyeBRO1DEoa3QiLjZOOaWsT8Ju1MjHYW1jCTO6EQ+HHqXyrC3WqeuaNmmCpKQkbNqyBX379kHkhShlGX751VeVZY5FodFAv08z3mQYtEqQz71mI2LNODCZ7io30tls/bp/CP7znycwfvw4vPziy8pLshk1bj16dsN/RjyJb8eNw+tv/B+8atVCCTfsXrWQGBdHAu4Q1q/diPuHDqdm3Zz+aVS+1hYaFaR206ZNOHXiBDLSUlW4K6F6wg1PXT9fRERG4giJK/bKbX6bjRGfXVxYiF0k/I8dPQpn6ggkpVxGSVEhWrZqjVydFumpaSimEyOiIuHo6ELiqbGaG5J8OQXxJKKO0nVrV61AazqfsdBokJqWjtzcPHS7pxvyirQkqDL/tUCBRVpkVDSVx8N47b//RX5uPkq0Zti5bRc6dmyvOiU8VO/s7IzE+Hh40r6nhycaN26Cl195BZMmTcLrdF1gUJA+RyOAvh9uTqRREYTyR4ZBjQOT+ZY4YKs5NYgdO3VEAImrlatXwZcabZ86PmjWqjkGDLoP3nVrYe26tajj7Q0HBwe0btFSiblPPvlEzW+rXccTw4cORUhwEOoG+Kl8u/foiYEDBqAu5bl+wwZ07XaPimUmVE969bpXhSvp1bMnHh0xArXpu27bps1tedVmg5eZpSWKtDpkZmTgnm7dEBraAG1bt8fpU6fwKnUCOC5e08ZN0aVTZ4QGB+MUpT///POIJeHfpXNntSLVg0R93359VegTFlc+dWqTeGuJ7dt3UF6tVTm6FHMJcSS6eE4az0Hzo/LYq2cP7Ny9Ex++9x4aNGqIwHr+ePWNV3H6+AnUImEWWj8UGnMNOnTqhAcfeUQ9c6cOHVV4FR525ZWoTo6OKt14EKFWVYhIrtnI92scSCB3oUKoyYHc+Sfzyaef4vWXX4ZrOZTZG8ELV6KiIkgUsjVPCwtLazQnYcdzME0JDuQ+Z84cFcidh4CFykUCuVcfKiKQO48M8TxZoeqQQO6CUAHwUOpnJNYqUqgxLi4uaNWqDdq3a4N27TqgVcuWJifUFCSOZTVo1cGfu7h3qN7wfNWguoFo1KgRQhvWp/rpE3wzdqwyhvD81M8+/wwL58/Xn30tZQ2DspeDkydPqu+e59+yZ4Tly5bpj14Ll43CwsK/f5/sXYGnb/DGx/h6QxnijY8bfsmG8xjDMQOcrtX+41LLkBe/miIi1gThDpBJ15UIf9Yyr6bK4LIu85qqNzzn9e0P3sbpU6dx/uw5vPPueygmgcTW+Zl/zkSjho0weOhQ/dnXUlYniBdO8UjXzp07MXfOHBw4eFC5DbqevNxcrFu/TnlW2LZ9u/KS8ONPP2H16tXKascujvjYCRJ++/ftU9Yj3o+MCFfnskutlZSWmZmJZSuWY+68udhH5125cgXL6Nic2XMRfeGCOpddD82ZMxdbt2wpd7+YxoD8AgVBqN5QYyKrQasOsaxVf9gKNfP3GXj4kUfUFhFOYignG59/NgYHDxxU04KsrKz0Z/9vTpw4gcOHD6sh1xYtWsDe1k6FfLuePSSsoqOi0aZNG0RFRiEyMhJ//P473N3dce7ceaSRWGTRd3D/fmzetk09F/u5nDlzlvJHumfvXnjQ/q5dexFz4SKaN2uOP//8U/mbvBAdjaDgYISHhSEhIQnF2kIlIvfu268WUZkaItYE4Saw2T2Xeo9CFUKNhMQGrTrEslb90dD385+nnsL8+X9h/l9/ITgkBDqtDi888xx69eiBTZs3/T3ceD1lfbf8W2NfjOyeqjmJtbbt28Laxlp/tBQW8FEkzthH6eeff4HFixYhiRdOeXgoN1c+vnXQqnlLBAUFobCgSK2gb9uuHTp26oTExASVR3BgAFq3bo1NW9Zh+YqV+PLLr3Fw72G4ubnBwd4ec+fMhqWtFSysLHHmXATWr1+Ni5cuougGf0tNRn6BgnATeJXojSo5oRIpEctOVcENtwjl6g0bPq+3fvIK86AGwejdpx/Cws7hbNhZZaW+njKtpnQae01g6xiHs9u3b79y8H01LPKC69XDfQMG4Kmnn8Rzzz+Hho0akbi/VlYoi7iGOlsaczXEuW3bNjSs31AdKyYJwk/Uu8e96NOvL/7z5BN49f9eUvWuV506eOihh7Bp/Wbs27MHAb5+6Nd/kPKXyv4rTQ0Ra4JwE2T4p3rADYAMgwpC2bAHhBbNm+v3SjuZ7dq3Vyt4a9f2wsD+/ZGckqQ/+r+p36CBsqg99+JohIeHIygwEMGhofqj/8D3aNS0qbKoWVlaKfdAw4c/oO7fonkLuLm7KStZixbNYUXizsLaBvkFBXhkxCPq2Vq2bK7m2/Xs1RONSehxzORant5KKJZotYiLjcWIx0aga9euMLe0UHPZOnbsdNtOzGsC4rpDqBBqiusOnmDLk2DHjx+vTxEqm4z0dFVHDB02rFzcFQi3h7juqD7czHUHN+VXd2i4o2kY4jRYR68f8uRFADxM2Z5E19UYZAHnx/nwa3xMDNasX//3Ma7b77vvPmXBM9zLcD6//+d5+N7AOKpDO7RpjS73dL/muQzPzO+vz4cxnGvYN5xveK0JiOsOQbhLuEIwSXcZ1QmulPUVtlD5GBpRoXpzvXgxiByGj129fzVlfbd8viE/g3jyqVsXzz77LJ577jm1jRo1SrkX4mNcR159PmPYp3fq/WASJI2aNP3XcxkoK5+rzzXs8/GrrzMVyv72BEFQcEMlc9aqHl4NSjW0fk+oTLhhvLrRFIQ7gUPl8cpP4c6QX6Ag3ASxKFQP1MALCzah0hHLWs3GFK1UxoiINUG4CWyWv524oUJFwCJNhFpVIZa1mo0IceNAFhgIFYIsMBDKC0Ns0CFDh6KOxAatdP7zn/+oBQb29vb6FKGq4AUGP/30E/r16wdvLy+VxtM0uFNZotzbmLG6pr6Njl41V71edaz0nXq7ZOky+Neti+bNm5MgN0NxCQlzMw7txuKcJ/+XUJo5pbF1tXSBQqlk4I3dblDa9efwsxTz1JHSuWUsBq/NW/8c9Ex0B0or65wb358jM5j9z/uXCtCy7l9cTM9F+xV3f0qn1xvdnz8XtdEx9Rh06rPPPYe1a9aoa26EiLVK4MyZM2rlDk/GvBksNGJjY+Hn53db3qarI9VNrB05fATff/89MrMy1f5DDz0MBwd7eHt7Kw/d7P/n4IHDeOHF0dd89tu3b8fKlSv/JdYWL12Krp07q7LGFBYVYR6V45GPP16lCxK0Wi2OHDmCpk2bqr+Jl9+7ubrqjxonshq0auHVoPzbEbFW9XDYJV4NGnMxBuYWJBD04qlUEJS+B4sCqoKKdSXQ0DlabbFymltM4kTJBL2A4BED7ghZWFjC1s6Wzi/Ng49pLDRqn/Nj8aG0CV3MeSo3aixK+Bx6ZWFkEEhmfD1dR7dQGISLej69iONXPkepFDrfcK7h/vl5ebC1t/v7/jp67mK6ztrKWn9/fhA6t8z709/G59zF/f/191Oagm97t/cnYc2fUamwpiw5L8qY7/HVV1+ptBthMmItlXokHCeNj3FPJCk5GXYkJLyod8IFlkNzsMdnXxJKxXQ8ISFBLVXnCiqZzuUPszb16vnDYt8vNjY2quHgvBITE5FTkA9fL2/6RM1UnLP8/HzVaHPYjXc/+ADDhwxGmzZtVV78kfN9+YtMTkpWX6QV5ceTqKdP/x2PjXwMvj4+iI+PV/f19fU1uqG46ibWOEYdV3SDBw9W+9yb+vmXX9R3WKuWF378+QdMnjgBbm7XlsFdu3apoMZjx47Vp5Ry+fJlJb5z8/PU929taYUpU6bi62++hhVVfgb4u05MSkIWiURXEk0ebu5IoH0WjW4utO/hgQwqLymUZk1lwJPKZ3ZWFooKi1BQWIA6VA6sLC3V/Th0iyvd04Xy4f38vHx4eLrT+dmqzDnTMS5L/33tNUyYMAGODg5IofMCAwOho3T2UcS98aSUZBJAGcpDOP/9f1dG1RT+fc6eMwdDhwwRsVYFiFgTKovTp0/jSxItf5Ag/ezzz/Hhhx+qOjgpKQGPPTaq2tdVFYnmU0L/vkpgUcNxyJo0aVIulQFbsTifgIAAfUppg8mNN/sxCa1fH/MXzEf4+XDs378flhZWWE7p0dGROHz4iHqe3Nx8fDbmE7i7edA5+3D8+EmcOnUKOTk5SCIBNZ8EYVR0NBpQXpy+ePFiJMXG4cDhQ6yR8eu0aSrA7datW6jBdMSalatJ6HkjITFJBbM9duwYCcc05FFD/+UXXyrBN2MmB9ttgDVr1qJJo0ZYu26dOu8kfTbJJGgbNWig/2uMg0WLFmEINa6WJDQqE/4s+ft4+OGH9SmlREREYMeOnUgkEX4+/DzcSCSdCwvDoUOHVDn4jH4GtWv/WwhcuHABZ8+eRZ8+ffQppfz222+oW7culi9bjqNHjiA2JgaxcbEY0K+/6kEZiImJxdTJk6lzkIQ9e3ajrp8/ZpKIjY9PwMpVK+FL4mPN2rXK8SR/33lU/hZQ+YqlnvO+/XtV54BF1YwZf+DixYvYsX276tT8MWMGEuITSRhqsIXSIunv27ptG5U3e6xcuUrF0OOyOX/BAiXQsjIzsHnzFjSisjWHOkfRdP5fixaiXZs2cHR0LH3YagoLcK4j2Dt6dX/WmsiyZcswYMAAo7f2C9UfNqZwvFAWZdzGdurYEdNIuA0bOgzuVGebMiYjU9lKdt9996uGa9u27cqqxlaIrTs2w9rGkgrDcBXaIi4uDtriEjRt2ETFMNu9e6+yDmk05tR47oOXjw902iLlCNCaKq8dO3Ygh4SZLTWoJ0+eUlaWev7+qjfavGlzaGys0KFjB7Rq3UY1zFaUV05uHjXWSUAxUJ8a1dGjR8PBwZaeyRrdunVVljS2NvIz2tpYYzE1uDy8JdwdPnV8qMFvqISMoWPAsT/r+NRG+Llzav96bmR4ziPhXkgiguPnPT/6eYx47DHlvbtEmbX/Yefe3WjWrBlefvllPD7qCRw7fhwNmzel/ZeUx/G169fDnsrm6Oefp/I5CLGXLqpQKgMGDsDgwUNwISoal0gIniVhyc/M1jUe5vSkiuu5555BUL1guJKAYaN6ApUpTw83hISGoFvXrupvGz7sAazbsA7nqXPStFkTVQmyUOVYmwlx8UjPyCh9UGPgBt+FULHIAgOhMnn97Texbes2ZGdnYcXKlarNDgwK0h81XUzmF2gYl7extFHhL3jIqEFofXTtcA+KCnXIJ8HFIsqSzjOHTokxHup0dXSAu7ubGo7q3rU7Cum81199TY1DHzp8GE7UUPLQlL2DAwb070+NpTvsnBxUBcezBzUlZpRbCfLy8jB33jw8OGQIhg8dSg1vqTdwS1sbVRFawRZFJeYoNisd765Fz+hKW606tfEfauSlsrw7+PvwD/RHu3bt0bJlKziTsGL603f28ksvY/KPP+Ji9EWVdjU8/FzWEHQxfR8aSmfBn5WdjYy0LOTlZqOE50JchYOlFVJJEOXm5GIXCXtzMw0KsnNQkJ+PWBJ6Hu7uqmwU0JZN6TwPokRrjty8LGRkZMLe0R7WVCbdqSywValT27Zo0LQpbEjIW1ta4tSJU9QBsMOzzzyNoMC6KGJNT5qGJ8EyjRo1QErCZcRSJ8TP10/NiYyKiFCdCZ5YzJbI6g//LSLUqgrusHA5F4TKwIfDTQX4Y8eOPZj+0y945rnnqnQecHXBZBSAq6uzmlBubWetRNWFC9E4fz4Czh6lQWF5aHPt2tVo37EdnOlcd09PNfx039BhuHDxAqKiotWETq2uBD/99psaTuMwHX379VONOVtYeN6QKzW+Hq6l5lqe08SCr1FoKGLj49X50//4A/sP7EfqlRRYWlnBh+e5ET7+deBCDbONhTXSqZF+8dVXcfHSRYSfC4e1g62aYyXcOWz1cna4dgiNTe4cFJhf3379TcxbMFcJp6thMVOWVdPbqxZsrK1VzLrp06Zh+aplJAaD/iWqe/fti+SEREyePBn5RUXo0fMeEkxxmET75iS4hg8frkTYjyQWt2/dinZt2sPKzgzLV6zCvr170bZ1WwQF10ODBo0RFRmNqNgYeFK58uL5nXQvDy9PnDl9Cn/8MQNWVpZqeN0/IAAnjh9X8yW5/HXr2Q02dIwXU/C9eO7ezJkz4UtiLTIywggaYir7PKtZfgNVgljWhMqEy1unLp2hMdfh/uFD4W7kC6TKC5NZYJBNgowDxnLjVVhYiMSkBNja2JKAc8Tvv/+Bnj26qzFxfgYePuL5aTwhnD+epKRkSitUjZ2FxoKuTVRzsbgxZAyLF3hxAq8IYasJW+6ysrLUedzE8HATCwZeuOBNAo2HTu1JPPLKF7b0XU5OIZFYeg33IrhR5YnpfH8fdldgZA1VdVtgwJYtnmTv6OigTymduM7WMRblbClNSIiDZy2va+bZ8TA3z3W8fjVoauoV+j6d1fuUlBQlzONi4xF9MZK+/0KVztbW9u3aUUNnRudcVuXSmgQef8epqWlqHiPPA+LyxsPvDnQ+l7mPPvpIuUvgVZxuVMa4ocyl8pKUmEz7rqpsZFIeLvqYfLxoxdraivKyVotkirRFSmDa8gIZ2vgz4TLPz8jlicsrV4g8rMrPwoscqjN/rwYlYSuuOyofLou8wIDLpyBUBlxfvfHmm3jj9deVkUMwIcsaN8gs1BhuIHmit6dnLdUwt2nTGn5166rGlBsxPs6NJsP73t5eyp2GEl7U8PKqUG7g+BhvLNrq1aun5rDxPVioMdyo8j6v8uPVnyxcuODZ2dvRvT3UnDQWaoxHLU+VvxqipUaYG2humHx49RvdQ7g7+DO/Wqgx/DlzuWD4e63j43uNUGNYOF+fxri5uf89RMrlgb/b4JB66N3rXgwcOFBt3anDwHMlbahTwOWHhRrD5cLfv64qZwznzwtiuEzx/Xr27Kk6BhyaxWDR4HwCgwL+Lhss1Bh+z+e6urop8eXk7KTKI5c3HqLn/Phag9sYQ3nlcsbPU92FmoLLP38OVduvNFm4zBjKoSBUBlw3elIdZZhbLJiQWLsR3Ni2b99eeo1CmfAwKFu+bhWDgDdsd0Lv3r2VFVa4ChZqd/h5CncHW2OreABGMEWog1BUJOXOgHSXBEEQBEGoVvCoQAluvaNc0xGxJgg3gSuMslaDCpUJ965pE+tOlXA3VmJBuGOKi9VcYqEUEWtCjYQn3ut0xdDqdPSqpdfSTae9wXv969XveQiUJ7ryMKhhVegNN3Wff283ylu9V9eVkV7Ge3693ff8erP3Zf4d1Wjjz6f0c6RKWy3TEaoCHgIV1x1CZWNmaUX1gFjWDEhsUKFCqMrVoM8995yK96nTUdFmv3U854aO8ca9E0Ozw557DF7GVDrpATpdyQJ+b07v4xMSEBUVhc6dO9P1nEPZcLw3M+4FXm2B4EZOnw9fydvt3N/wXqfPo6z36VdS1WIBPl9D6fTfNe9L9Odf/f6fZpdTqy/0idIfaqacD+fm5eHlV16BF/22hcqFffJxIHdeqCIIlcU333yLB4YPQb3gUH2KaSNiTagQqkqscXFmVxos2kyBzz/9GB9/+rl+r+bCPu3YjQkPSwuVi7juEKqCcd98g/sGD0YDIwu1WFGIWBMqhKoSa6bGf//7X0yaNEm/Jwjlj1jWhKrgu4mTMKBfXzRs2FCfYtrInDVBMFJ4HpFMwBUqGu7PV3GfXjBB1JQNncxZMyBiTRCMFF6hV8IT2wShApGVoEKVQFVbaSwYgRGxJghGCq+UNOeYmYIgCDUMS1tzFOf/Oy6zqSI1vSAYKRICSKgMZBhUqBKKzWSax1WYTG3PgbDPnT+vFjQkJibqU++cYp0OZ86cuS3/Q9nZ2bh06ZJ+TxDuDh6eEv9XQkXD5Uw6BkJlY2auga5YLGsGTOIXyP6xtu3cjj27dyMzM1MJJm7keGPnm4Zeo3JiSvvF+n0+bkhj+Dx+z2l8xrlz55TDVEM+nM7wq+FawzF+zc7IwLnw8L/P4XRDr1Wdry11pMr7302ciOPHj/99T8O5gmCAy4o0okJFY6ifBKEy4SkeumKZtWZA8ymhf18l5Ofn48SJE2jSpEm5RNhnaxfnExAQoE+hRo1E0J8zZ+Ly5cto2KAhLqemYueuXTh3/hzWrlmjhJcDXTN9xgzsofS4+Dj4+fnhjxl/qGdbQ+d4eXkhnITWkiVLcOjIYTg6OCAyIgL1GzbApg0bsWLlGpw+c0qdN4Pyib5wgdI3KIeqmzZtQgrd29XVDUnJCbC2ssGC+Quwd+9eZfFjh5+LFy/GsaMnsP/gPrg4u2D6b7/AxsYW+QUFWLVyJfbv3698TPn4+JT+UdWcRYsWYciQIbC0tNSnCOUNWzzWr1+Pfv366VMEofxZvnw5Bg0aJL9loVI5dvQo3N3d4O//T1tuyphEt5xFTtu27dClc1clmk6fOqWsYiEhwejSpRtOnTyFnJwcBPn7o1GjxlhMQqMgvwhxcXF0vAsaN22KpSTSdu3ajeHDh6Nr5850vADbtm5T3tXZg/w993TBldRkhFG+vAXXq4e6JBi1RUV4+OGHERYWhujoaBw8cBjbtm+Hu4c7Bg8eTPsHEE2C7iwd7zegLwnLYuSTgGvZph3qUR4rV65A37590aNHd2wk0ScIVyMWD6GiEcuaUBVoLDQoLJRhUAMmIdbYAmHvYA8HRwc1bMR/tIOdI0KC68PLu5YqFGfOnsWa9etxOfUKOBahuQWUx3RfXz8EBwciMSkJ1laWyuJWv0FD+Nb1owqsBLk5udhC4uvYsWPwdPHi1hO21tZKaHnX9kZIaCg8PTyUYCwu1sHSwoLE4UmMGTMGI0aMwIGDB5VQDA0MQV3K29nZCWZWVnCgPHjo01Jjg1DKo27dACq4RSpNEBgZBhUqA5mzJlQFXO6EfzCZXyCPf/OXr3qI5mYknkpoX39MY4HwsDA0btgQri4u6ryU5BQ6rTS0jVmJuRrezC8qxLq1azF37hycOH4cFlYWyMrMJBFngdD6obhyJZnEXjpdr6IaQlNC/+cxVn1lx/EjdXT/vv364bX//hdffPEFRo0ahTo8tGnOPVczdS21wrB2cFDPamVtjmXLlmL1mlUIDgyABYk9QWAk9JJQWch8WUGoWkxGrHF8sZCQELX16NETffsPgI2NDTxr1UKXTp3w2OOPw8PTA87Oznj++edVQ9i7Zw9YW1vDx9cH9913H0aNHIkrqakIqOuP9u3b44n//AeBgYFo17a9WmU6ZNhwhIbUw7AHhsPO3h5BwfUQTJuFpSXu7d0bjRo1wn0DB6Jjhw7KQncpJoZEXn00CA1Fj169lMDr1LED6tD9BpCg47BZL7zwMoqKdHBydMSAQYNK/xhBIGR4SqgMRKgJQtUjsUGFCkFig1Y8PCT+5ptvYvLkyfoUQSh/JDaoUBVw+1G3bl306tVLn2LayEQEQTBS2Por8zqEioRX62dlZSkfkYIgVB0i1gTBSJFhUKGiWbZsGXbs2IH169dJWROEKkTEmiAYKSzWxLImVBQZGRlYsGAh/P39cez4CaSmpuqPCIJQ2YhYEwQjRa0wFrEmVABsRVu0YAEGDxmsHJb7+tRREVUEQagaRKwJgpEiw6BCRcHxk2MT4jFwwADVIejRvSdWLV+OgoIC/RmCIFQmshpUqBBkNWjFw05x33jjDVkNWgUcOLgfs/+crd+reVxOuYL4xDg0a9Ycm7dspvq0G7Zu2YF27TvA2enuwwJWR9iHJbtjat6smT5FqEpkNei1iFgTKgQRaxUPu+74v//7P0yaNEmfIlQWf/75J3LzczH8gYe5EgU7vy4xVxUq/c9M+Uws4f+XlDq7Zv/YfMwwbF3CgxrFWko0Lz1WXKycZpdWxnxMR+l84J/rSnPSHzMvzYePmdMxnTpGacUl6jmuPUZH+Ln0zwh9fvz2+mPqPd9XXUvPQ8/PTQT/MzPX8Pioyrsmsm7dOjg4OKiYxkLVI2LtWui3yb/OqkPEWs1ExFrFI2Kt6mCxxq5THnvsMX2KYOwsXbZMvQ4VsVYtELF2Lfo+mCAIgiAIglAdEbEmCEYKW9YkwLYglA88ZMybIFRHpKYXBCOFh+FkNagglA/FJSVqE4TqiIg1QTBSeDWoWNYEQRBqPlLTC4Ig1GB4DVlsXBwio6L0KUByYiKOHj5abpakBMrv7Nmz6l7GCg+AyiCoUF0xGbHGoVP27z+AnTt3IiXlMm0p2LVrF/bt24crV64gPj4eR48eRUREBI4cOYKTJ08iKSkJYefOYfv27Th3/jyKioqQcvkydu3chQMHDiA7J0efuyBUPjxnTRBuhZXLl+P7qVOxfcdOfPbZZ9ixdycmTJyMXKrDOFB7cnIy8vLy1Lns+PZySuk+iy8O4s71Jwd15zQ+Nzc3Vw3B59Cx9PR0HDt+BH/OnIWCwkJVn16hetLYyifLTBkEFaormk8J/fsqgSuAEydOqJAm9vZ372zxzJkzKp+AgAB9CrsGKsbq1WsQGRGOQm0RTp44hVOnTqqKJyEhAVHR0arCmTtnDho0aIApkyfDydlZVUgs1KysrOiaE8oHz0/ffw9rO1tcoGsiIiPRgh0oyqTUf7Fo0SLlr8jS0lKfIpQ33HnYunUr+vbtq08RKgsOvcRD0M2MxIHqwUOHVAf1xLHj2LJlC4LrBZMIy0RhUSF+/uVnbN68GeHh4arenDh5ClYsW4rTp0+jYcNGyuny3HlzYUP13ozf/8S6dWuwb/9+NG/eHBMnTcDsWXPh6ORESqcYhSTWJk6ciJ07dqi6vX5oKMw1Gv1TVG/CwsLUa0NqA4Sq59ixY3CmdjgoKEifYtqYhGWNe3iRkRHoP3AgHnn4EXTo2F5VtA888AAGDRqEdOo1FlLF0qVTJ7Rq1Qqubi64b+Bg5QOOf8BRUVEk7k7h2ImjOE37jz78MIYOHYpjR49CJxO8hSpCFhcItwpbjLjjdG+/vmjUuAEcHexxisTY6bPnUNuzFt555x3s2bcXP/70I45QvfbUM89Q3XcOe3btwsGDB9GudVt4OLsgOy8Djz76KLZv2Y5z587h6JFjGHjfAHi4u+MAnTd9+nSMGjkSj9A57LeMRyKMBRkGFaozJiHW2Fu3PfUK42NjEXExGnt37UQmCTS2qsXEXIKluQUsrS2p52inzrWytIatvTXc3dwQEBgAf39/9OjeAy2btlLCLz4uDmHhYfDy8tLfQRCqBl4RKgj/C67oeUjT1cUF1jZ20FhYqrrM1soSTVu0VHWctcYK0ZHROHXsKP7vzf/D3j17cOHSJWXd6NCxE+ycnBB1PhKffvY5IqLPUUcV8K5dBy1btoKtjY0aKuU827Rtqyx0fD/D0KoxwM9rzHPuhJqNSYg1C0sLdLnnHuzesxtL5i9C2w4d0bJVKyxZsgR7du9C+47t4OvjpyIfcIiVkPoh6rrWbdoiKCAQFy5eREZmBjxqeeC1l1/G3PnzcfjQUdXDlMZSqEqkcRFuBS4lPJpgQfVVYkI8UlOvUL2oUSGsSo9Sp1ZjhnrB9aj+q4/Ro0crz/GtW7WhDiwHm9Jh9+7dyM7Pw6MPPQQ3Vw9ER0fSpcWqg8s5uDi7wN7BHnPnzlWhm6ysreFC4tBY4L+DN0GojphMuCle9ZSVmcm/SDhTD5H/bO4JcgXm6Oio5v/wsJIN9RB5wi3PT+MfLqfzM/I8ON4M13HQXz5HKBsJN1Xx8DzLMWPG4LvvvtOnCJWFMYWb4jqLF1KlpqWibeu2mD1rFoJIlMXHJaBBo/pqBIEDts/96y+0a9MGO7dvx8kzp9G0WQs8NGwoVq5dg25dulLdCfz8wy+wd3aAFdV/bHFzdHRGj+5dceVyGk6cOYF6AfWwYOEicBjRIfcPRtt27YzGvcwyfbip6hwbNDsnG7///jtOnTylT6m58DA7lzFvb299Ss2Fw2p9+OGH+r2ykdigQoUgYq3i4d/O119/jW+//VafIlQWEhu05rF06VL1yvORqyu80vaXX37B8OHDTULEmAo8SrdmzRr9XtmIWBMqBBFrFY+ItapDxFrNwxgsa1dSU9UijpFU7urUqaNPFYyd+++/HytWrNDvlY1JzFkThJoIRzAQBEEQaj4i1gTBSGHLDs+dFATh7uFBpioeaBKEG1ItxBpP7OeJ/Ow527Cxc8WrX2/1GOdzfV6yVc7G34dhEx9gFQ+7SeBNEIS7R1aDCtWZKp+zlpmZiSlTpqgVluXh7T4uLk6t6HRzc1M/PP7zrv8BGtKuf/1fxwzc7JybHTNws3NudszAzc652TEDNzvnZscM3Oicq8/jsF0zZ85U34VQMbBH+gkTJqh5a0LlwnPWEpKSMLB/f32KYOxs3bYNfr6+MmdNqHRuZc5alYs1hq0DYompWbBwk1BTFQuLtfHjx+Obb77RpwiVBYs19ifWqFEjfcrd8euvv+K5557T7wlVwYULFzBq1KjqvRrUyMTapUuXEBkZqUa7uD3gaRstWraEo7i9ugajEWuCINw+HFCb4zZ++eWX+hShsijv1aAeHh64bEShmWoishq0fGFpMW/ePLz11ltozjF0Saj51q6Nt99+G561PJGXlw87W9u/p83waFhOTjZ43ZROVwRXV1cVX5aFHvvqYz+n7LqEY3Wz/zXOP5U+D35lTxIc+jGN9tn44+7urs4zFkSsCUINJiExCd9PnSJirQoQsVbzELFWvhjEGvuvmzxpEsw4goaFJQ4c3I+FCxehRKdFiZm5+h3lZufhyaefwKYNm5CRlYGS4hJl4YxPSMD69evRrm0bEmgu2Llzp3JG//TTTyvn9XPmzkFhQREefuRh2NvaYcHCBUrgtWvfHk899RSsjUSwiesOQajJlMjUAUEoL1hciO2i/DDMY964cSN69uqFHj164M03/w/RUReQnZmNd959H8nJiXji8cdQy8sD69auw559e/H0U09j8OD7MZ+E15kzZ1ReHTp0xCQSfDxVoF5QEKb9MgOLFy+Ch7sHhg8dhjOnT+NizCX07dcfwx8cjnXr1iIzI11dW1MQsSYIgiCYPNcvkhLKh379+mHHjh3YtWsXpkydBFtbGzRq0gAeHu7wcPOAt7cvHJ2doS0qVGlNGzeGX11/lOhIQBcVoWXz5mqYlMPrffTxx5g3fz6SM2LRu2cfHDt+HOMnjEeRVou8vBz8+vOPmDppCnKzclCsq1nCW8SaIBgrXJsJgiBUQ1gq8RZzKQbLly9XG1vPUlOvQGOmKT2HxbF+hKAEZkhLzVDDvMuXLYObqxMsrK1ZRaOunz/8/PwwbMgQ9OzZE106diehdhRdu3RGu/btsGrpKuzffwCt27ZF5y7dkEvCLS09TeVbUxCxJghGiq7EXCwBglBOyDBo+cI1U4vmjdF3YH9kpKWTSEtDVmYWmjZrhq5de6oFA8OHDYOHpyd69+iBTp06w9bGCjm52dBYWuKFF19C/7790aVbF/gH+OP7qVORmJQAr1q18MhDD6p5allZOdCQivn+xx/w1FNPK8EXWNcPIx4bqUReTUIWGAiCkcK+7H777TeMHTtWRFslU9YCgwMHD+Ljjz9CUZGWGh0b3Hfffejeswc+fP8DTKWGhody3nvvPXTs2AFPPfkUrNhqoKesBQZHjx7FuHHjVIxdazr3x59+Uqvd3n33XXVvrrr5e9+waRPWrl6F8eO/U6vmmJuVh6ur/M107eEjRzBo0CA8//zzsKX72Do6Ysj99+Phhx+GnZ2d/syajywwqFpiYmLUStEZM2ao8m5KyAIDQaihcIM7Z84cNQGXl7MLVU9uTg6cnZxUgzPikUewlBr/c+Hncf7MORw7dgyvvvqqamAfeujha4TajcjLy0N4eLh+D0glMRcbH4+DJAoXL16sGu3Dhw/DysICdrb2SE1Lw7LlyzFv7hysWbtWHdu3b59yZXDgwAEkJiYq33x//fUXFtH1GZmZSM/KwqWLl6At1EJLYvJlesYnn3xSNRzrKA9T8n9pGLYTqgYPd3e88cYb4p/zBohYEwQjJDLyPNas2YDo6CgcOXJEnypUNewjqpj+l1dYqPxDWVlakUBKxPvvvw9/f398+OGHyp/UrXD9oAdX1iy8Fi9apBzyskhnP3vnz53D6VOnsWzJQixfvhRnz53Hxx99hBVLl+LPWbOUH6tFCxcqYf/Jxx9h9549Soh9QM9UrC1S41UllLmbqzO6du2mrGpsaTtF5+v4DxKESsDWzg5t27b92zosXIt8KoJgZLAImLdgAT58/13UD22Ao0ePo6CgUH9UqErOnT+NL774Qomjp598EoF1fVFQqIMzCbSNmzcjKSlZf+b/hoc6r6aguFjNA2JbFw+/vvDCC0rQsUUtLzcHew+dwIhHR+HDDz5QFrx8Kida2vic/MIC5bNqxeo1qjG0om0lCbbszCw1ZMp+rcyKeWi11JLGlr8iE4vxy5+tTCYQqisi1gTByODwLTaWtmjWohmCQ4JJqGXj7NlSf0RC1dKta0+sXbMeq1etwggSVBoLa3j71cHPP/yAQf364uWXXkFifLz+7JvDXtgLCgrUEGpCYiIiw8MR6O8PGytrWNvYXDUvjcSWuRlsqDbPSE9FSnIKsrKzYUFiLy0zE6lXruBy8mVozDVwsLWBk6MjHFxd0bRhQ5hZWioxZ25mToIum8RkEsLPn8e2bdtQv359kxqSkmFQoTojCwyEGoW2WIeo8Ajk5ueiRGemrBDm/H9qzMyKzaCj6lhjVkIpZtCUmENL73g1kY5O0VBaMR+34OEmM31Phs60oHTaZ1SOGnqv8tbnRY2mebE55a3Pi35RmpLS49Q+qqExc9Vnv9O8+C8oVnlptSXYumUTHOwdEBjgj2UrVqJH9x5YsHgRPnzvfeUlvJg+A14Vxf/4mmL640r3zelvK1Z5lD6BBR3Xqeej5p4afzrZjO5Ej8XHOa+SEsqL/pab5cWY/Ssv+hDN6K+4Ki92NVJ8k7x0lFfpvuaavOhDg6OjLQL8A6qNeChrgcHevXuxdu0avP/+B7AhMcVcjI7GM88/j9l0vqWVJYm1l3DPPd2Vd/Wr/5ayFhjw8CUH6t+wYYPyTWVlY49vvv4SS5YsRZs2rdGxQwe8S995w0b1sWP7bgwfPhTz5s6lz9kMURci8X9vvY3fp08j0eehxN7XX32F3Tt3YduOHUroDaPz63jXwd59e5WwfHzkSPgHBKj4jYH16uH1116Dl5eX/mlqPjzHkBlazRcYTJkyhToFXVU4plK45uLf/M3ecw3EvzfDe/6t8d7V7/m3x4LV8J6P0A/4hu95j+oI/Xu+H9VYpW+ve1/2M1nQe+0dvr+Vv/nq97fy99/dZ8HXcx1fyi18FlSvaaiONKOO0v+99Zb6nd8MEWtCjSI/NxdDhj6Ahk3q//O7qXHQD55ElY6EnjkJHP75lxST7LSgyqbEMJRFP2uubbTmsCBNwJPHVV1SxMKohEQgHad9MzpupqHqhvdZKFJDz5UPvdDnR7KJRK6O8+N9HYeLuSqvQsrL8iZ50fUl9Jy0pwTEDfPifX4uK0rW521G+2b0nJxXYRHP/9Li008+qTYr4MoSa1qtlp61iISVrfqTGJ7zxeFvOI2HH3kIm89jMXf1is2yxBpXzbxlZGSoPNypcbawskJ+Xh4s6cMzJ7GXW5AHa2rEckoK4WRtp0LwFFP+zzz3HD766CMEB4WioChP3c+GQ+/QM7OljZ+dG3t+Pm1BAX32VmpBA8Mi0vB8Vz9jTYf9gDGDBw9Wr9URFmsfvPce/UKL4WjnSv8vKv0t3iFhZ8Pg6uJaKsr5qzadr7vKubqOO3TokAqldTNErAk1itz8PDz+2Ei12k2oGbBYmTN7NoYOG4batWvrU6uWssTa3XC9WGMRNW3aNKz7H73tsnj5xRexbdt2tGrZAktXrFAC7k5o0rgx3nn7bRWL0RQwFstaebru4NidQUFBaN++vT5FqAokkLtgcuTl5WLUqP9g0aIF+hTB2DGItSFDh1Zry9rdcKNhUF4gcCcUFmlhYWGu5qLdKWwJvHZuXM1GxJpQVYifNcHkMDfXoLj4zho4ofqihmVNDCsrK9jZ29/R5uLiDAcHxzKP3epmw8O5JjQMamrDvgbEPYtxIGJNqFHw5HqNuYV+T6g5yGQaoWLhQSZTHGhiC7FQ/RGxJtQweIK8UOPgRtQErR6CUNGYki89Y0bmrAk1ityCfIx67DEsXiQLDGoKPGdtNi8wqGZz1n746Sf4+fio/btp8NiywfNVeN4KU9awFPeqWaryEUMPm+94K+/ZbsKVvOE9vzJ8zv96b0qNQ1p6Ol579VWTig3Kc9YCAwPRoUMHfYpQFcgCA8HkKMgvwKMjHsWSJUv0KcbBylWrMOOPP1Tgbp7wy/EfOSxRvXr11PHrf6aGuTWGdN4/cuwoHGztMY0q8wED+qN79+7q2NWwqDC2uTlKrM2ZoyZ+Vyexxg5rR4wYUZpwteWvrPeG7+/693r8/X0QFRmnlvJr6DC74mOXLAxV0uxFRQkoOsxu+ZSIstSfZ3hfRO/5Cj7H8N6QFwswc306p/ExTudzGU7nPBiVTmeUcFkxN6fr+P60r9XCnP2t0H7J1fsEX1pCIpMXJfAx9TfSZk7v1bX6cqeEIO/TuWYkUvlvU3kVFSlXJNfnxZ+RKuNX5UWFWKXfMK/rn4v3eaiPj/E+Xa+h91fnxdvKlStVAHHuFFRXbiTWXnnlFRw7fhwONjawtrfH++++i40bNqBD587KHx/HEd6yZYvytRdA4swAizUOg9apUyd9Sik//fwzWjRrho6UznXGwoULkUr35qgZQvkjYk0wOdgH1chRo7Bo0SJ9SvUnh33DkRC5nJKCd6iS7d2rF5544gk0aNgQXTp1hq5Yp1YLajSWOHr0CLxqeeLePn1UY8aiVFukRed7uuKDd99H/dAQ1WB1bN8Bbu5uqsccGxuL+Ph42NnZKV8+3t7e6NO3D9xcby1GZVXz92rQYcNQx0RcdwiVzzL9alCjs6xRE/7AAw+hfoNQDOjXD6vXryfhHwFHB0f0oXqCRdb2bdvw2muvoW379kr0GmCxFhAQgI4dO+pTSpkxYwYaUv3DZZw7juwHjEXdxx9/rD9DKE9kNahgcnDPw5isRszxY8eQkpyMJ596Cnv27kNubh60Oi2KdUVUaf6B7yZMwJHDhzF56iSqgO2xjirjrdRL/vD9/8OOnbtw9NhRjPt2PIm2PBTpdDh76gyiLkRjzty5SCUBMG/hAqxeuQqffzEGVpY22LFjGxYsNB4xy6gepfQrBeHfcH1HHTqO2pKRmYWYixdhbWUNCwsNfvrpJ3z//fd44skn0bZdu2uEmoGy6stLly7h2NFjePHFF1VM2YjISOXQWag6RKwJNQ6qt4wG9mbPYUbs7e0Rf/ESDh/YixL6A1q1aoMG9RvDxtoCr77yCh7/z3/QuXNHnDwVhrCws4iKjsbc+Svo2Mv45OPPMOT+AWjRsg1atmgBM40ZatVyhZWFOY6dOI7tmzfD2c0V3p618NzoZ3DffYMREXZe/wRGgpEJcMH44EEmoxxoomcu0gCbN27G1KlTYW1vhQ/e+wAajQWuXLmCBg0aKMsaD9uXRVnzLQsKddi9Zyfc3d3w6ccf48EHHlDB/YWqQ8SaULOgNt2MJ+cYCQnUaw07dw4PP/II6oWGwNnFDbt27aYKuFiFLtJSPWpn76Csb6tXrkWrls1UjEyOSWfvYIskuv702ZOIiIhW5qf8vHyqfekaW2c0b9Yak6dMUrEhmzRqjOycHGRmZqrhNlu61pjg+Ugi2ISKhC1MxmaVN2BlbobX/vsGVq5YiWk/T4d/oL+aJvHuu+/i8zFjcOrkSaxZs6ZMMVrW32xupoOtrT3SUtORmJSkRB/P9ROqDhFrQs1C1UXGU6zj4mIRFBiAZ595Bs88+yweGzkS+w/sh6+vLw4e3E/C05LEmpWaZ2ZjY4XFi5cgJzcbl2IuYMxnn+G7iRMx7ttxCAkJgV9dP+yi3rC1vY0aLu16TxdkZ+XiERKCHTt1hIe7u3q/dNlS9Linp/4JjAP1tRqj1UMQKhoSW7WoQ+bk5AALy1KfaSzAOPari4sLQqlueHTECMyaNUsNb15PWWLNwdkZve/tg4YNGuLpZ57Gxo0bTSbsWHVFFhgINYqC/Hw8RhXTIiNZDcrDoOyqgVehMTwkwQG1OfB3Xm4uNGYaWJJI44m+nJ5LaY6Ojigo0sHR3hY5OTnqOl48YLjWwsICGktLaKhnnZuVD1sSe3w93yclJQUO9valFa+RWBGq62rQil5gwN8nb/x9GuAQVBxo/X9ZgAxDempF5S1iuIbhssL3MSWWLl2qXo1tNSh/Y0VUj/CKWmuqN1QafY8c/J+/Q0P54bqCA/RzuTVwo9WgGWlpagUt552RkQlbvs5Co8SfsVofqzOywEAwOYq5ermNBqqq4YrUINQYblx5/pp6JUFlQ4LMULmygHN3d1dhiFioMXwub1yB8nkswrhCtqT3PJnYwemf6/mVLXQOJPaMRagp6CvlYVBTayQio6KwZ9ce1fCmp6erVX2ffv454hMT9Wf8A5/DYo/P4fenT5/GiuXLlXjnNG6oWYDxcBafZ/DlxulJSUlq/+jRo1i9ejViYmOVcOGOAefFE8uzs7PV+WnUiF+mPMqa52TscPkyxjLGT2zF9YheqDH8d3B9cbXQ53riaqFmoCxB/+JLL2E0bc/T9s777+HVN17HO2+/g5z8XP0ZQmUjYk2oUZSUmJcOmQk1B2qN+Dtl4WBKFJdoUajNV0NXvKpvxvTfERURVqag2L51qzpnypQpOHnitBJea9mFQ3Q0PvroI6xbtw5bt23BD99/j5/pvIMHDigB9ssvv+L33/9QDn4PHT6MtWvXKpF28eJFrN+wQVnyjp84gX3796tt4pTJdJ8fsWPnTv2dhZrI9N9/x++//XbNNnnyZDjY2OnPECobEWtCjcK8RFfm8nTByDHB7zQ1JQ2xl+Kxd/d+tGzVCi+9+gpcnGuVLra4jrSMDDz99NNo3qwZCbHdaEXnd+nSBXbW1sjPzcegQYOg05XgudGj0aZjR5yPiMDhQ4fUar+33nhd5REaXA/3dO8GLeWfmBCHC1FRStDt27MHHq6umDd7Ll5/6WU88/QzWLLYuFy/3ArcGTC1DgFTlpWUrfPXb7Z2tib5O6wuiFgTahTKg7kJVrg1Gvo+TXEY1IxHrKiGzs7LgpubKywsLeHp6coLha+By3tkRBTWrV+D46dOQVfCa4Wh5ixyBIK6gf70XoPEuHi1IvDYgYMoyM9DypUraticvf336dUL1jZ2sDC3VNe4uLjC1c0NJ06cQGZWFvz8/dWz2Dk6wtbWTrnHMQyl1hSMdRj0brmdeY1C1SHfklDDYKEmxbpGwQLcFEU4/bn8FzcIDcWqlatUfNTIiMh/F2/6XA4fOghtUZYmPzoAADWLSURBVDFsbaxx9kwYiimNXS7k8oITboxJg5w+exqFBVpYWlsjKioKLZo3xcGDhzBt2jTMX7iQRJoZ4hPiUVxQAF2xGTp17owff/4ZzZo1g7Ozswp9xmGIZsycgZYtW5Q5/0kQhIpBVoMKNQpeDdp/wAA4ONpBpy1BMXRUyM2p8eH4gGaqQbOwNEcxHTO3IAGgrBQlqqHi8zWUpiuiV0szFOtK07mvXVxM5191veHc271eR9drbvN6dYZJXV96Dl9vQcqkUKeDV61aGDd+PGqbULgpDiyek5kJL/qbI0ikafizJOHlX7fuNYtSGF4kcCkmFr4+dRATH49G9esjOjpauYDhRQXBwcFITklBxPlzqOsfgOTLV9CiWVNERUciPS0VIaENYWVpifCI86jj44O0K2lKnB07cBihTRoqCxz/ts6eP0/fTxEaNmwAOzt7/d1rBsayGvT1N/6LuNg42FAZKNH/498Mu+3QanWwtLBU9Z2KnmpeTHUd6HdlTnWXjs6xQImOfl9UjrgDFBsXpxYe8ApxXjnKq9N5UQIPjbI1m88xo98fW18L6RifwxZVgzWOz+PfAS9Cuf56hs8zpBnOMeXr+ZVj2YL6Oeb8P/6WqK5LSUrBvn371DU3QsSaUKNgL92PPvIIZs2bQ/WUhn4sgJYqM0uz0h9XqXKijXd5FId/L4Z9wy/hqnN27NiFVWtW4duvx6pDt3v9TY/J9f/7euJKeioWzZuP4Q8+aFKuO8qCK/w9e3bhQnQsCVzqgMAKbdpztIv6+jOEO8VYYoP+9ttveHj4cNTxq0uigH5C9Huh/ih01PPhzo3h96MloaYp5qHw0n1OL6I3lnROkVnp61/z/iLx7q/8MBquLzTTwYrqTs7KcL6OXiknlBRRmSNRUkzlkF+V8GBBR1sxixgSI7rCQmisrEgklgbQVxKDNg62b7iu0q5nccQf0s2up0ZCfWQ3u54/Pjrvbq9XXxi90uUknNmYwFWgmSpzPEXhZohYE2oUSqw9+qgKcF4ecODzlctX4tvx3+pThMpGBXKfMwdDhg6VQO5ChWG0gdzvgrlz5yIoMAgdOnbQpwhVgfhZE4S7hM3Z/E+oQqg/aegdC0JFwXYLk7Nd8J/LZiGhSjEMm94MEWuCcBPYesLzDIQqxIxaE8MwtiBUEKa4GpTnit6KUBAqFsMcuJshNaAg3ASuyHiCqCAINRs2Mpma7ZYtibciFISqR74lQbgJqjKTn0nVwkNTpctGBUEoZ8SyZhxIKyTUeHipNYfK4UnqPKF2x44dyMrKwrFjx3D4yBE1Hyo5MUUt3Wf/U1fPW1FLrc2u7W+zpW3Xrl1IiIvTpwApSVewZfNmFBUW6lOEcoOHpqT3L1QwPABqatO3eNiXp3qUJxyijBd6CeWL1IBCjYfF2qKFC/Dn7Fk4dOgQxo8fj19+/kXFQVyyeDFOnDyJV//7Enbv2QMnJ6dr5q1c7VPHAPdEN2/diti4ROTn5yt/VufCw/DV2LHIl0qqYjC1id9CpcMlzNRKGXdMy7KscZgxDtofExOjxBefl5mZidjYWFXnMSkpKcqHX3p6uoonm5iYqFzLbNu2DX/99ReSkpPVdZzG1/JqZ95PTU39+5hw64hYE0wCc40VHhvxGMaNG4eHH3mYKp0YVUmdP38en3/+Odq264CPPvxQuVC4HhZsV8OVTFZWBl2vxe8zZuDVV1/Bu++9K4uqBEEwKm60qGL9+vWYMnUqfp/+O+bMnadE27jvvlMjE+y2hsXcRx9/jBlU/3366af4/ocf8PPPP2PPvn0wp/pxCwm2yZMmYePGjYiPj8d3EyZg1uzZauTihx9/xG+0LVy06F91q3BjRKwJJgD1HrV5eOv/3kSjBo3wzjvvomWbNsrjNPu24WHRekFBKqTO9fAQwfVz1lisJScmIyExAatXLseYMV/gjVdeUwGwZbJuBVFGgyII5Yk5lTHeTIkbzVdjMdata1e88+47OBd2BitWrsB9/fvj9ddfV85dOfJBZloaRo4ciTp+fuh2zz0YNGgQYqIuwtxag7739sd/6VyeepKZmQFXqlufHz1a+a3s1LEj3nr/fezbs1dNRxFuDWlZBBOAKmGNNV586WU1FLp142aMePhhVVGNGDECE6jXx9a1I0cO/8s0r3p+Zf5KzJCflw2tthjubm4ICAmGlTmHTxLTfoUgn6tQwXA8Vd5MCe5cljUcaWdnVzolhI6zf/6C/EI4OjmrPpNB1Frb2sLO3h4edJ4H1YFMoa6QPkhzODnaqHBYnL+5uQa1vL3V/F+eMsIWto8/+gh5uXkyt+02ELEmmAAlaogypF4g2rdvh5AGobC0slKVlI+PDx4Y/gD1Cu/Hxx9/jNjYfxYN3BwzuLi40eaCH3/6CZPGj6OKnsSayc16qSTEsCYI5Q7XgWX6lmMBpxdxfLxJ40aYv3ABfvnlV6RnZsCNxJnBCllWjbdh40b8+OOP6NKlKyw0Fn+fe2+vXmoUg+vd1m1bq/pTuDVErAk1HgsLSwwdPgwtW7bTp5TSv39/3Hf//bC2scb777yNJ598inp7Odf0NHkY9PqhAkvqIT7z9JNo1LgJvv76a9Ty8kLfQQPw+uv//VeAbaGcKKtBEYRy5Ebzt2oy/PeWNRR6T/fuCKlfX3Vqnxk9Gr1698Yz/3kCHTp0wNNUT7q7u+Ott9+GnY0N+g0cqEJf1W/QAAMGDECrVq3w2quvYciQwXj88VGo618XPXv2Upa1jp0647HHRqJdh7Z48MEHpb68DUSsCTUeNsV3aN8eDRtdG+y6RYsWaN+unTpuY2+H4cOHI5QqqKsrbHbTcf2ctaSUFBw9fhzTpk1TE2zTUlNx7uw5nD17Vq2IEsoZFs83mFtTmXCjxt/v+g3rsXT5cn1qxcEr79i9jAEOFM2Tsnn13fWEh4erGKrCncOdtLKGBGsy/PeWNc+2Vq1acHJ0VDVfYECAElq+/gFo3brUGsZ1ZAMSZxpK9yGhxsOmjg4O8Pb2VsfrBQfT8YZqXrCtrS3l56mu0VhoEBQUiA7tOpY5R1i4MSLWBOEmcAVjprm2t+3s5KQm3/br109tffr2Va/33HOPVEAVAYvnMhqUyiSBRNq0ab/ht9+mITkxCS2aNdMfqThYHHJngd0iLFq8CH/O+hN79+xBrt51goGUK5fx6ksv44+ZM5U7hVmzZuGnn35S84NYXO7Zu1f5Ety8ebMSeocPH8ZfCxciLy9Pn4NgypiaQDVWRKwJwk3gXuf1wwT29vZo2bIlOnXqpLYunTur1zZt2ohYqyjKqT3ZQ2Jn0qRJt7V98cUXGDhwIBYtWozCwgLlI4pdvlQ0CQkJCAsLw+Ejh+meiWjevAVOnjihP/oPLs4uaNWmNVq3aIElS5YoywZbjZctW4aoCxewfcsWcAneuG4jMrMysXr1ahSR4JOYt9fCXTLTGgTVd0a5MyRUe0SsCcJNUKtBpeNZxfAXUD7DoDtJrLG7gIYNG97y1rRpU7QicW5haaVWyAUGBqoJ0hWO3rJ29nQYOrTpoDoIXe+5h00h+hNK4TmUjvqVe2kZ6binWzd65mZqWEpbWKhWOHJzXFhcoD7GwIBA9O7dWw1RCf9gisOg3BEVy5pxIGJNEG5CWfM5hMqGpIZZ+XwPViRsWrdqib59+97yNnjwYPzw/ff46P33lXgPj4ioFJcDLE+5HXV1c1UWsthLlxAVGXHDzoOykpSYIfrCJcTGxCC/oBC2dva4kpaKC3x9bALoMCytLKDRSLm+HlO0Mkn9ZjyYkaoWWS3UGHgeDq8yeuutt/Qpd8epU6fU0Nlzzz2nTxEqm+ycHOzfsw+jnx8NH9+7s2iNnzgRDUNDMHDgIH3K7cEijYdAvyfx1q1bNzz22GP6I3cHR87gcDxXwwtWWGSxRW3GzJmw0GhgbWmJESNHqtV4V7N161Yl6Nq1aYPFSxejqKAIQ4cMQZPGTTBx4niYW1ghv7AAzz83GmfOnFHDpK6urvqrBYaHjZkh9LlVV66kpmL69OkYSeWOV2DeLey0tl69emqVp1B13H///cpB+80QsSbUKFisccHv06cPdDzX7C6L94WLFxEdFYUePXroU4TKhmMRJicn44MPPrjr4cfJkycjOLjeHYs1Axxyh926VKRYKwuO08ihgKIjI6Cjom1hoaGy2RNNmjTRnyHcKUuXLlWvQ4cOVa/VkfIWa/PmzYO/v7+acytUHSLWBJMjLz8Po0aOwqJFi/QpdwcHd9+2eQs++OhDfYpQ2bBLitlz5ihL0d02UGxZaxQaggFGKtaEisMULWsc6zMoKEgsa1XMrYg1GbAWahbU9SjXeSfUlymWFQZVDn+j5fG9WvDqXvk6BeFvynKKK1Q/RKwJNQ6pfGoavEqvfFataSkfmVsvlAWXL1MbaOIOEFuIheqPVFtCjcLMjAMT63eEGoIZ/Vc+VRUHpdaJlhfKwBRXg7I4lc6tcSBiTahRlJToYG5uWhWuKWBGAry8GlIpHoJQiikKVGNFxJpQozCDhVjWahwl9E9XLkNU7CBWiodQFqY4DCpWNeNBxJpQoyg201FPUb9TTTl58qQKIyTcKvyFls+8Gl5gIAhlYYpWJnaKW90E6tGjR1WUkf8Fu7EJDw9Xrn1MAam5hBqFWXFJpYi1Hbt2Yd++fRg//jscPXZcVXi8P+7b8diydRtycnKwY8cu/D79d/zy66/YsHEjJkyYgEuXLqng2uvXrcdXX32FiMhI5GRnK1cjq1atUvEgFy1ejPHjxuPc2bMm19O/Eeo7LYcvViuWBEH4G65fyhKo7Ax8zuzZKloHO1HmumvN2rXKKfSxE8cw/fffMf2X6cjMykBUdBQ2rluHtXQ8Li4OU6dOUcfZFc2VK1cw9fvvsZjqNBZX2VTXLViwABMnTVLnJtC2e/duTJo8WaWfO3cOL7/yivL/dvHiRcprKqbQMfZ1eSE6GkuXL8dkunbLli30XKfw9ltv4fDhw0hOScFPP/2EOXPnoqioSP9X1CxErAk1i9JWvfR9BbJt8yYl2Hr0uAc7tm1FYmwsZs76Ew88NBzLlizGvv37sXzZEtQPDVGV1AHab9u6LSZ8950SciX0nI8++ih++OEHJFFF88lnn8HKyooqoc24kpyM++6/H2vXr0daWpr+jiYMNSglLLLKQbhaKkuCfkcQroKFi6l1jliolTUUeuDgQUSSCHN0dFQdzl69emHf3r0qmsui+QsQXK8enN2csXr1asReuIhvJ02Fl1dt/PzzD2jdoi3qeHlhE3VQldNdPz/lK5E7ojt37EBaejr69ulFndVvEEEijH0WPjB8OKWnITc3F+3btEHHjh2xYcMGdO3aFa3atsFu6ghfionB3Nmz0LdfP8yka9zdPXDvvfeqWL1jPv0UwaGhqq5l33E1ERFrQo1DBV+vYCysrPHwAw/A3z+A3lth5959aNGsuQqS3X9gPxw7dhT1gushpH59tGjeHA0bNKD3wbgQewFOjg7o0KGdqmS8a9VSJv+WTZqgZ4+e1JONRH6RFocOHUQWibpc6omaPCzAy2n4sogaJllgIJSFKQ6DsjgtKz6ou6sb+vTth0JtoYozezYsDI729jh67Bj8A4IQEhKClm1aIS01A4W6YjxKnVSfOt4kynIRE5+AS/FxiEtIRNOmTXHi5EkVHo3Dmx0+ehTp1AE9efIMzEu0yKC6j8O2sYPfWp61lFXM2tYW1tbWaN2yJaIiwnFw/wHk0nk6qhc7dumKULq3u5sbCouKYWNnj/yCfOwmIZmSmAgtibXTp89Cp9Xq/5Kag4g1oUZRWYGJzXmaur5iZ3cQfn6+Ko5jXFwCjh46Sj3PEGjMLUgYUANAz2SusaAzS6ApsUJefiHOh0eoYQDuSdrZ2cGKNnONOTypUsvPy1W+j7w9PWFHFaSgt5WWQ0OqoTzEKa4g/ENZ1kSuf3h+p6OdA4knG2i1RTCjtIYN6quhzZjYS4g4Hw43N1d1Ho8K8Hk2tlYoKMimNA386/qpYU/uhPLwZmRkJHxq10YBCSoWU3WpY2trY6OuNVCiN/JxB3bl6jXw8QuEn6+fspjx0iBLegZ+WhbV5maUQh1zC6pba5PYyysogJb2W7Roqp61piFiTRDuAN+AerC1oorG0hLePnXQrHkzNG/eAuPHjUNAUBC6du0CX6pkLC2t4OrsAg9PN3pvjcZNG6F2bW9kpqdh/PjxariTe4khoaFKaD700EOwpZ7lzl27VL4Ojo76O5owPDxVTsOg3BaIZU0oC1MdBi3Lmujp6QEnJye4uLhg1MjHcejQETVi0bxpC9hYW2PJ4mU4dvQoevXuDVd3F3h714GzkzOeGPE4zpIwCz93Xo0mhAYHY9mKZarDWrduXQwcNAgO1AHdc3Av2rZtCx8SWV61aqln8KDOqaOLk7K0nTl7Fi1bNsfseTNRUFQIjYUl1Yt2JN781LlBlK89dXBZIF5OScHYr79GZEQE4mNj0e2e7qqTXNOQ2KBCjYInwPJcsCVLluhT7g6e/MqTWT/66CN9ilDZlGds0O8mTUJ9qugHUaNxN1RGbNC8vDxVnrnBLA94iCkzM1MNMfGzc6fgTinSalUjWbt2bX2K8WOKsUHn0O+KY4PyHLFbIScnGwsXLkDfvv1r1Hdf1UhsUEEQagbcpyyH3jJXeMZiWWMXBrxKmOcMsZDjfrWWRNKlixeRnJyszuFhptS0NLXCmIeKeAUdvy+rDx4fF4tffpuObVu3KvcxbCmJj49HCokuhq2XKZQvp7FQ5OP8ysNXPPTFebLgi6HniYqIwIfUgSmmc1Lo2c6fP6/ONWb4EzM1y8XtThuxsrJG69Zt4SQW/0pHxJogCMZBOQwC6CgPY2mQNeYabN22FTNnz8LkyVOUQJu/eBF++fUXjBkzRgmuAwcO4KP338euXbuwavVqTJs2DZ999hn279+vz+VqzGBFQpWHkdiyxtd8N3EivvzySxw5cgLnw8Mx9YcfMGPGDIwd+7USZWPoGK/oY9cKsbGxWLlsGSbQNT//+qtq6Fmk/aB3zTBp0iQ1B1MwHnglaFnDoDfC0tJSLRqwd3DQpwiVhYg1QRBMBnbdYSwUlxSjWeNmeOett9UCFnZ9sH39Bnzw/od47fXXMWHcOOTlZKPvwPvxwAMPqJXFTz35JPrc2wc7duzQ5/IP3CZraWO3MWyF+3rsWDz71FN45plnMO33H3H82DE1X+h9En+uTq7Kate+bVs8Tee4OjkjKSkJc+bPxxckFJ8bPRoaarg19HnysCEPB7PlzZhdzbBkuXXZUjNgwS1RDIwDEWuCIBgH5TAMyq47jKVBNqN/nt4eyvLBjSoLLFhYKKsY/w3sMsbK1g613JxVg8uOTA8fOaIcL5c1vFVM+fBqWD7C1sW05MvKJ9XCBQvg5uKBvIJ8WFtZKgumpa0NUlIu4/TpMzhCeSZdTlHz5/i+nLc1PQMvruEVzQcPHcIZujev4DPmid2mOAzKArussiJUP+RbEgTBOCiHYVB2M2Asrjt4wJbklX4Pap5QQGAgxn47Fj/9/BNGjhrFK8TUClcWdFEXLyIiMhyFRQWIiIj415Ck+viUmDJTQmv0Sy/AzJzEm8ZcWdTqUd6rV67G+AkTEX4uDIUk3sLDziIiOho5WTlISExA29at8cVXX+GvRYtUnNX0jAyEnTmNGBJtOXS/WHoVjAuxrBkHshpUqFHIatCaR3muBh0/aSIah4ag/wDjWA2aT5uLq6saXnRwcFD3vHjpEhzsHFDLyxNZ2dlqKJJ99WXS55RyJQ2BAXXV/DJvb291PsNiTq0GTU2FLYk+tqbwalC2whVpdQiuF4RLsfFITU6Es5sbVq9ag+HDh7FjOhRk59HzuSk/Vq6ubsqa5uLirCJxeHp64hLtuzk7KyHI+To7Oal7GhvLly9Xr4MHD1av1ZHyXg3K8xF5NWj79u31KUJVIKtBBUGoGXDvvxyG2NiBsc5IDAksplxJOLHQcqNXdh7K4isoMFAJNcaRBBwLNcaJBFO9oIC/hRjHmuWJ/7xt3rxZre70rF1biT6+hvP19/dXQo3JykzH6nVrsWjhQji7OChfW7VreSGA8nQgAcbCzMJCQ9fUhTPdi8UCTzivFxCgvNO7urgYrVBj2FLImynBthqxrBkHItYEQaj+mJVfVWUKTnFZWA0bNkw5WeaNYygaRN2NaNSwIV54/gWMHDkSj40YScKMo24INRkW7LwJ1R8Ra4IgVHNK6D/q/ZeD1YMtJzLvo2wMFjx2dmqKk85NUbiIVc14ELEmCEI1hxpQFg/l0JDyAgNBKAseEjS1KdwsymXaunEgNZcgCNWfcmpQtMXG47pDECoaFmoyDGociFgTBME4KAfBxk5xjcV1h1C5sGQxRdkiQ6HGgYg1QaiG8BL9/Px8/Z5QXrBTXFNYYCDcPqY4DMoY3LvcDHafwxEtroZduNyu0GP3Menp6Sb5Od8tItYE4Q5ITrmsPLazbyz2LH/u3DkVu5EroYIiLSIjw5FKgovhSe3xCQnK9xWTlZVNx9Jw5vRZpKWlkygrUBUfhxPiINpcAXJ+fD372goLC1Ohfky5glP6qhyGa9jDvljWhLIwxQUGTFmCi/36sVNlPsb10u5du3Dw4EGEh4f/7Wx53759peKLzj1z5oxK5zqKr+U6KzcnR53HnU520pxGIo0dJ0dFRUGr1SKVzuP8+Djfh+u4CxcuqHpSxNy/EbEmCHfA8mXL8Pa772L7jh34/fffMXvOPEyZMgUnTpzA4sXz8esvf+DHn39GSkqKirn41Zgx+Pbb8VixYjEOHtiPzz7/DCtWrsBXY79GJFVkr7/6Kn76+Vd8RufFk3CLpgotOTERX335FRYtWoQJ301EJKWZKuzLn2pw/d6dwzmIZU0QSrmRQN21ezciIiNVZ3HmjBmqQ7p48RLMnjVLhSjjfQ5DxsKLI1qwE/IJEyaokGevUF02e/Zsqs9+VmLut99+U9trr72GxLgExMTFIuZSDD54+2388ccfmDhxIrKp4/v5mC8wl657k9JPnzypfxLBgIg1QbgDsrMz8fjIkWjZvDmyMjPx9FP/QY8ePXDy9GmcOx2B7j07on+fe2FtaYEff/oZwx58EP/976tUOc1DyuXL6NKxI9599x2EBgcjhnqSOYX5+OTjD9GuTVskUg8zk/LMoYqya7euePzxx1HbpzbS9ZY604MlVvnMq1E5SaddKAO25piaRYctWmX9zfm5udCSIOMh0gy2kGnMMfyB4Xjt9ddRqNWpocyE2Bjs2rkTA/oPwHvvvYd+/fqp9FdfeQUPDX8AKUnJylp2MSYGX5Gge/qpp5CUnIiM9EwspU7r0IcexRjqnLLwi0tIgKenO1565SU8/tjDOBMWrn8SwYCINUG4A8zpn6+vLwqoomGL119//aVCUzk7OqJPn95UCWqU1S3lchoupyRj48YNWLBgARo2CFFxGZ3d3VU+lhYW0GoL4eVZS1WM7KVeR5UhV6I81Hr6zGk1xJBGQk2r06lrTA8OaV4+VRXPzhHLmlAWpjgMeiN/ejx1Q0d1EFu8CnJy6ddnBmuqq3gagZWFhj4nOsfMHIVFRdDQPmNvb4/EhEScOHUSkReikV9UoIY9LUnoMRxhgzfeS72cBTdneyUU1edOaQ72jrC0tIa1tT10ukJ1jfAPItYE4Q4oIWHFFQ0LtqbNmqGooAg62q9Vywtnz5/D7l07EE8VF8xK8PTTT6NYV6zmcITUrw9rGxuYUUVYCvdszVGi99CvmgrzktJKtFiHsNNhVPmdUHEfjx8/oc4xRcrLlS1/R2JYE4RSuFNYlkB1sLNXQ55/zJgFbYlWCbc1a1diwsRJVDdp4OjkrDqXLVq0wJqVKzHmq6+wccMGZOak49D+w4iKilbCTUtizsbaDp9+9DGmT5tG15TWc4MHDcSv06djzBdjYEGdV28vL6r8St3qqOeh36nahL+RQO5CjaKyArlfTk2FrZM97C2s1byMSxcuKauYj5+PEnEXaN/Z2RHuegtaUnIyskmsBQcFqQDYXEk6OjoiPS0dGksN0lLTULduXaSTKGNrG0+6taOeKgu8zOxs1HJ3RRb1cL29vFV+pkRGRrqaAzN06LC7Dl49efJkBAfXw8CB1T+Qu2GI6lZW65UHfC9D482vhnBThnTuQNRky9PSpUvV69ChQ9VrdaQiArlzfNhOnTrpU0rhOi0xIQHOLi6qTrWhDibD969Tu7aq63j6hg89Aw99Jl+5ggA/PxJm1oi+dEnFrOVyw/tW1laIT0yAp5sHrGmf6z8nJyf1eoXqxTp0HZe19PQ0OLu6Ii+3gO6fD1cXV3VPU0ACuQtCBeHh5qaEGqOCWYfUg5+/n2rQuHGtVy9QNcDKxE8b9xxZqDE8XMBCjXFxdaGKzVEJNbXv7KyOs8izpQqSXwOpMrV3cDJJoVYKD5OUzxAVu+4wFrnBK4K5o1BZsHsGvh+vaj5w4IA+FarDsHbtWtWRqMkYfqumBAuqsoZCuU7zozqJRRXHmeX6ircAqotYqDF+vr7qWg5R1iAkpFTQ0efH9ZUH1VueVP/xNdZW1gisGwAHEnCcrwsJQL5O5VevnsqvNB93aMzM4WBva1JC7VYRsSYIQrWHzf/csNwtGmoUjGWBQUZmOo4dO44vvvhCWfLYNUL0hSh88sknmDp1qlqpx/MZ5//1FxbMn6/e87Evv/zyb7cxV8PW2u+//x5jx45V7hjUCr9Fi/B/b76BlavXoYCOx8TEoKCoSFlzr1y+gm/HfYtvvxmP48ePq+OrV6/Gu++8reZfCjUDtpoK1R8Ra4IgVH9KysfioSsp5oVtxgGJyt1bduGZZ57B5ZQUxFy8iPHjJuKRRx6BZ61amDxuCs6eO4dDR46gV+/e2LtvPx6lY02aNMFfJN6u59DBg8glwXXPPfcgIipKDV/FJsTig48+xszpv9L+FWVZSqX0A7t3YdasGWjWvAUeevQhXLh0SfnPWrpiBd59931sWL8BV65c0edcM+DOQHl0CIwJ/r4ra5hduDtErAmCUM3hFWPlE8OQh1N1RmRIGPTg/WoYilfRpWdno6ioECEhoehBgutw2GE42zvg/kH3qaGoekH+OHnyNM6HnUFOdpY+h3+oFxyM4qIinA8PRy13dzV/qHatOti0YR2yCgqh1ZqRWAEs6HPOys0lYWuGNq1aqeGudvTKQ1W96b6bNm1EXHx8jRM2pjgMylY1sawZByLWBEGo5rCIKB+rBzfFxuK6o4TaUA1V0QYRYUviiv+As2FnsXP3LnRo2w7FVIOz6wRucDdt2YI6vnVgaW2HvLwCFF/n6iUxMQnBJNgsrCxx8NBhnDt/nrZz8A8Igq6wgK7JAS9K5s/ZytJKuWk4cfIkzkecQ9SFaJw9exa79x2Af2CgWtXHE8QF44YFuKkJVGNFxJogCNWfcmpQ2H+UsdiD3NzdUNffT7338/ODu4cHXnvpJcycOQMxF2PwwjMvoLanl1qEwkNZbVq1xaqVy9G1cydYWFqo1cdXExISjHMREThx7Djat2uLxvXr02dRgsNHjuG5Z59VFjefOj6wd3BA0+bN1Krq7du2YuO6zWjVqg1atW8DH29XbN+6DY88/Ch27dqhz7lmUF4dAmNCrGrGg7juEGoUleW6Q6g8eJXinDlzlEuF2rVr61PvjEmTJyPESFx33A0ca3bz5s3KBQPDQ6m9evVSK42Fslm2bJl6HTJkiHqtjlSW6w6hchHXHYIg1AjKy+qhLTYe1x13g4+PjwpTxg6ZeePGQISacD38m+KhUKH6I9+SIAhGQPlILAsjct0hVC7l1SEwNmQo1DgQsSYIQjWnhJcYlMtEaLasSWxQoSwMCzlMDXHdYRyIWBMEoZrDUq3U8nG38ApHsawJwj+IZc04ELEmCILJwDpNLGtCWagOQelbk8FUrYnGiKwGFWoUlbUalHujHL7H1tb2X5UdH7vbSbv8s+RwQBzgmFf0GQIpmyLluRp0/KRJaBAcjEGD7m416MKFC/HV2LFwLKdJ+9HR0QgMDNTvCVUB/844XFe/fv30KdWP8l4Nyr+revXqoUOHDvqUUgyy4Pq6jdO1Wq2K8Xk9hpXHZR0Tbs6trAYVsSbUKCpLrJ08eRL79u/HYyNGwM7OTp9aWmFt2rQJffr0uau5IBzaZ9369ejSuTPOhIWhT+/eJtsDZrE2e9YsDB027K4bqIkk1kJDgu/adYcgVAUV4bojICAAHTt21KeUEhUVpTqKdevW1aeUkpKSouLEdu/eXR03wAJu9Zo1yg1Ii+bN9anCrSKuOwShAuCYij98/wMWzp2LxKQkTJ82Dc8//zy2b9+OTZs346133sHylStx7PgxvPnmGxj7zTdKfKVcvqx67uPHj8fmLZuV5eznn3/G0qVLkUrHvxr7NZ3/fyog99Jly/DzTz8jKTlZVZAZfM8ffsDo0aOxnkSc7jrv9DUedq1fDuikbyoIf8OjAGV1Ar/48ktMnjpVjR7MmDkTb7/1Fk6cOaX2ExISoKVO6e8zZuAtTifxdoy28d9+g7CzZxF2+gxef+MNfP/996rzfOjwYfz4w494+eWXsXHjRlXv/UmdrxdefBFr161DEQk94X8jljWhRlFZlrUFixbBy9NTWdIuXbqEkSNHqnMeffhh/EI93y8+/QS//voLRo56AlHR0Tiw/wAuX07BsOHDldBasmQpvv76Kzz44IP4mK6LpwqwSFuI4HohmDN/Pl589lmq2DZg8JCheP+99/Ag5Zubm4t7unXDFKpE2eO8t7e3/mlqNhkZ6fj000+p966Do6OjPvXOCKfG5En67AYMGKBPEQTjobKc4m6hzqSFmQUKiwqwY88ePP3kk/jik8/x5ntv4+CBA2qhzukTJ/DsCy9gyuTJGPPFFyTAZuPeXr3w5FNPYBHVbyuWr1Ah0jhqCAs87tCOfu45DH3gAaTQ/lPPPIMpEydi0H33oamJW+PEsiYIFYQZ9UjZ9J+YmKgCZFtZWaFN27ZIvnIF5iTGLqelw87BGbW8vNC4cWMU6YqUda1NmzYIDa0PP/+60GlL0LpVKzRv0QJetTyRn6clUbcXOVk5aqKzsgLRxu4m6pAw0xYVKqtaAQfZNqneqBlq166j5pkNGzbsrrb3P/4YnTt31ucrCKYN22rKml+rqh5K3rZjB4qpruERgxJrC+Tl5CiPh9u374C9q6saTcjNz0dWVhZKqJ66eOkCWlAd513LS03hOH3uHJydndGiRXO4uLigto8PLl24gHv79lXTRwKCQ5CVKzFmbwURa4Jwh3Al50oVUGREBC5cvIhzZ8/Cy6sWCkisWWg0yMzKxLnwcBw6dAQuzq6wsbOlXul+HDl6GCkk8jTmJdDo533Mmj0L1jYWVKG5ozC/ALrCQqot1SFVoR44eBB5lO5fNwAZObko4OMmBHvfb9qsmRK7d7O1bNlSNR6CIJRSlusOrnMKSITxb45HAtzc3REUUBe2dvYk4krQuEljZJNAc3J2QX3qfPICKI4z6+7qgUtR0Qg7ewa79+xGS4PFTD+NwdxMA1e6Zs++fYiMjkZ8fBzVoa7qmHBzRKwJwh1Qx88Hru6e6Na9u5pz8fVXn6Nvv35o1qQp2pAg4Am6AwcMwC+//IKw06fx6IhH8eG772PlipXYt3efquRAQq1+/fpqzsjLL7+BnTt2lk7qDfBGTkGBWh1oZWuLdq1aoVu3bjhz+iSOnz6GHvd0Rlpqqv5JTAP+jExzeYUgVBz8uyprIRQPsSYkJmPIffdRHRWK1atXo0P7jvB090BA7QA8P3o0QoLrY/26VSTImqnOVP3gYAQE+uPzr77Ezz/9ghLSgBxnlVdw1/L0VPk2b9oE9w0epjq63339Fe03RUhIiDom3ByZsybUKKprIHf+mf3222+o4+ODzIwMWFtaYviDD+qPCjeDF1fMnj0bQ4cPR527dN0hCMZMRbjuCAoK+tdqUKFykTlrglBN4B7sQw89pN67u7uj1733qvfCLUCfHXXF9TuCIJQXEsTdeJBvShAqCZ5gO2jgQPTt21e9F24RNv7zvBoZBBCEcuVGrjuE6oeINUEQqjc8X83cXBoVQShn2LJW1gIDofohYk0QhGoPz/mT6bWCUL7wb0qGQo0D+ZYEQaj+iFVNECoEsawZByLWBEGo3lDv34w3EWyCUO7cTQxjofIQsSYIQvWGRBoPgMowqCCUP2JZMw5ErAmCIAiCCcLWarFYGwci1gRBqPZIoyII5Y9Y1YwHEWuCIFR7OEi0DIMKQvnCK0Hld2UciFgTBKGaQ42JGNUEodwRp7jGg4g1QRCqOTwEKk5xBaG8Eae4xoOINUG4A1LT0pCdlYXU1DSkpKToU4WKoqRYnOIKQnlTXk5xOZ/4hARkUZ1YUWi1Wpw6dQo6nU6fYlqIWBOE26SwsBCLFi/CggULkZmZiQzakpKTkUCVVVRU1N891WRKO3z4MHJyc9S+cBeIUU0QKoSyLGtcp0VSXXY2LEwdZzHG9dv+/fuRRh1VJjc3F6dPn1adVRZpGRkZyM3Lw9mzZxEXF6deWWCxuIqMjMSRI0dU3Xk1nO/FixdVXleuXFH1KJ/P1/O16ZQn16Hp6enq/FmzZinBZoodZBFrgnCbcIUTeT4cB48cRkREOCLDw/HWG6/jy7Fj8eGHH+IEVSaxsbEYM2YMCboFeOzRx8T6dpeYqaFQUWyCUJ7wb6osy9rsmX9g3Dfj8Nmnn2LL5k1KbL333ntYtmwZJkyYoATbt99+i2nTpuHll1/GqlWrcIbqvXiq915//XV1zkcff6zE3WESaePGj8e8efPw9rvvKhFmgO+/Yf16HD9+HGvXrsWff/yBgoICLFmyRInDZ55+GvPnzsXEyZPVSEY41bV//vknXnvtNdVRNiVErAnCbeLg4IDWbdrg4QeGw87WFvlUueRQj/KNV1/F6NGjsXPLFlWpdOvWDWNJwI16fBR27typv1q4baj3XVIiq0EFobwxWM2ux97RCU8/8zQmTpyIbTt2qnOefPJJDB06FE5OTrhw4QJi42Ixbtw4jBo1CkVFRSikjfNLTU/H+yTs/kuC6uixo+r8Bx94AI+OGKEEWBHVl1fTpm1bbNm6VQk3HkqNoXzd3d2xZ88etKJ69sFHHoGOrrmcdgUhoaH44osv0Kp1a5w4cUKfg2kgYk0Q7gCe8K6liokHEPhHVMLjdFTZFBeXwNbRFoWFWtVjZVsQDw1YW1nxZcKdwBY1MaoJQrlzo/lqbMlmgcajCLa2NjhPnU8eLcjJyUEBpRXTsWL91LH8/HwltAy4kDizpQ6thYUFivIK1HBoIokwvlZXWASz6+7ZqGFDlb9Oq4Wzs7Oy0jVt0kTtp6akqKFWj1qesNFYc0WrLHOcg7U17ZsQItYE4Q5wdHTAuvUbkEsVULHGHJoSDX74/nssmD8f93TriUaNG2IH9UhfevVFHDp8GJ06d9ZfKdwJshpUEMoftoSV9bviuWI//fIzPv3wQ/S7dwCsSHitWbsW2zdtQhyJNhZMtevUwksvvozVq9aUWuj4QkNedJzzLaHdYp0W69duxP69O2FpY42I6OjSc/RY29igfkAAMrKy0LVrNyxbvARBQUHo0auXGrU4eOgQrqSmwcbJETExl/DRBx8gLj4eTUjQmRJmpJ5lbEGoMfB8h0cffVTNeSgPdu/ejS1btuCjjz7Sp5TCZn9eQODm6obiIh0ef/ZxfDdhMlwcHFXvkCsqXliQmZ6JWp61oLGUYMl3Ck9cnj1rNoYOG4o6deroUwXB9LiSmorp06dj5GOPlctvgeeR+fv7o1OnTvqUUubMmYOAgEA0bNgAbm5uaipC4uVk2FrZKGscB3/fsnEz/Px9sf/wQdQLDEaH9u1hZWWlFgp4eXujkOpiXjjg6OiItLRU2Dk7QZtXoCxsbHVjuJ7k+rJQS2JPVwQbEm5X0tPgTXUmw/U517Ourq5q+gnnzYLF1tYW9nZ26pyawP33348VK1bo98pGLGuCcAdYWlrCx8cHtnZUaTg7oHOHTnB3doGLi8vfPVV7O3vqfdYWoVYemEmfUhDKG7bVlDUUWpcEnI+vT6lQY6hO8/b0UsKKxZcdCaXMnEzs2r0H5iVm6NyxI+zt7VW96E1CjWtAHqZkkcXCzJPElz0JPU7jlZ4nT55UG6/s5JWkDnY2Kl91vV6oMXy+n5+fEmoMz2XzoK0mCbVbRcSaIJQDo0e/8HeFIpQ/ZlRVlTVcIwjC3cFDmNfTvl07+Pn66vfK5uGHHsbjjz+OJ574D2xsbfWpN4ctZ23btkWvXr3U1qNHDyXAhP+NiDVBKAe4VyliooKg3r+sBhWEioGHNK+HhzPLSr8ajYXF39YwoeIRsSYIQvWGRbAIYUGoEMqyrAnVDxFrgiBUe9hqKZZLQShf5HdlPMhqUKFGUVmrQYXKQ1aDCkIpqampGPv11/Dx9VWT/e+WAwcPqjlj9YKC9ClCZcODzbPmzsWGDRtKE26AiDWhRlHeYm3X7l3YsH4DPv/8c32KUNkosTZ7FoYOHSZiTTBp2EntoUOHEB8fr08RagK8apYXXNwMEWtCjaK8xdr2HbuwZvVKfPPNN/oUobJhsTZn9hxlWatdu7Y+VRAEwXSQOWuCcBMsLUqg0+njqghVA68GZQ/p0q8UBMFEEbEmCDehqKjscCxCJcKfv7l8B4IgmC4i1gThJrCvIRFrVY/6CuR7EATBRBGxJgg3gYdAxQ9R1VPCEaFlGFQQBBNFxJpgEuTn56kVVLGxsWrLzMxEdnY28vLySo8XFCDl8mUUXycIzM3M/g46fDV8vVar1e9BXZeenv4/51XxNXxfFoG88YIIwzMIN4I/UxHMgiCYLiLWBJPg6LFjmDZ9GlasWKG2sHNhWL9+PY4cPYwsEl7Tfv8VB/bt/7cVjcTa1aLMwPmIcOTm5ur3eG5bEf7888//uRiBr4mMisKZM2dw5MgRpKWmIiExUSbP3xQzFRtUhkEFQTBVRKwJJkFWZhZCQutj1KhRamvevDmSk5MRG5uEX3/7De6uHujZqycsro+HZ15SpmWNrXTs8+jUqVMqv++nTEHspWiUFF8ruthq9t577+GZZ55BVHQ0CvMLEB0ViUmTJuKJxx/H2bDzyEhLR1ZWFt544w2VFws54SpIyHJsUBkGFQTBVBGxJpgEbDFbu3o1xo4di6lTpyLmUoxKX7R4Ps6ePYN+ffvB1tZWpV1NcVFxmZa1MydOIicnBwsXLsDbb7+NNq1a4UpGFkqu+0WFhYVBhxISYSNxhcRhVk42YmLiMHzYA/jk009hZWWB2PhYjP32W/Tr31853500YQLy8/P1OQjKoiZWNUEQTBgRa4JJwCs6O3XpgieffBKPPPLI357wmzVpgm5du2H6H3+gsKhIpV2NuUYDc/N//0zYxsO+vwoKtAgKCkJHytvTwxNm1xl//P0D0CAkGBcuXPxn1hXpDh3tsYDkAb7i4hIcP3IMHdq1Uc9VQpkUaP/9LCaPCDZBEEwUEWuCScBizYvEVHBwsBJXdnZ2Kr1Ny7Z44MEHkZSYiBXLl/9r7hgLqrLmk5WQgDOjzc7OGtu3bcfSpUuRkfHvBQYXLkQjJz1TDa+GhZUOb/KPTlNshqycHOiKdCQIgVYtm2HVqjXYvmMH3N29YG/zbyufaUNCTYZBBUEwUUSsCSaBr68vAgMD9HulNG7cGL7+vkq4ffjBB0hKSlIrNa+GV4OWJdbat2wJe7ruqSefwokTx+Hp6amGUnnIlOep8cZDmc2aNYO1szOiLlzEvb36wdHREU2aNkXbDm3UvDc7JzsE+gfig48+VitMjx45gtdff63MeXKmC3/+shpUEATTRWKDCjWK8o4NumPHDqxevfqWYoNevnwZBw4cUAsPGCcnJ3To0OFvK55wZ6hA7nPmYOjQoagjsUEFQTBBxLImCP+DW40N6uHhgQEDBmDIkCFq69mzpwi18oD7k9e7VBEEQTAhRKwJwk0w0wCWlpb6PaFK4IUFvMhDBgEEQTBRRKwJwk0o1pYoh7dCVUIijf2syWpQQRBMFBFrgnATzM01Kpi7UJWwSJOqShAE00VqQEG4Cbri0hieQlWit6zJMKggCCaKrAYVahS8EnPMmDHKDUcp7CfNnDYWXNw34dBFJcrRbXGxll4t1auZGbvKKJ3Ezj7ZikmksVWtSKtFQX5+mdENhIrF3NxMfRc6XbHyjffSSy/B1dVVf1QQBMF0ELEmCIIgCIJQjTE7cClDxJogCIIg1FSunEZbL1mgU1XoTtP/rJ1Ld+4I4P8Bj+PmQU6SOKEAAAAASUVORK5CYII=;" vertex="1" parent="1">
          <mxGeometry y="800" width="619" height="543" as="geometry" />
        </mxCell>
        <mxCell id="T1UV1dCoxQ2zjjychoh9-25" value="Red_social" style="shape=table;startSize=30;container=1;collapsible=1;childLayout=tableLayout;fixedRows=1;rowLines=0;fontStyle=1;align=center;resizeLast=1;html=1;" vertex="1" parent="1">
          <mxGeometry x="414" y="30" width="180" height="120" as="geometry" />
        </mxCell>
        <mxCell id="T1UV1dCoxQ2zjjychoh9-26" value="" style="shape=tableRow;horizontal=0;startSize=0;swimlaneHead=0;swimlaneBody=0;fillColor=none;collapsible=0;dropTarget=0;points=[[0,0.5],[1,0.5]];portConstraint=eastwest;top=0;left=0;right=0;bottom=1;" vertex="1" parent="T1UV1dCoxQ2zjjychoh9-25">
          <mxGeometry y="30" width="180" height="30" as="geometry" />
        </mxCell>
        <mxCell id="T1UV1dCoxQ2zjjychoh9-27" value="PK" style="shape=partialRectangle;connectable=0;fillColor=none;top=0;left=0;bottom=0;right=0;fontStyle=1;overflow=hidden;whiteSpace=wrap;html=1;" vertex="1" parent="T1UV1dCoxQ2zjjychoh9-26">
          <mxGeometry width="30" height="30" as="geometry">
            <mxRectangle width="30" height="30" as="alternateBounds" />
          </mxGeometry>
        </mxCell>
        <mxCell id="T1UV1dCoxQ2zjjychoh9-28" value="ID_red" style="shape=partialRectangle;connectable=0;fillColor=none;top=0;left=0;bottom=0;right=0;align=left;spacingLeft=6;fontStyle=5;overflow=hidden;whiteSpace=wrap;html=1;" vertex="1" parent="T1UV1dCoxQ2zjjychoh9-26">
          <mxGeometry x="30" width="150" height="30" as="geometry">
            <mxRectangle width="150" height="30" as="alternateBounds" />
          </mxGeometry>
        </mxCell>
        <mxCell id="T1UV1dCoxQ2zjjychoh9-29" value="" style="shape=tableRow;horizontal=0;startSize=0;swimlaneHead=0;swimlaneBody=0;fillColor=none;collapsible=0;dropTarget=0;points=[[0,0.5],[1,0.5]];portConstraint=eastwest;top=0;left=0;right=0;bottom=0;" vertex="1" parent="T1UV1dCoxQ2zjjychoh9-25">
          <mxGeometry y="60" width="180" height="30" as="geometry" />
        </mxCell>
        <mxCell id="T1UV1dCoxQ2zjjychoh9-30" value="" style="shape=partialRectangle;connectable=0;fillColor=none;top=0;left=0;bottom=0;right=0;editable=1;overflow=hidden;whiteSpace=wrap;html=1;" vertex="1" parent="T1UV1dCoxQ2zjjychoh9-29">
          <mxGeometry width="30" height="30" as="geometry">
            <mxRectangle width="30" height="30" as="alternateBounds" />
          </mxGeometry>
        </mxCell>
        <mxCell id="T1UV1dCoxQ2zjjychoh9-31" value="nombre red social" style="shape=partialRectangle;connectable=0;fillColor=none;top=0;left=0;bottom=0;right=0;align=left;spacingLeft=6;overflow=hidden;whiteSpace=wrap;html=1;" vertex="1" parent="T1UV1dCoxQ2zjjychoh9-29">
          <mxGeometry x="30" width="150" height="30" as="geometry">
            <mxRectangle width="150" height="30" as="alternateBounds" />
          </mxGeometry>
        </mxCell>
        <mxCell id="T1UV1dCoxQ2zjjychoh9-35" value="" style="shape=tableRow;horizontal=0;startSize=0;swimlaneHead=0;swimlaneBody=0;fillColor=none;collapsible=0;dropTarget=0;points=[[0,0.5],[1,0.5]];portConstraint=eastwest;top=0;left=0;right=0;bottom=0;" vertex="1" parent="T1UV1dCoxQ2zjjychoh9-25">
          <mxGeometry y="90" width="180" height="30" as="geometry" />
        </mxCell>
        <mxCell id="T1UV1dCoxQ2zjjychoh9-36" value="FK" style="shape=partialRectangle;connectable=0;fillColor=none;top=0;left=0;bottom=0;right=0;editable=1;overflow=hidden;whiteSpace=wrap;html=1;" vertex="1" parent="T1UV1dCoxQ2zjjychoh9-35">
          <mxGeometry width="30" height="30" as="geometry">
            <mxRectangle width="30" height="30" as="alternateBounds" />
          </mxGeometry>
        </mxCell>
        <mxCell id="T1UV1dCoxQ2zjjychoh9-37" value="ID_visitante" style="shape=partialRectangle;connectable=0;fillColor=none;top=0;left=0;bottom=0;right=0;align=left;spacingLeft=6;overflow=hidden;whiteSpace=wrap;html=1;" vertex="1" parent="T1UV1dCoxQ2zjjychoh9-35">
          <mxGeometry x="30" width="150" height="30" as="geometry">
            <mxRectangle width="150" height="30" as="alternateBounds" />
          </mxGeometry>
        </mxCell>
        <mxCell id="T1UV1dCoxQ2zjjychoh9-39" value="Reserva" style="shape=table;startSize=30;container=1;collapsible=1;childLayout=tableLayout;fixedRows=1;rowLines=0;fontStyle=1;align=center;resizeLast=1;html=1;" vertex="1" parent="1">
          <mxGeometry x="360" y="190" width="180" height="120" as="geometry" />
        </mxCell>
        <mxCell id="T1UV1dCoxQ2zjjychoh9-40" value="" style="shape=tableRow;horizontal=0;startSize=0;swimlaneHead=0;swimlaneBody=0;fillColor=none;collapsible=0;dropTarget=0;points=[[0,0.5],[1,0.5]];portConstraint=eastwest;top=0;left=0;right=0;bottom=1;" vertex="1" parent="T1UV1dCoxQ2zjjychoh9-39">
          <mxGeometry y="30" width="180" height="30" as="geometry" />
        </mxCell>
        <mxCell id="T1UV1dCoxQ2zjjychoh9-41" value="PK" style="shape=partialRectangle;connectable=0;fillColor=none;top=0;left=0;bottom=0;right=0;fontStyle=1;overflow=hidden;whiteSpace=wrap;html=1;" vertex="1" parent="T1UV1dCoxQ2zjjychoh9-40">
          <mxGeometry width="30" height="30" as="geometry">
            <mxRectangle width="30" height="30" as="alternateBounds" />
          </mxGeometry>
        </mxCell>
        <mxCell id="T1UV1dCoxQ2zjjychoh9-42" value="ID_visitante" style="shape=partialRectangle;connectable=0;fillColor=none;top=0;left=0;bottom=0;right=0;align=left;spacingLeft=6;fontStyle=5;overflow=hidden;whiteSpace=wrap;html=1;" vertex="1" parent="T1UV1dCoxQ2zjjychoh9-40">
          <mxGeometry x="30" width="150" height="30" as="geometry">
            <mxRectangle width="150" height="30" as="alternateBounds" />
          </mxGeometry>
        </mxCell>
        <mxCell id="T1UV1dCoxQ2zjjychoh9-49" style="shape=tableRow;horizontal=0;startSize=0;swimlaneHead=0;swimlaneBody=0;fillColor=none;collapsible=0;dropTarget=0;points=[[0,0.5],[1,0.5]];portConstraint=eastwest;top=0;left=0;right=0;bottom=1;" vertex="1" parent="T1UV1dCoxQ2zjjychoh9-39">
          <mxGeometry y="60" width="180" height="30" as="geometry" />
        </mxCell>
        <mxCell id="T1UV1dCoxQ2zjjychoh9-50" value="PK" style="shape=partialRectangle;connectable=0;fillColor=none;top=0;left=0;bottom=0;right=0;fontStyle=1;overflow=hidden;whiteSpace=wrap;html=1;" vertex="1" parent="T1UV1dCoxQ2zjjychoh9-49">
          <mxGeometry width="30" height="30" as="geometry">
            <mxRectangle width="30" height="30" as="alternateBounds" />
          </mxGeometry>
        </mxCell>
        <mxCell id="T1UV1dCoxQ2zjjychoh9-51" value="ID_tour" style="shape=partialRectangle;connectable=0;fillColor=none;top=0;left=0;bottom=0;right=0;align=left;spacingLeft=6;fontStyle=5;overflow=hidden;whiteSpace=wrap;html=1;" vertex="1" parent="T1UV1dCoxQ2zjjychoh9-49">
          <mxGeometry x="30" width="150" height="30" as="geometry">
            <mxRectangle width="150" height="30" as="alternateBounds" />
          </mxGeometry>
        </mxCell>
        <mxCell id="T1UV1dCoxQ2zjjychoh9-43" value="" style="shape=tableRow;horizontal=0;startSize=0;swimlaneHead=0;swimlaneBody=0;fillColor=none;collapsible=0;dropTarget=0;points=[[0,0.5],[1,0.5]];portConstraint=eastwest;top=0;left=0;right=0;bottom=0;" vertex="1" parent="T1UV1dCoxQ2zjjychoh9-39">
          <mxGeometry y="90" width="180" height="30" as="geometry" />
        </mxCell>
        <mxCell id="T1UV1dCoxQ2zjjychoh9-44" value="" style="shape=partialRectangle;connectable=0;fillColor=none;top=0;left=0;bottom=0;right=0;editable=1;overflow=hidden;whiteSpace=wrap;html=1;" vertex="1" parent="T1UV1dCoxQ2zjjychoh9-43">
          <mxGeometry width="30" height="30" as="geometry">
            <mxRectangle width="30" height="30" as="alternateBounds" />
          </mxGeometry>
        </mxCell>
        <mxCell id="T1UV1dCoxQ2zjjychoh9-45" value="cupo reservado" style="shape=partialRectangle;connectable=0;fillColor=none;top=0;left=0;bottom=0;right=0;align=left;spacingLeft=6;overflow=hidden;whiteSpace=wrap;html=1;" vertex="1" parent="T1UV1dCoxQ2zjjychoh9-43">
          <mxGeometry x="30" width="150" height="30" as="geometry">
            <mxRectangle width="150" height="30" as="alternateBounds" />
          </mxGeometry>
        </mxCell>
        <mxCell id="T1UV1dCoxQ2zjjychoh9-52" value="Tour" style="shape=table;startSize=30;container=1;collapsible=1;childLayout=tableLayout;fixedRows=1;rowLines=0;fontStyle=1;align=center;resizeLast=1;html=1;" vertex="1" parent="1">
          <mxGeometry x="590" y="190" width="180" height="210" as="geometry" />
        </mxCell>
        <mxCell id="T1UV1dCoxQ2zjjychoh9-53" value="" style="shape=tableRow;horizontal=0;startSize=0;swimlaneHead=0;swimlaneBody=0;fillColor=none;collapsible=0;dropTarget=0;points=[[0,0.5],[1,0.5]];portConstraint=eastwest;top=0;left=0;right=0;bottom=1;" vertex="1" parent="T1UV1dCoxQ2zjjychoh9-52">
          <mxGeometry y="30" width="180" height="30" as="geometry" />
        </mxCell>
        <mxCell id="T1UV1dCoxQ2zjjychoh9-54" value="PK" style="shape=partialRectangle;connectable=0;fillColor=none;top=0;left=0;bottom=0;right=0;fontStyle=1;overflow=hidden;whiteSpace=wrap;html=1;" vertex="1" parent="T1UV1dCoxQ2zjjychoh9-53">
          <mxGeometry width="30" height="30" as="geometry">
            <mxRectangle width="30" height="30" as="alternateBounds" />
          </mxGeometry>
        </mxCell>
        <mxCell id="T1UV1dCoxQ2zjjychoh9-55" value="ID_tour" style="shape=partialRectangle;connectable=0;fillColor=none;top=0;left=0;bottom=0;right=0;align=left;spacingLeft=6;fontStyle=5;overflow=hidden;whiteSpace=wrap;html=1;" vertex="1" parent="T1UV1dCoxQ2zjjychoh9-53">
          <mxGeometry x="30" width="150" height="30" as="geometry">
            <mxRectangle width="150" height="30" as="alternateBounds" />
          </mxGeometry>
        </mxCell>
        <mxCell id="T1UV1dCoxQ2zjjychoh9-56" value="" style="shape=tableRow;horizontal=0;startSize=0;swimlaneHead=0;swimlaneBody=0;fillColor=none;collapsible=0;dropTarget=0;points=[[0,0.5],[1,0.5]];portConstraint=eastwest;top=0;left=0;right=0;bottom=0;" vertex="1" parent="T1UV1dCoxQ2zjjychoh9-52">
          <mxGeometry y="60" width="180" height="30" as="geometry" />
        </mxCell>
        <mxCell id="T1UV1dCoxQ2zjjychoh9-57" value="" style="shape=partialRectangle;connectable=0;fillColor=none;top=0;left=0;bottom=0;right=0;editable=1;overflow=hidden;whiteSpace=wrap;html=1;" vertex="1" parent="T1UV1dCoxQ2zjjychoh9-56">
          <mxGeometry width="30" height="30" as="geometry">
            <mxRectangle width="30" height="30" as="alternateBounds" />
          </mxGeometry>
        </mxCell>
        <mxCell id="T1UV1dCoxQ2zjjychoh9-58" value="descripcion" style="shape=partialRectangle;connectable=0;fillColor=none;top=0;left=0;bottom=0;right=0;align=left;spacingLeft=6;overflow=hidden;whiteSpace=wrap;html=1;" vertex="1" parent="T1UV1dCoxQ2zjjychoh9-56">
          <mxGeometry x="30" width="150" height="30" as="geometry">
            <mxRectangle width="150" height="30" as="alternateBounds" />
          </mxGeometry>
        </mxCell>
        <mxCell id="T1UV1dCoxQ2zjjychoh9-59" value="" style="shape=tableRow;horizontal=0;startSize=0;swimlaneHead=0;swimlaneBody=0;fillColor=none;collapsible=0;dropTarget=0;points=[[0,0.5],[1,0.5]];portConstraint=eastwest;top=0;left=0;right=0;bottom=0;" vertex="1" parent="T1UV1dCoxQ2zjjychoh9-52">
          <mxGeometry y="90" width="180" height="30" as="geometry" />
        </mxCell>
        <mxCell id="T1UV1dCoxQ2zjjychoh9-60" value="" style="shape=partialRectangle;connectable=0;fillColor=none;top=0;left=0;bottom=0;right=0;editable=1;overflow=hidden;whiteSpace=wrap;html=1;" vertex="1" parent="T1UV1dCoxQ2zjjychoh9-59">
          <mxGeometry width="30" height="30" as="geometry">
            <mxRectangle width="30" height="30" as="alternateBounds" />
          </mxGeometry>
        </mxCell>
        <mxCell id="T1UV1dCoxQ2zjjychoh9-61" value="nombre" style="shape=partialRectangle;connectable=0;fillColor=none;top=0;left=0;bottom=0;right=0;align=left;spacingLeft=6;overflow=hidden;whiteSpace=wrap;html=1;" vertex="1" parent="T1UV1dCoxQ2zjjychoh9-59">
          <mxGeometry x="30" width="150" height="30" as="geometry">
            <mxRectangle width="150" height="30" as="alternateBounds" />
          </mxGeometry>
        </mxCell>
        <mxCell id="T1UV1dCoxQ2zjjychoh9-62" value="" style="shape=tableRow;horizontal=0;startSize=0;swimlaneHead=0;swimlaneBody=0;fillColor=none;collapsible=0;dropTarget=0;points=[[0,0.5],[1,0.5]];portConstraint=eastwest;top=0;left=0;right=0;bottom=0;" vertex="1" parent="T1UV1dCoxQ2zjjychoh9-52">
          <mxGeometry y="120" width="180" height="30" as="geometry" />
        </mxCell>
        <mxCell id="T1UV1dCoxQ2zjjychoh9-63" value="" style="shape=partialRectangle;connectable=0;fillColor=none;top=0;left=0;bottom=0;right=0;editable=1;overflow=hidden;whiteSpace=wrap;html=1;" vertex="1" parent="T1UV1dCoxQ2zjjychoh9-62">
          <mxGeometry width="30" height="30" as="geometry">
            <mxRectangle width="30" height="30" as="alternateBounds" />
          </mxGeometry>
        </mxCell>
        <mxCell id="T1UV1dCoxQ2zjjychoh9-64" value="precio" style="shape=partialRectangle;connectable=0;fillColor=none;top=0;left=0;bottom=0;right=0;align=left;spacingLeft=6;overflow=hidden;whiteSpace=wrap;html=1;" vertex="1" parent="T1UV1dCoxQ2zjjychoh9-62">
          <mxGeometry x="30" width="150" height="30" as="geometry">
            <mxRectangle width="150" height="30" as="alternateBounds" />
          </mxGeometry>
        </mxCell>
        <mxCell id="T1UV1dCoxQ2zjjychoh9-65" style="shape=tableRow;horizontal=0;startSize=0;swimlaneHead=0;swimlaneBody=0;fillColor=none;collapsible=0;dropTarget=0;points=[[0,0.5],[1,0.5]];portConstraint=eastwest;top=0;left=0;right=0;bottom=0;" vertex="1" parent="T1UV1dCoxQ2zjjychoh9-52">
          <mxGeometry y="150" width="180" height="30" as="geometry" />
        </mxCell>
        <mxCell id="T1UV1dCoxQ2zjjychoh9-66" style="shape=partialRectangle;connectable=0;fillColor=none;top=0;left=0;bottom=0;right=0;editable=1;overflow=hidden;whiteSpace=wrap;html=1;" vertex="1" parent="T1UV1dCoxQ2zjjychoh9-65">
          <mxGeometry width="30" height="30" as="geometry">
            <mxRectangle width="30" height="30" as="alternateBounds" />
          </mxGeometry>
        </mxCell>
        <mxCell id="T1UV1dCoxQ2zjjychoh9-67" value="punto encuentro" style="shape=partialRectangle;connectable=0;fillColor=none;top=0;left=0;bottom=0;right=0;align=left;spacingLeft=6;overflow=hidden;whiteSpace=wrap;html=1;" vertex="1" parent="T1UV1dCoxQ2zjjychoh9-65">
          <mxGeometry x="30" width="150" height="30" as="geometry">
            <mxRectangle width="150" height="30" as="alternateBounds" />
          </mxGeometry>
        </mxCell>
        <mxCell id="T1UV1dCoxQ2zjjychoh9-68" style="shape=tableRow;horizontal=0;startSize=0;swimlaneHead=0;swimlaneBody=0;fillColor=none;collapsible=0;dropTarget=0;points=[[0,0.5],[1,0.5]];portConstraint=eastwest;top=0;left=0;right=0;bottom=0;" vertex="1" parent="T1UV1dCoxQ2zjjychoh9-52">
          <mxGeometry y="180" width="180" height="30" as="geometry" />
        </mxCell>
        <mxCell id="T1UV1dCoxQ2zjjychoh9-69" value="FK" style="shape=partialRectangle;connectable=0;fillColor=none;top=0;left=0;bottom=0;right=0;editable=1;overflow=hidden;whiteSpace=wrap;html=1;" vertex="1" parent="T1UV1dCoxQ2zjjychoh9-68">
          <mxGeometry width="30" height="30" as="geometry">
            <mxRectangle width="30" height="30" as="alternateBounds" />
          </mxGeometry>
        </mxCell>
        <mxCell id="T1UV1dCoxQ2zjjychoh9-70" value="id_empresa" style="shape=partialRectangle;connectable=0;fillColor=none;top=0;left=0;bottom=0;right=0;align=left;spacingLeft=6;overflow=hidden;whiteSpace=wrap;html=1;" vertex="1" parent="T1UV1dCoxQ2zjjychoh9-68">
          <mxGeometry x="30" width="150" height="30" as="geometry">
            <mxRectangle width="150" height="30" as="alternateBounds" />
          </mxGeometry>
        </mxCell>
        <mxCell id="T1UV1dCoxQ2zjjychoh9-74" style="edgeStyle=orthogonalEdgeStyle;rounded=0;orthogonalLoop=1;jettySize=auto;html=1;" edge="1" parent="1" source="T1UV1dCoxQ2zjjychoh9-19" target="T1UV1dCoxQ2zjjychoh9-49">
          <mxGeometry relative="1" as="geometry" />
        </mxCell>
        <mxCell id="T1UV1dCoxQ2zjjychoh9-75" style="edgeStyle=orthogonalEdgeStyle;rounded=0;orthogonalLoop=1;jettySize=auto;html=1;entryX=0;entryY=0.5;entryDx=0;entryDy=0;" edge="1" parent="1" source="T1UV1dCoxQ2zjjychoh9-40" target="T1UV1dCoxQ2zjjychoh9-59">
          <mxGeometry relative="1" as="geometry" />
        </mxCell>
        <mxCell id="T1UV1dCoxQ2zjjychoh9-76" value="Asistencia" style="shape=table;startSize=30;container=1;collapsible=1;childLayout=tableLayout;fixedRows=1;rowLines=0;fontStyle=1;align=center;resizeLast=1;html=1;" vertex="1" parent="1">
          <mxGeometry x="260" y="350" width="180" height="90" as="geometry" />
        </mxCell>
        <mxCell id="T1UV1dCoxQ2zjjychoh9-77" value="" style="shape=tableRow;horizontal=0;startSize=0;swimlaneHead=0;swimlaneBody=0;fillColor=none;collapsible=0;dropTarget=0;points=[[0,0.5],[1,0.5]];portConstraint=eastwest;top=0;left=0;right=0;bottom=1;" vertex="1" parent="T1UV1dCoxQ2zjjychoh9-76">
          <mxGeometry y="30" width="180" height="30" as="geometry" />
        </mxCell>
        <mxCell id="T1UV1dCoxQ2zjjychoh9-78" value="PK" style="shape=partialRectangle;connectable=0;fillColor=none;top=0;left=0;bottom=0;right=0;fontStyle=1;overflow=hidden;whiteSpace=wrap;html=1;" vertex="1" parent="T1UV1dCoxQ2zjjychoh9-77">
          <mxGeometry width="30" height="30" as="geometry">
            <mxRectangle width="30" height="30" as="alternateBounds" />
          </mxGeometry>
        </mxCell>
        <mxCell id="T1UV1dCoxQ2zjjychoh9-79" value="ID_visitante" style="shape=partialRectangle;connectable=0;fillColor=none;top=0;left=0;bottom=0;right=0;align=left;spacingLeft=6;fontStyle=5;overflow=hidden;whiteSpace=wrap;html=1;" vertex="1" parent="T1UV1dCoxQ2zjjychoh9-77">
          <mxGeometry x="30" width="150" height="30" as="geometry">
            <mxRectangle width="150" height="30" as="alternateBounds" />
          </mxGeometry>
        </mxCell>
        <mxCell id="T1UV1dCoxQ2zjjychoh9-80" style="shape=tableRow;horizontal=0;startSize=0;swimlaneHead=0;swimlaneBody=0;fillColor=none;collapsible=0;dropTarget=0;points=[[0,0.5],[1,0.5]];portConstraint=eastwest;top=0;left=0;right=0;bottom=1;" vertex="1" parent="T1UV1dCoxQ2zjjychoh9-76">
          <mxGeometry y="60" width="180" height="30" as="geometry" />
        </mxCell>
        <mxCell id="T1UV1dCoxQ2zjjychoh9-81" value="PK" style="shape=partialRectangle;connectable=0;fillColor=none;top=0;left=0;bottom=0;right=0;fontStyle=1;overflow=hidden;whiteSpace=wrap;html=1;" vertex="1" parent="T1UV1dCoxQ2zjjychoh9-80">
          <mxGeometry width="30" height="30" as="geometry">
            <mxRectangle width="30" height="30" as="alternateBounds" />
          </mxGeometry>
        </mxCell>
        <mxCell id="T1UV1dCoxQ2zjjychoh9-82" value="ID_tour" style="shape=partialRectangle;connectable=0;fillColor=none;top=0;left=0;bottom=0;right=0;align=left;spacingLeft=6;fontStyle=5;overflow=hidden;whiteSpace=wrap;html=1;" vertex="1" parent="T1UV1dCoxQ2zjjychoh9-80">
          <mxGeometry x="30" width="150" height="30" as="geometry">
            <mxRectangle width="150" height="30" as="alternateBounds" />
          </mxGeometry>
        </mxCell>
        <mxCell id="T1UV1dCoxQ2zjjychoh9-87" style="edgeStyle=orthogonalEdgeStyle;rounded=0;orthogonalLoop=1;jettySize=auto;html=1;entryX=-0.004;entryY=0.222;entryDx=0;entryDy=0;entryPerimeter=0;" edge="1" parent="1" source="T1UV1dCoxQ2zjjychoh9-80" target="T1UV1dCoxQ2zjjychoh9-65">
          <mxGeometry relative="1" as="geometry" />
        </mxCell>
        <mxCell id="T1UV1dCoxQ2zjjychoh9-155" style="edgeStyle=orthogonalEdgeStyle;rounded=0;orthogonalLoop=1;jettySize=auto;html=1;" edge="1" parent="1" source="T1UV1dCoxQ2zjjychoh9-88" target="T1UV1dCoxQ2zjjychoh9-114">
          <mxGeometry relative="1" as="geometry" />
        </mxCell>
        <mxCell id="T1UV1dCoxQ2zjjychoh9-88" value="ReseÃ±a" style="shape=table;startSize=30;container=1;collapsible=1;childLayout=tableLayout;fixedRows=1;rowLines=0;fontStyle=1;align=center;resizeLast=1;html=1;" vertex="1" parent="1">
          <mxGeometry x="-160" y="40" width="180" height="270" as="geometry" />
        </mxCell>
        <mxCell id="T1UV1dCoxQ2zjjychoh9-89" value="" style="shape=tableRow;horizontal=0;startSize=0;swimlaneHead=0;swimlaneBody=0;fillColor=none;collapsible=0;dropTarget=0;points=[[0,0.5],[1,0.5]];portConstraint=eastwest;top=0;left=0;right=0;bottom=1;" vertex="1" parent="T1UV1dCoxQ2zjjychoh9-88">
          <mxGeometry y="30" width="180" height="30" as="geometry" />
        </mxCell>
        <mxCell id="T1UV1dCoxQ2zjjychoh9-90" value="PK" style="shape=partialRectangle;connectable=0;fillColor=none;top=0;left=0;bottom=0;right=0;fontStyle=1;overflow=hidden;whiteSpace=wrap;html=1;" vertex="1" parent="T1UV1dCoxQ2zjjychoh9-89">
          <mxGeometry width="30" height="30" as="geometry">
            <mxRectangle width="30" height="30" as="alternateBounds" />
          </mxGeometry>
        </mxCell>
        <mxCell id="T1UV1dCoxQ2zjjychoh9-91" value="ID_reseÃ±a" style="shape=partialRectangle;connectable=0;fillColor=none;top=0;left=0;bottom=0;right=0;align=left;spacingLeft=6;fontStyle=5;overflow=hidden;whiteSpace=wrap;html=1;" vertex="1" parent="T1UV1dCoxQ2zjjychoh9-89">
          <mxGeometry x="30" width="150" height="30" as="geometry">
            <mxRectangle width="150" height="30" as="alternateBounds" />
          </mxGeometry>
        </mxCell>
        <mxCell id="T1UV1dCoxQ2zjjychoh9-92" value="" style="shape=tableRow;horizontal=0;startSize=0;swimlaneHead=0;swimlaneBody=0;fillColor=none;collapsible=0;dropTarget=0;points=[[0,0.5],[1,0.5]];portConstraint=eastwest;top=0;left=0;right=0;bottom=0;" vertex="1" parent="T1UV1dCoxQ2zjjychoh9-88">
          <mxGeometry y="60" width="180" height="30" as="geometry" />
        </mxCell>
        <mxCell id="T1UV1dCoxQ2zjjychoh9-93" value="" style="shape=partialRectangle;connectable=0;fillColor=none;top=0;left=0;bottom=0;right=0;editable=1;overflow=hidden;whiteSpace=wrap;html=1;" vertex="1" parent="T1UV1dCoxQ2zjjychoh9-92">
          <mxGeometry width="30" height="30" as="geometry">
            <mxRectangle width="30" height="30" as="alternateBounds" />
          </mxGeometry>
        </mxCell>
        <mxCell id="T1UV1dCoxQ2zjjychoh9-94" value="comentario" style="shape=partialRectangle;connectable=0;fillColor=none;top=0;left=0;bottom=0;right=0;align=left;spacingLeft=6;overflow=hidden;whiteSpace=wrap;html=1;" vertex="1" parent="T1UV1dCoxQ2zjjychoh9-92">
          <mxGeometry x="30" width="150" height="30" as="geometry">
            <mxRectangle width="150" height="30" as="alternateBounds" />
          </mxGeometry>
        </mxCell>
        <mxCell id="T1UV1dCoxQ2zjjychoh9-95" value="" style="shape=tableRow;horizontal=0;startSize=0;swimlaneHead=0;swimlaneBody=0;fillColor=none;collapsible=0;dropTarget=0;points=[[0,0.5],[1,0.5]];portConstraint=eastwest;top=0;left=0;right=0;bottom=0;" vertex="1" parent="T1UV1dCoxQ2zjjychoh9-88">
          <mxGeometry y="90" width="180" height="30" as="geometry" />
        </mxCell>
        <mxCell id="T1UV1dCoxQ2zjjychoh9-96" value="" style="shape=partialRectangle;connectable=0;fillColor=none;top=0;left=0;bottom=0;right=0;editable=1;overflow=hidden;whiteSpace=wrap;html=1;" vertex="1" parent="T1UV1dCoxQ2zjjychoh9-95">
          <mxGeometry width="30" height="30" as="geometry">
            <mxRectangle width="30" height="30" as="alternateBounds" />
          </mxGeometry>
        </mxCell>
        <mxCell id="T1UV1dCoxQ2zjjychoh9-97" value="calificaciÃ³n" style="shape=partialRectangle;connectable=0;fillColor=none;top=0;left=0;bottom=0;right=0;align=left;spacingLeft=6;overflow=hidden;whiteSpace=wrap;html=1;" vertex="1" parent="T1UV1dCoxQ2zjjychoh9-95">
          <mxGeometry x="30" width="150" height="30" as="geometry">
            <mxRectangle width="150" height="30" as="alternateBounds" />
          </mxGeometry>
        </mxCell>
        <mxCell id="T1UV1dCoxQ2zjjychoh9-98" value="" style="shape=tableRow;horizontal=0;startSize=0;swimlaneHead=0;swimlaneBody=0;fillColor=none;collapsible=0;dropTarget=0;points=[[0,0.5],[1,0.5]];portConstraint=eastwest;top=0;left=0;right=0;bottom=0;" vertex="1" parent="T1UV1dCoxQ2zjjychoh9-88">
          <mxGeometry y="120" width="180" height="30" as="geometry" />
        </mxCell>
        <mxCell id="T1UV1dCoxQ2zjjychoh9-99" value="" style="shape=partialRectangle;connectable=0;fillColor=none;top=0;left=0;bottom=0;right=0;editable=1;overflow=hidden;whiteSpace=wrap;html=1;" vertex="1" parent="T1UV1dCoxQ2zjjychoh9-98">
          <mxGeometry width="30" height="30" as="geometry">
            <mxRectangle width="30" height="30" as="alternateBounds" />
          </mxGeometry>
        </mxCell>
        <mxCell id="T1UV1dCoxQ2zjjychoh9-100" value="fecha" style="shape=partialRectangle;connectable=0;fillColor=none;top=0;left=0;bottom=0;right=0;align=left;spacingLeft=6;overflow=hidden;whiteSpace=wrap;html=1;" vertex="1" parent="T1UV1dCoxQ2zjjychoh9-98">
          <mxGeometry x="30" width="150" height="30" as="geometry">
            <mxRectangle width="150" height="30" as="alternateBounds" />
          </mxGeometry>
        </mxCell>
        <mxCell id="T1UV1dCoxQ2zjjychoh9-101" style="shape=tableRow;horizontal=0;startSize=0;swimlaneHead=0;swimlaneBody=0;fillColor=none;collapsible=0;dropTarget=0;points=[[0,0.5],[1,0.5]];portConstraint=eastwest;top=0;left=0;right=0;bottom=0;" vertex="1" parent="T1UV1dCoxQ2zjjychoh9-88">
          <mxGeometry y="150" width="180" height="30" as="geometry" />
        </mxCell>
        <mxCell id="T1UV1dCoxQ2zjjychoh9-102" style="shape=partialRectangle;connectable=0;fillColor=none;top=0;left=0;bottom=0;right=0;editable=1;overflow=hidden;whiteSpace=wrap;html=1;" vertex="1" parent="T1UV1dCoxQ2zjjychoh9-101">
          <mxGeometry width="30" height="30" as="geometry">
            <mxRectangle width="30" height="30" as="alternateBounds" />
          </mxGeometry>
        </mxCell>
        <mxCell id="T1UV1dCoxQ2zjjychoh9-103" value="hora" style="shape=partialRectangle;connectable=0;fillColor=none;top=0;left=0;bottom=0;right=0;align=left;spacingLeft=6;overflow=hidden;whiteSpace=wrap;html=1;" vertex="1" parent="T1UV1dCoxQ2zjjychoh9-101">
          <mxGeometry x="30" width="150" height="30" as="geometry">
            <mxRectangle width="150" height="30" as="alternateBounds" />
          </mxGeometry>
        </mxCell>
        <mxCell id="T1UV1dCoxQ2zjjychoh9-104" style="shape=tableRow;horizontal=0;startSize=0;swimlaneHead=0;swimlaneBody=0;fillColor=none;collapsible=0;dropTarget=0;points=[[0,0.5],[1,0.5]];portConstraint=eastwest;top=0;left=0;right=0;bottom=0;" vertex="1" parent="T1UV1dCoxQ2zjjychoh9-88">
          <mxGeometry y="180" width="180" height="30" as="geometry" />
        </mxCell>
        <mxCell id="T1UV1dCoxQ2zjjychoh9-105" style="shape=partialRectangle;connectable=0;fillColor=none;top=0;left=0;bottom=0;right=0;editable=1;overflow=hidden;whiteSpace=wrap;html=1;" vertex="1" parent="T1UV1dCoxQ2zjjychoh9-104">
          <mxGeometry width="30" height="30" as="geometry">
            <mxRectangle width="30" height="30" as="alternateBounds" />
          </mxGeometry>
        </mxCell>
        <mxCell id="T1UV1dCoxQ2zjjychoh9-106" value="nacionalidad" style="shape=partialRectangle;connectable=0;fillColor=none;top=0;left=0;bottom=0;right=0;align=left;spacingLeft=6;overflow=hidden;whiteSpace=wrap;html=1;" vertex="1" parent="T1UV1dCoxQ2zjjychoh9-104">
          <mxGeometry x="30" width="150" height="30" as="geometry">
            <mxRectangle width="150" height="30" as="alternateBounds" />
          </mxGeometry>
        </mxCell>
        <mxCell id="T1UV1dCoxQ2zjjychoh9-107" style="shape=tableRow;horizontal=0;startSize=0;swimlaneHead=0;swimlaneBody=0;fillColor=none;collapsible=0;dropTarget=0;points=[[0,0.5],[1,0.5]];portConstraint=eastwest;top=0;left=0;right=0;bottom=0;" vertex="1" parent="T1UV1dCoxQ2zjjychoh9-88">
          <mxGeometry y="210" width="180" height="30" as="geometry" />
        </mxCell>
        <mxCell id="T1UV1dCoxQ2zjjychoh9-108" value="FK" style="shape=partialRectangle;connectable=0;fillColor=none;top=0;left=0;bottom=0;right=0;editable=1;overflow=hidden;whiteSpace=wrap;html=1;" vertex="1" parent="T1UV1dCoxQ2zjjychoh9-107">
          <mxGeometry width="30" height="30" as="geometry">
            <mxRectangle width="30" height="30" as="alternateBounds" />
          </mxGeometry>
        </mxCell>
        <mxCell id="T1UV1dCoxQ2zjjychoh9-109" value="ID_visitante" style="shape=partialRectangle;connectable=0;fillColor=none;top=0;left=0;bottom=0;right=0;align=left;spacingLeft=6;overflow=hidden;whiteSpace=wrap;html=1;" vertex="1" parent="T1UV1dCoxQ2zjjychoh9-107">
          <mxGeometry x="30" width="150" height="30" as="geometry">
            <mxRectangle width="150" height="30" as="alternateBounds" />
          </mxGeometry>
        </mxCell>
        <mxCell id="T1UV1dCoxQ2zjjychoh9-110" style="shape=tableRow;horizontal=0;startSize=0;swimlaneHead=0;swimlaneBody=0;fillColor=none;collapsible=0;dropTarget=0;points=[[0,0.5],[1,0.5]];portConstraint=eastwest;top=0;left=0;right=0;bottom=0;" vertex="1" parent="T1UV1dCoxQ2zjjychoh9-88">
          <mxGeometry y="240" width="180" height="30" as="geometry" />
        </mxCell>
        <mxCell id="T1UV1dCoxQ2zjjychoh9-111" value="FK" style="shape=partialRectangle;connectable=0;fillColor=none;top=0;left=0;bottom=0;right=0;editable=1;overflow=hidden;whiteSpace=wrap;html=1;" vertex="1" parent="T1UV1dCoxQ2zjjychoh9-110">
          <mxGeometry width="30" height="30" as="geometry">
            <mxRectangle width="30" height="30" as="alternateBounds" />
          </mxGeometry>
        </mxCell>
        <mxCell id="T1UV1dCoxQ2zjjychoh9-112" value="ID_sitio" style="shape=partialRectangle;connectable=0;fillColor=none;top=0;left=0;bottom=0;right=0;align=left;spacingLeft=6;overflow=hidden;whiteSpace=wrap;html=1;" vertex="1" parent="T1UV1dCoxQ2zjjychoh9-110">
          <mxGeometry x="30" width="150" height="30" as="geometry">
            <mxRectangle width="150" height="30" as="alternateBounds" />
          </mxGeometry>
        </mxCell>
        <mxCell id="T1UV1dCoxQ2zjjychoh9-113" style="edgeStyle=orthogonalEdgeStyle;rounded=0;orthogonalLoop=1;jettySize=auto;html=1;entryX=1;entryY=0.5;entryDx=0;entryDy=0;" edge="1" parent="1" source="T1UV1dCoxQ2zjjychoh9-9" target="T1UV1dCoxQ2zjjychoh9-95">
          <mxGeometry relative="1" as="geometry" />
        </mxCell>
        <mxCell id="T1UV1dCoxQ2zjjychoh9-175" style="edgeStyle=orthogonalEdgeStyle;rounded=0;orthogonalLoop=1;jettySize=auto;html=1;" edge="1" parent="1" source="T1UV1dCoxQ2zjjychoh9-114" target="T1UV1dCoxQ2zjjychoh9-156">
          <mxGeometry relative="1" as="geometry" />
        </mxCell>
        <mxCell id="T1UV1dCoxQ2zjjychoh9-114" value="Sitio" style="shape=table;startSize=30;container=1;collapsible=1;childLayout=tableLayout;fixedRows=1;rowLines=0;fontStyle=1;align=center;resizeLast=1;html=1;" vertex="1" parent="1">
          <mxGeometry x="-250" y="430" width="180" height="180" as="geometry" />
        </mxCell>
        <mxCell id="T1UV1dCoxQ2zjjychoh9-115" value="" style="shape=tableRow;horizontal=0;startSize=0;swimlaneHead=0;swimlaneBody=0;fillColor=none;collapsible=0;dropTarget=0;points=[[0,0.5],[1,0.5]];portConstraint=eastwest;top=0;left=0;right=0;bottom=1;" vertex="1" parent="T1UV1dCoxQ2zjjychoh9-114">
          <mxGeometry y="30" width="180" height="30" as="geometry" />
        </mxCell>
        <mxCell id="T1UV1dCoxQ2zjjychoh9-116" value="PK" style="shape=partialRectangle;connectable=0;fillColor=none;top=0;left=0;bottom=0;right=0;fontStyle=1;overflow=hidden;whiteSpace=wrap;html=1;" vertex="1" parent="T1UV1dCoxQ2zjjychoh9-115">
          <mxGeometry width="30" height="30" as="geometry">
            <mxRectangle width="30" height="30" as="alternateBounds" />
          </mxGeometry>
        </mxCell>
        <mxCell id="T1UV1dCoxQ2zjjychoh9-117" value="ID_sitio" style="shape=partialRectangle;connectable=0;fillColor=none;top=0;left=0;bottom=0;right=0;align=left;spacingLeft=6;fontStyle=5;overflow=hidden;whiteSpace=wrap;html=1;" vertex="1" parent="T1UV1dCoxQ2zjjychoh9-115">
          <mxGeometry x="30" width="150" height="30" as="geometry">
            <mxRectangle width="150" height="30" as="alternateBounds" />
          </mxGeometry>
        </mxCell>
        <mxCell id="T1UV1dCoxQ2zjjychoh9-118" value="" style="shape=tableRow;horizontal=0;startSize=0;swimlaneHead=0;swimlaneBody=0;fillColor=none;collapsible=0;dropTarget=0;points=[[0,0.5],[1,0.5]];portConstraint=eastwest;top=0;left=0;right=0;bottom=0;" vertex="1" parent="T1UV1dCoxQ2zjjychoh9-114">
          <mxGeometry y="60" width="180" height="30" as="geometry" />
        </mxCell>
        <mxCell id="T1UV1dCoxQ2zjjychoh9-119" value="" style="shape=partialRectangle;connectable=0;fillColor=none;top=0;left=0;bottom=0;right=0;editable=1;overflow=hidden;whiteSpace=wrap;html=1;" vertex="1" parent="T1UV1dCoxQ2zjjychoh9-118">
          <mxGeometry width="30" height="30" as="geometry">
            <mxRectangle width="30" height="30" as="alternateBounds" />
          </mxGeometry>
        </mxCell>
        <mxCell id="T1UV1dCoxQ2zjjychoh9-120" value="nombre" style="shape=partialRectangle;connectable=0;fillColor=none;top=0;left=0;bottom=0;right=0;align=left;spacingLeft=6;overflow=hidden;whiteSpace=wrap;html=1;" vertex="1" parent="T1UV1dCoxQ2zjjychoh9-118">
          <mxGeometry x="30" width="150" height="30" as="geometry">
            <mxRectangle width="150" height="30" as="alternateBounds" />
          </mxGeometry>
        </mxCell>
        <mxCell id="T1UV1dCoxQ2zjjychoh9-121" value="" style="shape=tableRow;horizontal=0;startSize=0;swimlaneHead=0;swimlaneBody=0;fillColor=none;collapsible=0;dropTarget=0;points=[[0,0.5],[1,0.5]];portConstraint=eastwest;top=0;left=0;right=0;bottom=0;" vertex="1" parent="T1UV1dCoxQ2zjjychoh9-114">
          <mxGeometry y="90" width="180" height="30" as="geometry" />
        </mxCell>
        <mxCell id="T1UV1dCoxQ2zjjychoh9-122" value="FK" style="shape=partialRectangle;connectable=0;fillColor=none;top=0;left=0;bottom=0;right=0;editable=1;overflow=hidden;whiteSpace=wrap;html=1;" vertex="1" parent="T1UV1dCoxQ2zjjychoh9-121">
          <mxGeometry width="30" height="30" as="geometry">
            <mxRectangle width="30" height="30" as="alternateBounds" />
          </mxGeometry>
        </mxCell>
        <mxCell id="T1UV1dCoxQ2zjjychoh9-123" value="ID_tipo" style="shape=partialRectangle;connectable=0;fillColor=none;top=0;left=0;bottom=0;right=0;align=left;spacingLeft=6;overflow=hidden;whiteSpace=wrap;html=1;" vertex="1" parent="T1UV1dCoxQ2zjjychoh9-121">
          <mxGeometry x="30" width="150" height="30" as="geometry">
            <mxRectangle width="150" height="30" as="alternateBounds" />
          </mxGeometry>
        </mxCell>
        <mxCell id="T1UV1dCoxQ2zjjychoh9-124" value="" style="shape=tableRow;horizontal=0;startSize=0;swimlaneHead=0;swimlaneBody=0;fillColor=none;collapsible=0;dropTarget=0;points=[[0,0.5],[1,0.5]];portConstraint=eastwest;top=0;left=0;right=0;bottom=0;" vertex="1" parent="T1UV1dCoxQ2zjjychoh9-114">
          <mxGeometry y="120" width="180" height="30" as="geometry" />
        </mxCell>
        <mxCell id="T1UV1dCoxQ2zjjychoh9-125" value="FK" style="shape=partialRectangle;connectable=0;fillColor=none;top=0;left=0;bottom=0;right=0;editable=1;overflow=hidden;whiteSpace=wrap;html=1;" vertex="1" parent="T1UV1dCoxQ2zjjychoh9-124">
          <mxGeometry width="30" height="30" as="geometry">
            <mxRectangle width="30" height="30" as="alternateBounds" />
          </mxGeometry>
        </mxCell>
        <mxCell id="T1UV1dCoxQ2zjjychoh9-126" value="municipio" style="shape=partialRectangle;connectable=0;fillColor=none;top=0;left=0;bottom=0;right=0;align=left;spacingLeft=6;overflow=hidden;whiteSpace=wrap;html=1;" vertex="1" parent="T1UV1dCoxQ2zjjychoh9-124">
          <mxGeometry x="30" width="150" height="30" as="geometry">
            <mxRectangle width="150" height="30" as="alternateBounds" />
          </mxGeometry>
        </mxCell>
        <mxCell id="T1UV1dCoxQ2zjjychoh9-127" style="shape=tableRow;horizontal=0;startSize=0;swimlaneHead=0;swimlaneBody=0;fillColor=none;collapsible=0;dropTarget=0;points=[[0,0.5],[1,0.5]];portConstraint=eastwest;top=0;left=0;right=0;bottom=0;" vertex="1" parent="T1UV1dCoxQ2zjjychoh9-114">
          <mxGeometry y="150" width="180" height="30" as="geometry" />
        </mxCell>
        <mxCell id="T1UV1dCoxQ2zjjychoh9-128" value="FK" style="shape=partialRectangle;connectable=0;fillColor=none;top=0;left=0;bottom=0;right=0;editable=1;overflow=hidden;whiteSpace=wrap;html=1;" vertex="1" parent="T1UV1dCoxQ2zjjychoh9-127">
          <mxGeometry width="30" height="30" as="geometry">
            <mxRectangle width="30" height="30" as="alternateBounds" />
          </mxGeometry>
        </mxCell>
        <mxCell id="T1UV1dCoxQ2zjjychoh9-129" value="ID_cooperativa" style="shape=partialRectangle;connectable=0;fillColor=none;top=0;left=0;bottom=0;right=0;align=left;spacingLeft=6;overflow=hidden;whiteSpace=wrap;html=1;" vertex="1" parent="T1UV1dCoxQ2zjjychoh9-127">
          <mxGeometry x="30" width="150" height="30" as="geometry">
            <mxRectangle width="150" height="30" as="alternateBounds" />
          </mxGeometry>
        </mxCell>
        <mxCell id="T1UV1dCoxQ2zjjychoh9-130" value="Galeria" style="shape=table;startSize=30;container=1;collapsible=1;childLayout=tableLayout;fixedRows=1;rowLines=0;fontStyle=1;align=center;resizeLast=1;html=1;" vertex="1" parent="1">
          <mxGeometry x="-480" y="430" width="180" height="120" as="geometry" />
        </mxCell>
        <mxCell id="T1UV1dCoxQ2zjjychoh9-131" value="" style="shape=tableRow;horizontal=0;startSize=0;swimlaneHead=0;swimlaneBody=0;fillColor=none;collapsible=0;dropTarget=0;points=[[0,0.5],[1,0.5]];portConstraint=eastwest;top=0;left=0;right=0;bottom=1;" vertex="1" parent="T1UV1dCoxQ2zjjychoh9-130">
          <mxGeometry y="30" width="180" height="30" as="geometry" />
        </mxCell>
        <mxCell id="T1UV1dCoxQ2zjjychoh9-132" value="PK" style="shape=partialRectangle;connectable=0;fillColor=none;top=0;left=0;bottom=0;right=0;fontStyle=1;overflow=hidden;whiteSpace=wrap;html=1;" vertex="1" parent="T1UV1dCoxQ2zjjychoh9-131">
          <mxGeometry width="30" height="30" as="geometry">
            <mxRectangle width="30" height="30" as="alternateBounds" />
          </mxGeometry>
        </mxCell>
        <mxCell id="T1UV1dCoxQ2zjjychoh9-133" value="ID_galeria" style="shape=partialRectangle;connectable=0;fillColor=none;top=0;left=0;bottom=0;right=0;align=left;spacingLeft=6;fontStyle=5;overflow=hidden;whiteSpace=wrap;html=1;" vertex="1" parent="T1UV1dCoxQ2zjjychoh9-131">
          <mxGeometry x="30" width="150" height="30" as="geometry">
            <mxRectangle width="150" height="30" as="alternateBounds" />
          </mxGeometry>
        </mxCell>
        <mxCell id="T1UV1dCoxQ2zjjychoh9-134" value="" style="shape=tableRow;horizontal=0;startSize=0;swimlaneHead=0;swimlaneBody=0;fillColor=none;collapsible=0;dropTarget=0;points=[[0,0.5],[1,0.5]];portConstraint=eastwest;top=0;left=0;right=0;bottom=0;" vertex="1" parent="T1UV1dCoxQ2zjjychoh9-130">
          <mxGeometry y="60" width="180" height="30" as="geometry" />
        </mxCell>
        <mxCell id="T1UV1dCoxQ2zjjychoh9-135" value="" style="shape=partialRectangle;connectable=0;fillColor=none;top=0;left=0;bottom=0;right=0;editable=1;overflow=hidden;whiteSpace=wrap;html=1;" vertex="1" parent="T1UV1dCoxQ2zjjychoh9-134">
          <mxGeometry width="30" height="30" as="geometry">
            <mxRectangle width="30" height="30" as="alternateBounds" />
          </mxGeometry>
        </mxCell>
        <mxCell id="T1UV1dCoxQ2zjjychoh9-136" value="galeria" style="shape=partialRectangle;connectable=0;fillColor=none;top=0;left=0;bottom=0;right=0;align=left;spacingLeft=6;overflow=hidden;whiteSpace=wrap;html=1;" vertex="1" parent="T1UV1dCoxQ2zjjychoh9-134">
          <mxGeometry x="30" width="150" height="30" as="geometry">
            <mxRectangle width="150" height="30" as="alternateBounds" />
          </mxGeometry>
        </mxCell>
        <mxCell id="T1UV1dCoxQ2zjjychoh9-137" value="" style="shape=tableRow;horizontal=0;startSize=0;swimlaneHead=0;swimlaneBody=0;fillColor=none;collapsible=0;dropTarget=0;points=[[0,0.5],[1,0.5]];portConstraint=eastwest;top=0;left=0;right=0;bottom=0;" vertex="1" parent="T1UV1dCoxQ2zjjychoh9-130">
          <mxGeometry y="90" width="180" height="30" as="geometry" />
        </mxCell>
        <mxCell id="T1UV1dCoxQ2zjjychoh9-138" value="FK" style="shape=partialRectangle;connectable=0;fillColor=none;top=0;left=0;bottom=0;right=0;editable=1;overflow=hidden;whiteSpace=wrap;html=1;" vertex="1" parent="T1UV1dCoxQ2zjjychoh9-137">
          <mxGeometry width="30" height="30" as="geometry">
            <mxRectangle width="30" height="30" as="alternateBounds" />
          </mxGeometry>
        </mxCell>
        <mxCell id="T1UV1dCoxQ2zjjychoh9-139" value="ID_sitio" style="shape=partialRectangle;connectable=0;fillColor=none;top=0;left=0;bottom=0;right=0;align=left;spacingLeft=6;overflow=hidden;whiteSpace=wrap;html=1;" vertex="1" parent="T1UV1dCoxQ2zjjychoh9-137">
          <mxGeometry x="30" width="150" height="30" as="geometry">
            <mxRectangle width="150" height="30" as="alternateBounds" />
          </mxGeometry>
        </mxCell>
        <mxCell id="T1UV1dCoxQ2zjjychoh9-143" value="Palabra clave" style="shape=table;startSize=30;container=1;collapsible=1;childLayout=tableLayout;fixedRows=1;rowLines=0;fontStyle=1;align=center;resizeLast=1;html=1;" vertex="1" parent="1">
          <mxGeometry x="-480" y="580" width="180" height="120" as="geometry" />
        </mxCell>
        <mxCell id="T1UV1dCoxQ2zjjychoh9-144" value="" style="shape=tableRow;horizontal=0;startSize=0;swimlaneHead=0;swimlaneBody=0;fillColor=none;collapsible=0;dropTarget=0;points=[[0,0.5],[1,0.5]];portConstraint=eastwest;top=0;left=0;right=0;bottom=1;" vertex="1" parent="T1UV1dCoxQ2zjjychoh9-143">
          <mxGeometry y="30" width="180" height="30" as="geometry" />
        </mxCell>
        <mxCell id="T1UV1dCoxQ2zjjychoh9-145" value="PK" style="shape=partialRectangle;connectable=0;fillColor=none;top=0;left=0;bottom=0;right=0;fontStyle=1;overflow=hidden;whiteSpace=wrap;html=1;" vertex="1" parent="T1UV1dCoxQ2zjjychoh9-144">
          <mxGeometry width="30" height="30" as="geometry">
            <mxRectangle width="30" height="30" as="alternateBounds" />
          </mxGeometry>
        </mxCell>
        <mxCell id="T1UV1dCoxQ2zjjychoh9-146" value="ID_palabra_clave" style="shape=partialRectangle;connectable=0;fillColor=none;top=0;left=0;bottom=0;right=0;align=left;spacingLeft=6;fontStyle=5;overflow=hidden;whiteSpace=wrap;html=1;" vertex="1" parent="T1UV1dCoxQ2zjjychoh9-144">
          <mxGeometry x="30" width="150" height="30" as="geometry">
            <mxRectangle width="150" height="30" as="alternateBounds" />
          </mxGeometry>
        </mxCell>
        <mxCell id="T1UV1dCoxQ2zjjychoh9-147" value="" style="shape=tableRow;horizontal=0;startSize=0;swimlaneHead=0;swimlaneBody=0;fillColor=none;collapsible=0;dropTarget=0;points=[[0,0.5],[1,0.5]];portConstraint=eastwest;top=0;left=0;right=0;bottom=0;" vertex="1" parent="T1UV1dCoxQ2zjjychoh9-143">
          <mxGeometry y="60" width="180" height="30" as="geometry" />
        </mxCell>
        <mxCell id="T1UV1dCoxQ2zjjychoh9-148" value="" style="shape=partialRectangle;connectable=0;fillColor=none;top=0;left=0;bottom=0;right=0;editable=1;overflow=hidden;whiteSpace=wrap;html=1;" vertex="1" parent="T1UV1dCoxQ2zjjychoh9-147">
          <mxGeometry width="30" height="30" as="geometry">
            <mxRectangle width="30" height="30" as="alternateBounds" />
          </mxGeometry>
        </mxCell>
        <mxCell id="T1UV1dCoxQ2zjjychoh9-149" value="palabra" style="shape=partialRectangle;connectable=0;fillColor=none;top=0;left=0;bottom=0;right=0;align=left;spacingLeft=6;overflow=hidden;whiteSpace=wrap;html=1;" vertex="1" parent="T1UV1dCoxQ2zjjychoh9-147">
          <mxGeometry x="30" width="150" height="30" as="geometry">
            <mxRectangle width="150" height="30" as="alternateBounds" />
          </mxGeometry>
        </mxCell>
        <mxCell id="T1UV1dCoxQ2zjjychoh9-150" value="" style="shape=tableRow;horizontal=0;startSize=0;swimlaneHead=0;swimlaneBody=0;fillColor=none;collapsible=0;dropTarget=0;points=[[0,0.5],[1,0.5]];portConstraint=eastwest;top=0;left=0;right=0;bottom=0;" vertex="1" parent="T1UV1dCoxQ2zjjychoh9-143">
          <mxGeometry y="90" width="180" height="30" as="geometry" />
        </mxCell>
        <mxCell id="T1UV1dCoxQ2zjjychoh9-151" value="FK" style="shape=partialRectangle;connectable=0;fillColor=none;top=0;left=0;bottom=0;right=0;editable=1;overflow=hidden;whiteSpace=wrap;html=1;" vertex="1" parent="T1UV1dCoxQ2zjjychoh9-150">
          <mxGeometry width="30" height="30" as="geometry">
            <mxRectangle width="30" height="30" as="alternateBounds" />
          </mxGeometry>
        </mxCell>
        <mxCell id="T1UV1dCoxQ2zjjychoh9-152" value="ID_sitio" style="shape=partialRectangle;connectable=0;fillColor=none;top=0;left=0;bottom=0;right=0;align=left;spacingLeft=6;overflow=hidden;whiteSpace=wrap;html=1;" vertex="1" parent="T1UV1dCoxQ2zjjychoh9-150">
          <mxGeometry x="30" width="150" height="30" as="geometry">
            <mxRectangle width="150" height="30" as="alternateBounds" />
          </mxGeometry>
        </mxCell>
        <mxCell id="T1UV1dCoxQ2zjjychoh9-153" style="edgeStyle=orthogonalEdgeStyle;rounded=0;orthogonalLoop=1;jettySize=auto;html=1;" edge="1" parent="1" source="T1UV1dCoxQ2zjjychoh9-121" target="T1UV1dCoxQ2zjjychoh9-134">
          <mxGeometry relative="1" as="geometry" />
        </mxCell>
        <mxCell id="T1UV1dCoxQ2zjjychoh9-154" style="edgeStyle=orthogonalEdgeStyle;rounded=0;orthogonalLoop=1;jettySize=auto;html=1;entryX=1;entryY=0.5;entryDx=0;entryDy=0;" edge="1" parent="1" source="T1UV1dCoxQ2zjjychoh9-124" target="T1UV1dCoxQ2zjjychoh9-147">
          <mxGeometry relative="1" as="geometry" />
        </mxCell>
        <mxCell id="T1UV1dCoxQ2zjjychoh9-212" style="edgeStyle=orthogonalEdgeStyle;rounded=0;orthogonalLoop=1;jettySize=auto;html=1;entryX=0.5;entryY=0;entryDx=0;entryDy=0;" edge="1" parent="1" source="T1UV1dCoxQ2zjjychoh9-156" target="T1UV1dCoxQ2zjjychoh9-198">
          <mxGeometry relative="1" as="geometry" />
        </mxCell>
        <mxCell id="T1UV1dCoxQ2zjjychoh9-156" value="Atractivo" style="shape=table;startSize=30;container=1;collapsible=1;childLayout=tableLayout;fixedRows=1;rowLines=0;fontStyle=1;align=center;resizeLast=1;html=1;" vertex="1" parent="1">
          <mxGeometry x="-250" y="650" width="180" height="180" as="geometry" />
        </mxCell>
        <mxCell id="T1UV1dCoxQ2zjjychoh9-157" value="" style="shape=tableRow;horizontal=0;startSize=0;swimlaneHead=0;swimlaneBody=0;fillColor=none;collapsible=0;dropTarget=0;points=[[0,0.5],[1,0.5]];portConstraint=eastwest;top=0;left=0;right=0;bottom=1;" vertex="1" parent="T1UV1dCoxQ2zjjychoh9-156">
          <mxGeometry y="30" width="180" height="30" as="geometry" />
        </mxCell>
        <mxCell id="T1UV1dCoxQ2zjjychoh9-158" value="PK" style="shape=partialRectangle;connectable=0;fillColor=none;top=0;left=0;bottom=0;right=0;fontStyle=1;overflow=hidden;whiteSpace=wrap;html=1;" vertex="1" parent="T1UV1dCoxQ2zjjychoh9-157">
          <mxGeometry width="30" height="30" as="geometry">
            <mxRectangle width="30" height="30" as="alternateBounds" />
          </mxGeometry>
        </mxCell>
        <mxCell id="T1UV1dCoxQ2zjjychoh9-159" value="ID_atractivo" style="shape=partialRectangle;connectable=0;fillColor=none;top=0;left=0;bottom=0;right=0;align=left;spacingLeft=6;fontStyle=5;overflow=hidden;whiteSpace=wrap;html=1;" vertex="1" parent="T1UV1dCoxQ2zjjychoh9-157">
          <mxGeometry x="30" width="150" height="30" as="geometry">
            <mxRectangle width="150" height="30" as="alternateBounds" />
          </mxGeometry>
        </mxCell>
        <mxCell id="T1UV1dCoxQ2zjjychoh9-160" value="" style="shape=tableRow;horizontal=0;startSize=0;swimlaneHead=0;swimlaneBody=0;fillColor=none;collapsible=0;dropTarget=0;points=[[0,0.5],[1,0.5]];portConstraint=eastwest;top=0;left=0;right=0;bottom=0;" vertex="1" parent="T1UV1dCoxQ2zjjychoh9-156">
          <mxGeometry y="60" width="180" height="30" as="geometry" />
        </mxCell>
        <mxCell id="T1UV1dCoxQ2zjjychoh9-161" value="" style="shape=partialRectangle;connectable=0;fillColor=none;top=0;left=0;bottom=0;right=0;editable=1;overflow=hidden;whiteSpace=wrap;html=1;" vertex="1" parent="T1UV1dCoxQ2zjjychoh9-160">
          <mxGeometry width="30" height="30" as="geometry">
            <mxRectangle width="30" height="30" as="alternateBounds" />
          </mxGeometry>
        </mxCell>
        <mxCell id="T1UV1dCoxQ2zjjychoh9-162" value="nombre" style="shape=partialRectangle;connectable=0;fillColor=none;top=0;left=0;bottom=0;right=0;align=left;spacingLeft=6;overflow=hidden;whiteSpace=wrap;html=1;" vertex="1" parent="T1UV1dCoxQ2zjjychoh9-160">
          <mxGeometry x="30" width="150" height="30" as="geometry">
            <mxRectangle width="150" height="30" as="alternateBounds" />
          </mxGeometry>
        </mxCell>
        <mxCell id="T1UV1dCoxQ2zjjychoh9-163" value="" style="shape=tableRow;horizontal=0;startSize=0;swimlaneHead=0;swimlaneBody=0;fillColor=none;collapsible=0;dropTarget=0;points=[[0,0.5],[1,0.5]];portConstraint=eastwest;top=0;left=0;right=0;bottom=0;" vertex="1" parent="T1UV1dCoxQ2zjjychoh9-156">
          <mxGeometry y="90" width="180" height="30" as="geometry" />
        </mxCell>
        <mxCell id="T1UV1dCoxQ2zjjychoh9-164" value="" style="shape=partialRectangle;connectable=0;fillColor=none;top=0;left=0;bottom=0;right=0;editable=1;overflow=hidden;whiteSpace=wrap;html=1;" vertex="1" parent="T1UV1dCoxQ2zjjychoh9-163">
          <mxGeometry width="30" height="30" as="geometry">
            <mxRectangle width="30" height="30" as="alternateBounds" />
          </mxGeometry>
        </mxCell>
        <mxCell id="T1UV1dCoxQ2zjjychoh9-165" value="reseÃ±a" style="shape=partialRectangle;connectable=0;fillColor=none;top=0;left=0;bottom=0;right=0;align=left;spacingLeft=6;overflow=hidden;whiteSpace=wrap;html=1;" vertex="1" parent="T1UV1dCoxQ2zjjychoh9-163">
          <mxGeometry x="30" width="150" height="30" as="geometry">
            <mxRectangle width="150" height="30" as="alternateBounds" />
          </mxGeometry>
        </mxCell>
        <mxCell id="T1UV1dCoxQ2zjjychoh9-166" value="" style="shape=tableRow;horizontal=0;startSize=0;swimlaneHead=0;swimlaneBody=0;fillColor=none;collapsible=0;dropTarget=0;points=[[0,0.5],[1,0.5]];portConstraint=eastwest;top=0;left=0;right=0;bottom=0;" vertex="1" parent="T1UV1dCoxQ2zjjychoh9-156">
          <mxGeometry y="120" width="180" height="30" as="geometry" />
        </mxCell>
        <mxCell id="T1UV1dCoxQ2zjjychoh9-167" value="" style="shape=partialRectangle;connectable=0;fillColor=none;top=0;left=0;bottom=0;right=0;editable=1;overflow=hidden;whiteSpace=wrap;html=1;" vertex="1" parent="T1UV1dCoxQ2zjjychoh9-166">
          <mxGeometry width="30" height="30" as="geometry">
            <mxRectangle width="30" height="30" as="alternateBounds" />
          </mxGeometry>
        </mxCell>
        <mxCell id="T1UV1dCoxQ2zjjychoh9-168" value="fotografÃ­a" style="shape=partialRectangle;connectable=0;fillColor=none;top=0;left=0;bottom=0;right=0;align=left;spacingLeft=6;overflow=hidden;whiteSpace=wrap;html=1;" vertex="1" parent="T1UV1dCoxQ2zjjychoh9-166">
          <mxGeometry x="30" width="150" height="30" as="geometry">
            <mxRectangle width="150" height="30" as="alternateBounds" />
          </mxGeometry>
        </mxCell>
        <mxCell id="T1UV1dCoxQ2zjjychoh9-172" style="shape=tableRow;horizontal=0;startSize=0;swimlaneHead=0;swimlaneBody=0;fillColor=none;collapsible=0;dropTarget=0;points=[[0,0.5],[1,0.5]];portConstraint=eastwest;top=0;left=0;right=0;bottom=0;" vertex="1" parent="T1UV1dCoxQ2zjjychoh9-156">
          <mxGeometry y="150" width="180" height="30" as="geometry" />
        </mxCell>
        <mxCell id="T1UV1dCoxQ2zjjychoh9-173" value="FK" style="shape=partialRectangle;connectable=0;fillColor=none;top=0;left=0;bottom=0;right=0;editable=1;overflow=hidden;whiteSpace=wrap;html=1;" vertex="1" parent="T1UV1dCoxQ2zjjychoh9-172">
          <mxGeometry width="30" height="30" as="geometry">
            <mxRectangle width="30" height="30" as="alternateBounds" />
          </mxGeometry>
        </mxCell>
        <mxCell id="T1UV1dCoxQ2zjjychoh9-174" value="ID_sitio" style="shape=partialRectangle;connectable=0;fillColor=none;top=0;left=0;bottom=0;right=0;align=left;spacingLeft=6;overflow=hidden;whiteSpace=wrap;html=1;" vertex="1" parent="T1UV1dCoxQ2zjjychoh9-172">
          <mxGeometry x="30" width="150" height="30" as="geometry">
            <mxRectangle width="150" height="30" as="alternateBounds" />
          </mxGeometry>
        </mxCell>
        <mxCell id="T1UV1dCoxQ2zjjychoh9-176" value="Itinerario" style="shape=table;startSize=30;container=1;collapsible=1;childLayout=tableLayout;fixedRows=1;rowLines=0;fontStyle=1;align=center;resizeLast=1;html=1;" vertex="1" parent="1">
          <mxGeometry x="150" y="600" width="180" height="180" as="geometry" />
        </mxCell>
        <mxCell id="T1UV1dCoxQ2zjjychoh9-177" value="" style="shape=tableRow;horizontal=0;startSize=0;swimlaneHead=0;swimlaneBody=0;fillColor=none;collapsible=0;dropTarget=0;points=[[0,0.5],[1,0.5]];portConstraint=eastwest;top=0;left=0;right=0;bottom=1;" vertex="1" parent="T1UV1dCoxQ2zjjychoh9-176">
          <mxGeometry y="30" width="180" height="30" as="geometry" />
        </mxCell>
        <mxCell id="T1UV1dCoxQ2zjjychoh9-178" value="PK" style="shape=partialRectangle;connectable=0;fillColor=none;top=0;left=0;bottom=0;right=0;fontStyle=1;overflow=hidden;whiteSpace=wrap;html=1;" vertex="1" parent="T1UV1dCoxQ2zjjychoh9-177">
          <mxGeometry width="30" height="30" as="geometry">
            <mxRectangle width="30" height="30" as="alternateBounds" />
          </mxGeometry>
        </mxCell>
        <mxCell id="T1UV1dCoxQ2zjjychoh9-179" value="ID_itinerario" style="shape=partialRectangle;connectable=0;fillColor=none;top=0;left=0;bottom=0;right=0;align=left;spacingLeft=6;fontStyle=5;overflow=hidden;whiteSpace=wrap;html=1;" vertex="1" parent="T1UV1dCoxQ2zjjychoh9-177">
          <mxGeometry x="30" width="150" height="30" as="geometry">
            <mxRectangle width="150" height="30" as="alternateBounds" />
          </mxGeometry>
        </mxCell>
        <mxCell id="T1UV1dCoxQ2zjjychoh9-180" value="" style="shape=tableRow;horizontal=0;startSize=0;swimlaneHead=0;swimlaneBody=0;fillColor=none;collapsible=0;dropTarget=0;points=[[0,0.5],[1,0.5]];portConstraint=eastwest;top=0;left=0;right=0;bottom=0;" vertex="1" parent="T1UV1dCoxQ2zjjychoh9-176">
          <mxGeometry y="60" width="180" height="30" as="geometry" />
        </mxCell>
        <mxCell id="T1UV1dCoxQ2zjjychoh9-181" value="" style="shape=partialRectangle;connectable=0;fillColor=none;top=0;left=0;bottom=0;right=0;editable=1;overflow=hidden;whiteSpace=wrap;html=1;" vertex="1" parent="T1UV1dCoxQ2zjjychoh9-180">
          <mxGeometry width="30" height="30" as="geometry">
            <mxRectangle width="30" height="30" as="alternateBounds" />
          </mxGeometry>
        </mxCell>
        <mxCell id="T1UV1dCoxQ2zjjychoh9-182" value="ID_atractivo" style="shape=partialRectangle;connectable=0;fillColor=none;top=0;left=0;bottom=0;right=0;align=left;spacingLeft=6;overflow=hidden;whiteSpace=wrap;html=1;" vertex="1" parent="T1UV1dCoxQ2zjjychoh9-180">
          <mxGeometry x="30" width="150" height="30" as="geometry">
            <mxRectangle width="150" height="30" as="alternateBounds" />
          </mxGeometry>
        </mxCell>
        <mxCell id="T1UV1dCoxQ2zjjychoh9-183" value="" style="shape=tableRow;horizontal=0;startSize=0;swimlaneHead=0;swimlaneBody=0;fillColor=none;collapsible=0;dropTarget=0;points=[[0,0.5],[1,0.5]];portConstraint=eastwest;top=0;left=0;right=0;bottom=0;" vertex="1" parent="T1UV1dCoxQ2zjjychoh9-176">
          <mxGeometry y="90" width="180" height="30" as="geometry" />
        </mxCell>
        <mxCell id="T1UV1dCoxQ2zjjychoh9-184" value="" style="shape=partialRectangle;connectable=0;fillColor=none;top=0;left=0;bottom=0;right=0;editable=1;overflow=hidden;whiteSpace=wrap;html=1;" vertex="1" parent="T1UV1dCoxQ2zjjychoh9-183">
          <mxGeometry width="30" height="30" as="geometry">
            <mxRectangle width="30" height="30" as="alternateBounds" />
          </mxGeometry>
        </mxCell>
        <mxCell id="T1UV1dCoxQ2zjjychoh9-185" value="ID_tour" style="shape=partialRectangle;connectable=0;fillColor=none;top=0;left=0;bottom=0;right=0;align=left;spacingLeft=6;overflow=hidden;whiteSpace=wrap;html=1;" vertex="1" parent="T1UV1dCoxQ2zjjychoh9-183">
          <mxGeometry x="30" width="150" height="30" as="geometry">
            <mxRectangle width="150" height="30" as="alternateBounds" />
          </mxGeometry>
        </mxCell>
        <mxCell id="T1UV1dCoxQ2zjjychoh9-186" value="" style="shape=tableRow;horizontal=0;startSize=0;swimlaneHead=0;swimlaneBody=0;fillColor=none;collapsible=0;dropTarget=0;points=[[0,0.5],[1,0.5]];portConstraint=eastwest;top=0;left=0;right=0;bottom=0;" vertex="1" parent="T1UV1dCoxQ2zjjychoh9-176">
          <mxGeometry y="120" width="180" height="30" as="geometry" />
        </mxCell>
        <mxCell id="T1UV1dCoxQ2zjjychoh9-187" value="" style="shape=partialRectangle;connectable=0;fillColor=none;top=0;left=0;bottom=0;right=0;editable=1;overflow=hidden;whiteSpace=wrap;html=1;" vertex="1" parent="T1UV1dCoxQ2zjjychoh9-186">
          <mxGeometry width="30" height="30" as="geometry">
            <mxRectangle width="30" height="30" as="alternateBounds" />
          </mxGeometry>
        </mxCell>
        <mxCell id="T1UV1dCoxQ2zjjychoh9-188" value="hora_llegada" style="shape=partialRectangle;connectable=0;fillColor=none;top=0;left=0;bottom=0;right=0;align=left;spacingLeft=6;overflow=hidden;whiteSpace=wrap;html=1;" vertex="1" parent="T1UV1dCoxQ2zjjychoh9-186">
          <mxGeometry x="30" width="150" height="30" as="geometry">
            <mxRectangle width="150" height="30" as="alternateBounds" />
          </mxGeometry>
        </mxCell>
        <mxCell id="T1UV1dCoxQ2zjjychoh9-189" style="shape=tableRow;horizontal=0;startSize=0;swimlaneHead=0;swimlaneBody=0;fillColor=none;collapsible=0;dropTarget=0;points=[[0,0.5],[1,0.5]];portConstraint=eastwest;top=0;left=0;right=0;bottom=0;" vertex="1" parent="T1UV1dCoxQ2zjjychoh9-176">
          <mxGeometry y="150" width="180" height="30" as="geometry" />
        </mxCell>
        <mxCell id="T1UV1dCoxQ2zjjychoh9-190" value="" style="shape=partialRectangle;connectable=0;fillColor=none;top=0;left=0;bottom=0;right=0;editable=1;overflow=hidden;whiteSpace=wrap;html=1;" vertex="1" parent="T1UV1dCoxQ2zjjychoh9-189">
          <mxGeometry width="30" height="30" as="geometry">
            <mxRectangle width="30" height="30" as="alternateBounds" />
          </mxGeometry>
        </mxCell>
        <mxCell id="T1UV1dCoxQ2zjjychoh9-191" value="hora_salida" style="shape=partialRectangle;connectable=0;fillColor=none;top=0;left=0;bottom=0;right=0;align=left;spacingLeft=6;overflow=hidden;whiteSpace=wrap;html=1;" vertex="1" parent="T1UV1dCoxQ2zjjychoh9-189">
          <mxGeometry x="30" width="150" height="30" as="geometry">
            <mxRectangle width="150" height="30" as="alternateBounds" />
          </mxGeometry>
        </mxCell>
        <mxCell id="T1UV1dCoxQ2zjjychoh9-195" style="edgeStyle=orthogonalEdgeStyle;rounded=0;orthogonalLoop=1;jettySize=auto;html=1;" edge="1" parent="1" source="T1UV1dCoxQ2zjjychoh9-160" target="T1UV1dCoxQ2zjjychoh9-180">
          <mxGeometry relative="1" as="geometry" />
        </mxCell>
        <mxCell id="T1UV1dCoxQ2zjjychoh9-196" style="edgeStyle=orthogonalEdgeStyle;rounded=0;orthogonalLoop=1;jettySize=auto;html=1;entryX=0.557;entryY=1.022;entryDx=0;entryDy=0;entryPerimeter=0;" edge="1" parent="1" source="T1UV1dCoxQ2zjjychoh9-180" target="T1UV1dCoxQ2zjjychoh9-68">
          <mxGeometry relative="1" as="geometry" />
        </mxCell>
        <mxCell id="T1UV1dCoxQ2zjjychoh9-197" value="Ejercicio de repaso clase 10/04" style="text;html=1;align=center;verticalAlign=middle;whiteSpace=wrap;rounded=0;" vertex="1" parent="1">
          <mxGeometry x="-510" y="10" width="190" height="30" as="geometry" />
        </mxCell>
        <mxCell id="T1UV1dCoxQ2zjjychoh9-198" value="Tipo_atractivo" style="shape=table;startSize=30;container=1;collapsible=1;childLayout=tableLayout;fixedRows=1;rowLines=0;fontStyle=1;align=center;resizeLast=1;html=1;" vertex="1" parent="1">
          <mxGeometry x="-250" y="900" width="180" height="150" as="geometry" />
        </mxCell>
        <mxCell id="T1UV1dCoxQ2zjjychoh9-199" value="" style="shape=tableRow;horizontal=0;startSize=0;swimlaneHead=0;swimlaneBody=0;fillColor=none;collapsible=0;dropTarget=0;points=[[0,0.5],[1,0.5]];portConstraint=eastwest;top=0;left=0;right=0;bottom=1;" vertex="1" parent="T1UV1dCoxQ2zjjychoh9-198">
          <mxGeometry y="30" width="180" height="30" as="geometry" />
        </mxCell>
        <mxCell id="T1UV1dCoxQ2zjjychoh9-200" value="PK" style="shape=partialRectangle;connectable=0;fillColor=none;top=0;left=0;bottom=0;right=0;fontStyle=1;overflow=hidden;whiteSpace=wrap;html=1;" vertex="1" parent="T1UV1dCoxQ2zjjychoh9-199">
          <mxGeometry width="30" height="30" as="geometry">
            <mxRectangle width="30" height="30" as="alternateBounds" />
          </mxGeometry>
        </mxCell>
        <mxCell id="T1UV1dCoxQ2zjjychoh9-201" value="ID_tipo_atractivo" style="shape=partialRectangle;connectable=0;fillColor=none;top=0;left=0;bottom=0;right=0;align=left;spacingLeft=6;fontStyle=5;overflow=hidden;whiteSpace=wrap;html=1;" vertex="1" parent="T1UV1dCoxQ2zjjychoh9-199">
          <mxGeometry x="30" width="150" height="30" as="geometry">
            <mxRectangle width="150" height="30" as="alternateBounds" />
          </mxGeometry>
        </mxCell>
        <mxCell id="T1UV1dCoxQ2zjjychoh9-202" value="" style="shape=tableRow;horizontal=0;startSize=0;swimlaneHead=0;swimlaneBody=0;fillColor=none;collapsible=0;dropTarget=0;points=[[0,0.5],[1,0.5]];portConstraint=eastwest;top=0;left=0;right=0;bottom=0;" vertex="1" parent="T1UV1dCoxQ2zjjychoh9-198">
          <mxGeometry y="60" width="180" height="30" as="geometry" />
        </mxCell>
        <mxCell id="T1UV1dCoxQ2zjjychoh9-203" value="" style="shape=partialRectangle;connectable=0;fillColor=none;top=0;left=0;bottom=0;right=0;editable=1;overflow=hidden;whiteSpace=wrap;html=1;" vertex="1" parent="T1UV1dCoxQ2zjjychoh9-202">
          <mxGeometry width="30" height="30" as="geometry">
            <mxRectangle width="30" height="30" as="alternateBounds" />
          </mxGeometry>
        </mxCell>
        <mxCell id="T1UV1dCoxQ2zjjychoh9-204" value="tipo" style="shape=partialRectangle;connectable=0;fillColor=none;top=0;left=0;bottom=0;right=0;align=left;spacingLeft=6;overflow=hidden;whiteSpace=wrap;html=1;" vertex="1" parent="T1UV1dCoxQ2zjjychoh9-202">
          <mxGeometry x="30" width="150" height="30" as="geometry">
            <mxRectangle width="150" height="30" as="alternateBounds" />
          </mxGeometry>
        </mxCell>
        <mxCell id="T1UV1dCoxQ2zjjychoh9-205" value="" style="shape=tableRow;horizontal=0;startSize=0;swimlaneHead=0;swimlaneBody=0;fillColor=none;collapsible=0;dropTarget=0;points=[[0,0.5],[1,0.5]];portConstraint=eastwest;top=0;left=0;right=0;bottom=0;" vertex="1" parent="T1UV1dCoxQ2zjjychoh9-198">
          <mxGeometry y="90" width="180" height="30" as="geometry" />
        </mxCell>
        <mxCell id="T1UV1dCoxQ2zjjychoh9-206" value="FK" style="shape=partialRectangle;connectable=0;fillColor=none;top=0;left=0;bottom=0;right=0;editable=1;overflow=hidden;whiteSpace=wrap;html=1;" vertex="1" parent="T1UV1dCoxQ2zjjychoh9-205">
          <mxGeometry width="30" height="30" as="geometry">
            <mxRectangle width="30" height="30" as="alternateBounds" />
          </mxGeometry>
        </mxCell>
        <mxCell id="T1UV1dCoxQ2zjjychoh9-207" value="ID_atractipo" style="shape=partialRectangle;connectable=0;fillColor=none;top=0;left=0;bottom=0;right=0;align=left;spacingLeft=6;overflow=hidden;whiteSpace=wrap;html=1;" vertex="1" parent="T1UV1dCoxQ2zjjychoh9-205">
          <mxGeometry x="30" width="150" height="30" as="geometry">
            <mxRectangle width="150" height="30" as="alternateBounds" />
          </mxGeometry>
        </mxCell>
        <mxCell id="T1UV1dCoxQ2zjjychoh9-208" value="" style="shape=tableRow;horizontal=0;startSize=0;swimlaneHead=0;swimlaneBody=0;fillColor=none;collapsible=0;dropTarget=0;points=[[0,0.5],[1,0.5]];portConstraint=eastwest;top=0;left=0;right=0;bottom=0;" vertex="1" parent="T1UV1dCoxQ2zjjychoh9-198">
          <mxGeometry y="120" width="180" height="30" as="geometry" />
        </mxCell>
        <mxCell id="T1UV1dCoxQ2zjjychoh9-209" value="" style="shape=partialRectangle;connectable=0;fillColor=none;top=0;left=0;bottom=0;right=0;editable=1;overflow=hidden;whiteSpace=wrap;html=1;" vertex="1" parent="T1UV1dCoxQ2zjjychoh9-208">
          <mxGeometry width="30" height="30" as="geometry">
            <mxRectangle width="30" height="30" as="alternateBounds" />
          </mxGeometry>
        </mxCell>
        <mxCell id="T1UV1dCoxQ2zjjychoh9-210" value="" style="shape=partialRectangle;connectable=0;fillColor=none;top=0;left=0;bottom=0;right=0;align=left;spacingLeft=6;overflow=hidden;whiteSpace=wrap;html=1;" vertex="1" parent="T1UV1dCoxQ2zjjychoh9-208">
          <mxGeometry x="30" width="150" height="30" as="geometry">
            <mxRectangle width="150" height="30" as="alternateBounds" />
          </mxGeometry>
        </mxCell>
        <mxCell id="T1UV1dCoxQ2zjjychoh9-213" value="Tipo" style="shape=table;startSize=30;container=1;collapsible=1;childLayout=tableLayout;fixedRows=1;rowLines=0;fontStyle=1;align=center;resizeLast=1;html=1;" vertex="1" parent="1">
          <mxGeometry y="380" width="180" height="90" as="geometry" />
        </mxCell>
        <mxCell id="T1UV1dCoxQ2zjjychoh9-214" value="" style="shape=tableRow;horizontal=0;startSize=0;swimlaneHead=0;swimlaneBody=0;fillColor=none;collapsible=0;dropTarget=0;points=[[0,0.5],[1,0.5]];portConstraint=eastwest;top=0;left=0;right=0;bottom=1;" vertex="1" parent="T1UV1dCoxQ2zjjychoh9-213">
          <mxGeometry y="30" width="180" height="30" as="geometry" />
        </mxCell>
        <mxCell id="T1UV1dCoxQ2zjjychoh9-215" value="PK" style="shape=partialRectangle;connectable=0;fillColor=none;top=0;left=0;bottom=0;right=0;fontStyle=1;overflow=hidden;whiteSpace=wrap;html=1;" vertex="1" parent="T1UV1dCoxQ2zjjychoh9-214">
          <mxGeometry width="30" height="30" as="geometry">
            <mxRectangle width="30" height="30" as="alternateBounds" />
          </mxGeometry>
        </mxCell>
        <mxCell id="T1UV1dCoxQ2zjjychoh9-216" value="ID_tipo" style="shape=partialRectangle;connectable=0;fillColor=none;top=0;left=0;bottom=0;right=0;align=left;spacingLeft=6;fontStyle=5;overflow=hidden;whiteSpace=wrap;html=1;" vertex="1" parent="T1UV1dCoxQ2zjjychoh9-214">
          <mxGeometry x="30" width="150" height="30" as="geometry">
            <mxRectangle width="150" height="30" as="alternateBounds" />
          </mxGeometry>
        </mxCell>
        <mxCell id="T1UV1dCoxQ2zjjychoh9-217" value="" style="shape=tableRow;horizontal=0;startSize=0;swimlaneHead=0;swimlaneBody=0;fillColor=none;collapsible=0;dropTarget=0;points=[[0,0.5],[1,0.5]];portConstraint=eastwest;top=0;left=0;right=0;bottom=0;" vertex="1" parent="T1UV1dCoxQ2zjjychoh9-213">
          <mxGeometry y="60" width="180" height="30" as="geometry" />
        </mxCell>
        <mxCell id="T1UV1dCoxQ2zjjychoh9-218" value="" style="shape=partialRectangle;connectable=0;fillColor=none;top=0;left=0;bottom=0;right=0;editable=1;overflow=hidden;whiteSpace=wrap;html=1;" vertex="1" parent="T1UV1dCoxQ2zjjychoh9-217">
          <mxGeometry width="30" height="30" as="geometry">
            <mxRectangle width="30" height="30" as="alternateBounds" />
          </mxGeometry>
        </mxCell>
        <mxCell id="T1UV1dCoxQ2zjjychoh9-219" value="tipo" style="shape=partialRectangle;connectable=0;fillColor=none;top=0;left=0;bottom=0;right=0;align=left;spacingLeft=6;overflow=hidden;whiteSpace=wrap;html=1;" vertex="1" parent="T1UV1dCoxQ2zjjychoh9-217">
          <mxGeometry x="30" width="150" height="30" as="geometry">
            <mxRectangle width="150" height="30" as="alternateBounds" />
          </mxGeometry>
        </mxCell>
        <mxCell id="T1UV1dCoxQ2zjjychoh9-226" value="Municipio" style="shape=table;startSize=30;container=1;collapsible=1;childLayout=tableLayout;fixedRows=1;rowLines=0;fontStyle=1;align=center;resizeLast=1;html=1;" vertex="1" parent="1">
          <mxGeometry y="490" width="180" height="90" as="geometry" />
        </mxCell>
        <mxCell id="T1UV1dCoxQ2zjjychoh9-227" value="" style="shape=tableRow;horizontal=0;startSize=0;swimlaneHead=0;swimlaneBody=0;fillColor=none;collapsible=0;dropTarget=0;points=[[0,0.5],[1,0.5]];portConstraint=eastwest;top=0;left=0;right=0;bottom=1;" vertex="1" parent="T1UV1dCoxQ2zjjychoh9-226">
          <mxGeometry y="30" width="180" height="30" as="geometry" />
        </mxCell>
        <mxCell id="T1UV1dCoxQ2zjjychoh9-228" value="PK" style="shape=partialRectangle;connectable=0;fillColor=none;top=0;left=0;bottom=0;right=0;fontStyle=1;overflow=hidden;whiteSpace=wrap;html=1;" vertex="1" parent="T1UV1dCoxQ2zjjychoh9-227">
          <mxGeometry width="30" height="30" as="geometry">
            <mxRectangle width="30" height="30" as="alternateBounds" />
          </mxGeometry>
        </mxCell>
        <mxCell id="T1UV1dCoxQ2zjjychoh9-229" value="ID_municipio" style="shape=partialRectangle;connectable=0;fillColor=none;top=0;left=0;bottom=0;right=0;align=left;spacingLeft=6;fontStyle=5;overflow=hidden;whiteSpace=wrap;html=1;" vertex="1" parent="T1UV1dCoxQ2zjjychoh9-227">
          <mxGeometry x="30" width="150" height="30" as="geometry">
            <mxRectangle width="150" height="30" as="alternateBounds" />
          </mxGeometry>
        </mxCell>
        <mxCell id="T1UV1dCoxQ2zjjychoh9-230" value="" style="shape=tableRow;horizontal=0;startSize=0;swimlaneHead=0;swimlaneBody=0;fillColor=none;collapsible=0;dropTarget=0;points=[[0,0.5],[1,0.5]];portConstraint=eastwest;top=0;left=0;right=0;bottom=0;" vertex="1" parent="T1UV1dCoxQ2zjjychoh9-226">
          <mxGeometry y="60" width="180" height="30" as="geometry" />
        </mxCell>
        <mxCell id="T1UV1dCoxQ2zjjychoh9-231" value="" style="shape=partialRectangle;connectable=0;fillColor=none;top=0;left=0;bottom=0;right=0;editable=1;overflow=hidden;whiteSpace=wrap;html=1;" vertex="1" parent="T1UV1dCoxQ2zjjychoh9-230">
          <mxGeometry width="30" height="30" as="geometry">
            <mxRectangle width="30" height="30" as="alternateBounds" />
          </mxGeometry>
        </mxCell>
        <mxCell id="T1UV1dCoxQ2zjjychoh9-232" value="nombre_municipio" style="shape=partialRectangle;connectable=0;fillColor=none;top=0;left=0;bottom=0;right=0;align=left;spacingLeft=6;overflow=hidden;whiteSpace=wrap;html=1;" vertex="1" parent="T1UV1dCoxQ2zjjychoh9-230">
          <mxGeometry x="30" width="150" height="30" as="geometry">
            <mxRectangle width="150" height="30" as="alternateBounds" />
          </mxGeometry>
        </mxCell>
        <mxCell id="T1UV1dCoxQ2zjjychoh9-233" style="edgeStyle=orthogonalEdgeStyle;rounded=0;orthogonalLoop=1;jettySize=auto;html=1;" edge="1" parent="1" source="T1UV1dCoxQ2zjjychoh9-118" target="T1UV1dCoxQ2zjjychoh9-214">
          <mxGeometry relative="1" as="geometry" />
        </mxCell>
        <mxCell id="T1UV1dCoxQ2zjjychoh9-234" style="edgeStyle=orthogonalEdgeStyle;rounded=0;orthogonalLoop=1;jettySize=auto;html=1;entryX=0;entryY=0.5;entryDx=0;entryDy=0;" edge="1" parent="1" source="T1UV1dCoxQ2zjjychoh9-121" target="T1UV1dCoxQ2zjjychoh9-227">
          <mxGeometry relative="1" as="geometry" />
        </mxCell>
      </root>
    </mxGraphModel>
  </diagram>
</mxfile>
